<svg xmlns="http://www.w3.org/2000/svg" viewBox="0 0 337.99 609.76"><defs><style>.cls-1{fill:#ffc697;}.cls-2{fill:#f6921e;}.cls-3{fill:#310b6d;}.cls-4{fill:#f1c7a9;}.cls-5{fill:#1a1a1a;}.cls-6{fill:#ffc200;}.cls-7{fill:#d3976a;}.cls-8{fill:#302424;}.cls-9{fill:#fff;}.cls-10{fill:#540a0a;}.cls-11{fill:#c64f4f;}</style></defs><title>Boy Still</title><g id="Layer_2" data-name="Layer 2"><g id="Layer_12" data-name="Layer 12"><path class="cls-1" d="M287,165.75c2.71,7.34-6.63,53.74-16.76,65.82s-31.35,21.36-31.35,21.36-2.83,32.33,14.56,34.25c0,0,28.94-14.23,36.76-30.88s26.75-85.54,25.71-93.11"/><path class="cls-2" d="M181.62,318a31.67,31.67,0,0,1-23.57-7.76c-5.77-5.1-11.86-11.54-13-16.8C142.89,283,202,255.1,212.29,247.35s18.57-9.57,23.83.16,27.78,56,18.33,60.37C246.2,311.65,211.3,315.57,181.62,318Z"/><path class="cls-1" d="M282,137.55s32.55-3.85,40.14,4.47-4.34,31.47-12.66,32.91-27,.18-28.93-23.93C279.66,139.85,282,137.55,282,137.55Z"/><path class="cls-1" d="M282,137.55s-9.05-39.29,0-40.38,16.63,38,14.1,45.93S282,137.55,282,137.55Z"/><path class="cls-1" d="M296.9,138.89S301.1,93.57,310.11,95s3.51,46.07-1.52,54S296.9,138.89,296.9,138.89Z"/><path class="cls-1" d="M308.8,143.24s22.62-30.07,28.3-25.21-17.55,33.88-24.51,37.3S308.8,143.24,308.8,143.24Z"/><path class="cls-1" d="M284.35,165s-6.76-12.72-20.14-7.15-6.35-23,7.25-16.56S285.89,155,285.89,155Z"/><path class="cls-3" d="M203.2,489c17.64,56.12,9.23,97.28,9.23,97.28l-45.69,14.54c7.75-40.66,3.2-75.3-5-102.14-12.06-39.61-32-62.25-32-62.25L170.54,421A270.36,270.36,0,0,1,203.2,489Z"/><path class="cls-4" d="M203.2,489c17.64,56.12,9.23,97.28,9.23,97.28l-45.69,14.54c7.75-40.66,3.2-75.3-5-102.14C171,492.81,185.51,486.47,203.2,489Z"/><path class="cls-2" d="M243.76,609.76h-76a6.28,6.28,0,0,1-6-8.15C171.2,572.13,189.24,564,220,569.7c22.86,4.25,28.58,21.48,29.9,31.91.07.44.12.87.16,1.28A6.27,6.27,0,0,1,243.76,609.76Z"/><path class="cls-5" d="M243.76,609.76h-76a6.28,6.28,0,0,1-6-8.15h88.06c.07.44.12.87.16,1.28A6.27,6.27,0,0,1,243.76,609.76Z"/><path class="cls-3" d="M50.63,489c-17.63,56.12-9.22,97.28-9.22,97.28l45.68,14.54c-7.74-40.66-3.2-75.3,5-102.14,12-39.61,32-62.25,32-62.25L83.29,421A270.71,270.71,0,0,0,50.63,489Z"/><path class="cls-4" d="M50.63,489c-17.63,56.12-9.22,97.28-9.22,97.28l45.68,14.54c-7.74-40.66-3.2-75.3,5-102.14C82.86,492.81,68.32,486.47,50.63,489Z"/><path class="cls-2" d="M10.08,609.76h76a6.27,6.27,0,0,0,6-8.15C82.63,572.13,64.59,564,33.88,569.7,11,574,5.3,591.18,4,601.61c-.06.44-.11.87-.15,1.28A6.27,6.27,0,0,0,10.08,609.76Z"/><path class="cls-5" d="M10.08,609.76h76a6.27,6.27,0,0,0,6-8.15H4c-.06.44-.11.87-.15,1.28A6.27,6.27,0,0,0,10.08,609.76Z"/><path class="cls-6" d="M180.27,402c0,.38.07.76.1,1.12,3.78,46.15-39.42,67-81.65,55-22-6.25-32.1-26.23-34.31-52.24-2.08-24.32,2.71-53.91,11.1-82.48,17.34-59.13,56.38-51.82,56.38-51.82C161.71,274.56,170.36,300.6,180.27,402Z"/><path class="cls-3" d="M180.37,403.11c3.78,46.15-39.42,67-81.65,55-22-6.25-32.1-26.23-34.31-52.24C84.59,396,130.35,379.78,180.37,403.11Z"/><path class="cls-7" d="M115.86,257.64s-8.31,24.83,11.24,24.57-2.1.53,13.11-23.41S115.86,257.64,115.86,257.64Z"/><path class="cls-1" d="M54.41,444.73s8.46,1.53,12.75,7.51-1,10.84-4.5,10S52.28,455.84,54.41,444.73Z"/><path class="cls-1" d="M29.58,337.44s-16.63,24.27-15.4,41,10.72,73.28,14.94,78.84-1.38,8.28,1.84,15.24,11.12,18.33,19.41,13S74.3,470,73.61,466.14,62.71,453.61,57.27,449,38.49,403.3,41.13,389.17s15.36-31,15.36-31S44.27,331.18,29.58,337.44Z"/><path class="cls-2" d="M72.89,280.78a28.89,28.89,0,0,1,22.22-4.38c6.87,1.46,14.59,3.85,17.83,7.55,6.42,7.32-28.1,56-32.79,66.72s-10.48,15.92-19,10.54S14,329.1,19.54,321.43C24.41,314.73,50.39,296,72.89,280.78Z"/><path class="cls-1" d="M65.15,230.81s31.06,38,86,30.3,61.71-54.27,59.62-65.66-16.11-24.23-11.21-45.53,7.5-31,.43-54.11-16.15-51.65-47.14-53.9S55.76,67.23,41.79,92.7,22.35,165.37,36,192,65.15,230.81,65.15,230.81Z"/><path class="cls-8" d="M87.8,170.57s-15.26-39.28-12.68-51.76,37-49.87,43.55-51.65,31.84,13.41,59.09,12.19S226.91,51.87,220.41,0c0,0-43.92,24.68-88.38,16s-73.8,5.73-90,26.7-8.64,46.46-8.64,46.46-16.53-7-14.13-28.84c0,0-12.47,13.83,2.16,36.26,0,0-13.27-2.46-21.39,18.91,0,0,6.54-11,20.42-5.45,0,0-19,26.21-13.85,49.65S37,226.39,76.31,248.91c0,0,6.9,3,3.27-10.57s-9.27-32.5-9.27-32.5L81,161.31Z"/><path class="cls-1" d="M87.8,170.57s-8.72-19.68-20-17.19-21.18,14.85-10.9,37.92,26.62,16.21,26.62,16.21"/><path d="M87.8,170.57a50.47,50.47,0,0,0-7.69-11A22,22,0,0,0,75,155.39,10.1,10.1,0,0,0,68.93,154a19.17,19.17,0,0,0-3.1.81,20,20,0,0,0-2.93,1.36A16.67,16.67,0,0,0,58,160.28l-.52.61c-.16.21-.29.45-.45.67l-.88,1.34-.7,1.45c-.11.24-.24.48-.34.73l-.26.76-.51,1.53L54,169a21.74,21.74,0,0,0-.38,3.23,35.65,35.65,0,0,0,1.94,13A51.27,51.27,0,0,0,61,197.28,24.31,24.31,0,0,0,63,200a22.44,22.44,0,0,0,2.2,2.47l.57.6c.2.18.43.34.64.52l1.28,1a14.21,14.21,0,0,0,1.38.9,11.18,11.18,0,0,0,1.43.81,17.78,17.78,0,0,0,13,1.2A17.66,17.66,0,0,1,70,207.22a24.92,24.92,0,0,1-10.32-9.06,49.62,49.62,0,0,1-6-12.39,37.48,37.48,0,0,1-2.14-13.69,22.94,22.94,0,0,1,.44-3.5l.37-1.73.57-1.68.29-.84c.11-.28.26-.54.39-.81l.79-1.6,1-1.48a8.89,8.89,0,0,1,1.1-1.41A18.64,18.64,0,0,1,62,154.61a21.65,21.65,0,0,1,3.24-1.42,20.81,20.81,0,0,1,3.49-.77,11.38,11.38,0,0,1,6.89,1.83,22.47,22.47,0,0,1,5.19,4.61,41.52,41.52,0,0,1,3.91,5.62A43.78,43.78,0,0,1,87.8,170.57Z"/><ellipse class="cls-7" cx="74.38" cy="180.77" rx="10.18" ry="13.96" transform="translate(-25.77 12.9) rotate(-8.46)"/><ellipse class="cls-9" cx="132.93" cy="158.62" rx="13.93" ry="18.46" transform="translate(-11.03 9.94) rotate(-4.11)"/><ellipse cx="128.59" cy="158.68" rx="8.38" ry="11.1" transform="translate(-11.04 9.62) rotate(-4.11)"/><ellipse class="cls-9" cx="124.62" cy="156.8" rx="2.56" ry="3.4" transform="translate(-10.92 9.34) rotate(-4.11)"/><ellipse class="cls-9" cx="177.64" cy="155.4" rx="13.93" ry="18.46" transform="translate(-10.68 13.13) rotate(-4.11)"/><ellipse cx="172.93" cy="155.49" rx="8.38" ry="11.1" transform="translate(-10.7 12.79) rotate(-4.11)"/><ellipse class="cls-9" cx="169.33" cy="153.58" rx="2.56" ry="3.4" transform="translate(-10.57 12.53) rotate(-4.11)"/><path class="cls-8" d="M142,113.4l1,13.93S125.28,112,97.66,136.59C97.66,136.59,103,111,142,113.4Z"/><path class="cls-8" d="M163.17,113.08,164,125s15.13-20.92,38.56.51C202.59,125.53,191.62,97,163.17,113.08Z"/><path class="cls-1" d="M165.52,164.91a45.3,45.3,0,0,0,14.34,15.92c9.66,6.36-10.93,20.46-27.64,16.15"/><path d="M165.52,164.91a56.57,56.57,0,0,0,4.83,6,53.07,53.07,0,0,0,5.46,5.26l1.48,1.16,1.51,1.11,1.55,1c.24.15.57.39.88.61a5.34,5.34,0,0,1,.89.77A5.91,5.91,0,0,1,183.5,183a5.84,5.84,0,0,1,.27,2.58,8.77,8.77,0,0,1-1.9,4.22,21.32,21.32,0,0,1-6.49,5.14,31.7,31.7,0,0,1-7.54,2.79,26.71,26.71,0,0,1-15.62-.72,35.93,35.93,0,0,0,21.75-4.6,19.39,19.39,0,0,0,5.5-4.5,5.83,5.83,0,0,0,1.33-2.7,2.68,2.68,0,0,0-.78-2.35,3.35,3.35,0,0,0-.54-.52c-.2-.16-.38-.32-.68-.53-.54-.4-1.08-.79-1.6-1.2l-1.54-1.28-1.45-1.37a40.66,40.66,0,0,1-5-6.09A34.25,34.25,0,0,1,165.52,164.91Z"/><path class="cls-10" d="M178.45,226.8a20.36,20.36,0,0,1-11.7,4.67c-7.9.71-13.53-1.58-17.54-4.84a26.5,26.5,0,0,1-7-9.27A28.91,28.91,0,0,1,140,211c1.83.19,3.66.3,5.48.32.92,0,1.83,0,2.75,0,13-.36,25.22-4.42,32.49-7.4h0l.7-.29,1.17-.5c3.18-1.37,2.5-1.12,2.5-1.12S188.66,218.16,178.45,226.8Z"/><path class="cls-11" d="M178.5,224.16a7.61,7.61,0,0,1,0,2.65,20.45,20.45,0,0,1-11.71,4.66c-7.9.71-13.53-1.57-17.54-4.84.66-4.91,6-9.35,13-10.48C170.3,214.86,177.59,218.44,178.5,224.16Z"/><path class="cls-9" d="M182.34,209.93c-.7,5.17-23.81,12.86-40.13,7.43A28.91,28.91,0,0,1,140,211c1.83.19,3.66.3,5.48.32.92,0,1.83,0,2.75,0,13-.36,25.22-4.42,32.49-7.4h0l.7-.29A12.75,12.75,0,0,1,182.34,209.93Z"/></g></g></svg>