<svg xmlns="http://www.w3.org/2000/svg" viewBox="0 0 420.05 99.26"><defs><style>.cls-1{fill:#fff;}</style></defs><title>Cloud</title><g id="Layer_2" data-name="Layer 2"><g id="Layer_14" data-name="Layer 14"><polygon class="cls-1" points="420.06 99.26 0 99.26 103.54 85.63 148.84 79.67 331.93 79.67 341.13 81.72 420.06 99.26"/><path class="cls-1" d="M221.16,99.26H101a60.21,60.21,0,0,1,120.14,0Z"/><path class="cls-1" d="M314.41,74c0,1.92-.08,3.82-.21,5.7A74,74,0,0,1,310,99.26H170.92a73.65,73.65,0,0,1-4.23-19.59c-.13-1.88-.21-3.78-.21-5.7a74,74,0,1,1,147.93,0Z"/><path class="cls-1" d="M341.83,89.46a42.81,42.81,0,0,1-1.14,9.8h-83a42.81,42.81,0,0,1-1.14-9.8,42.11,42.11,0,0,1,1.14-9.79,42.64,42.64,0,0,1,83.43,2A43.86,43.86,0,0,1,341.83,89.46Z"/></g></g></svg>