<svg xmlns="http://www.w3.org/2000/svg" xmlns:xlink="http://www.w3.org/1999/xlink" viewBox="0 0 1250.05 601.76"><defs><style>.cls-1{fill:none;}.cls-2,.cls-6{fill:#fff;}.cls-3{fill:#11326d;}.cls-4{fill:#f90657;}.cls-5{fill:#f7931e;}.cls-6{opacity:0.24;}.cls-7{clip-path:url(#clip-path);}.cls-13,.cls-8{fill:#2e4423;}.cls-10,.cls-8,.cls-9{stroke:#024423;}.cls-10,.cls-13,.cls-14,.cls-15,.cls-8,.cls-9{stroke-miterlimit:10;stroke-width:3.72px;}.cls-14,.cls-9{fill:#416333;}.cls-10,.cls-15{fill:#558742;}.cls-11{fill:#024423;}.cls-12{clip-path:url(#clip-path-2);}.cls-13,.cls-14,.cls-15{stroke:#014221;}.cls-16{fill:#014221;}</style><clipPath id="clip-path" transform="translate(-75.95 -31.95)"><polygon class="cls-1" points="337.38 96.27 337.38 261.38 187.36 346.64 0 126.91 120.4 0 337.38 96.27"/></clipPath><clipPath id="clip-path-2" transform="translate(-75.95 -31.95)"><path class="cls-1" d="M1069.27,100.68l-35.17,47.06s-24.39-16.21-40.5-8-10.61,31.63-8.4,32.44,9.07,22.1,47.9,2.84l30.8,69.36s-38.49,38.75-78.39,33.5,158.62,50.41,158.52,52.06,144.45-110.67,144.45-110.67l-5.71-109.42s-88.18-34.43-92.38-34.43S1069.27,100.68,1069.27,100.68Z"/></clipPath></defs><title>Game Title</title><g id="Layer_2" data-name="Layer 2"><g id="Layer_2-2" data-name="Layer 2"><path class="cls-2" d="M1165.11,425.73l-206.3-42.79s-8-41.2,13.31-85.58-40.51-82.53-40.51-82.53H406.68L290.39,392.29l24.06,121.62h819.9Z" transform="translate(-75.95 -31.95)"/><path class="cls-2" d="M208.27,435.93l-36.68,168.6,63.29,29.18,11.3-30.4,22.09-7.3,21.64,20.68,36.48-19.46s90.3-9,110.2-69l57.6,53.14,34.05-70.53,15.9,53.51,97.19-7.2,11.31-10.71,49.49,10.71V528.28l51.37,47.77,9.43-18.85,76.61,11.65,6.08-55.52s11.1,68.73,54.87,70.52S954,567.5,954,567.5l2.63,17.36,46,8.41,6.14-9.42,18.09,30.75,33.9-12.51,86.6,31.62L1188,581.42l-31-7.87,10.87-27.06h26.75l15.81-56.27L1094.9,451.31,1086.39,472s-6.51-32.83-90.2-41.34l-12,5.29H935.6l-55.32-21.1-114.92-9.56H702.13v30.66l-60.8-30.66H544.14l-43.87-8.68-23.84,39.34-44.25-30.66-41.36,30.66s-26.74-23.89-102.13,0l-20.42,43.35Z" transform="translate(-75.95 -31.95)"/><path class="cls-2" d="M76,254.69H242.33l14.85-8.13,69.53,8.13,13.11-4.06,53.5,33.24V256.65l119.17,1.69-9.73,43.77,52.38-63.56L609.77,296l18.32-49.48,57.07,34v-21l98.5-3.64v16.44s42.61-39,122.23-7.06h79.62V328.4l85-89.85,71.59,84.24,11.19-57.5h113.09l4.86,123.92L1326,404.08l-10,104.75-168.72-6.08-5.11-49.85-48.5,27.36L1077.14,442h-32l-18.24,38.31L965.61,452.9H891.28l-5.48-39s-72.2,31.47-99.71,0l-26.75,20.73L701,398.18l-15.81,29.18-57.07-13.43-49.3,20.73L564,409.38H536.81l-9.73,25.28-39.65-20.73-10.5,39-75.11-43.52L395.75,442l-69-7.29L318,480.26l-92.45-12.77L214.6,440.74l-23.13,2.43,6.08,65.66L76,518.56Z" transform="translate(-75.95 -31.95)"/><path class="cls-2" d="M1043.06,197.44l20.84,46.92s-29.29,31.85-78.39,33.5c-17.52.59-37.56-2.66-59.69-12.58q-8-3.58-16.37-8.37l-27.14-20.59s-4.38,8.86-15.27,18-28.76,18.91-55.39,19.9c-52.88,2-122,0-122,0l-1.26-14.83-.22-2.52s-.47,1-1.44,2.58c-.42.7-.94,1.53-1.55,2.46a82.22,82.22,0,0,1-10.22,12.51,79.28,79.28,0,0,1-20.19,14.8A75.16,75.16,0,0,1,641,294.67a85.21,85.21,0,0,1-31.1,2.73c-16.95-1.48-29.84-4.53-39.57-8.08a75.78,75.78,0,0,1-18.85-9.63c-7.06-5.1-9.24-9.26-9.24-9.26l-10.13,15.43H450.06l-1-8.47-2.36-20-1.65-14-11.07,4-1.51,9.82-2.66,17.28-36.49-1.39-18.49-.71-38.29-1.46.34-19.39,3.78-218.42,87.68,9,1.47.15.1,1.06L435,94.58l10.07,2,11.46-33.7,4.61-13.55,81.12-1,4.33,21.11S593,12.16,668.27,45.33l19.88-12.22s169.13-13.6,173.1,52.08c0,0,25.7-39.86,72.64-47.9s91.17-1,141.43,55.28l-41.22,55.17s-26.72-18.17-40.5-8-16.37,31.37,0,40.36,39.5-5.08,39.5-5.08Z" transform="translate(-75.95 -31.95)"/><path class="cls-3" d="M226,478.7Q208.13,539.83,194.75,601q17.34,3.76,34.41,7.94,1.67-9.91,3.44-19.84,18.28-6.51,36.72-12.57,5.87,7.49,11.65,15,17-11.71,34.47-23Q272.75,522.44,226,478.7Zm11.83,82.58q1.89-9.67,3.88-19.36,5.63,7,11.2,14Q245.39,558.53,237.87,561.28Z" transform="translate(-75.95 -31.95)"/><path class="cls-3" d="M415.6,498.77a45.73,45.73,0,0,0-2.1-8.58,68.7,68.7,0,0,0-3.54-8.61A56.59,56.59,0,0,0,404,472c-12.94-17-32.91-23.14-59.27-17.82a184.46,184.46,0,0,0-22.95,6,149.9,149.9,0,0,0-25.43,11.07c.59,2.1,1.19,4.19,1.78,6.29q13.3,47,26.35,94.07a150.49,150.49,0,0,0,16.28-1.74,170,170,0,0,0,34.68-8.58c14.24-5.37,24.87-12.36,31.92-21.22C416.13,529,419,515.24,415.6,498.77Zm-41.39,21.6a21.51,21.51,0,0,1-9.5,6.78,37.54,37.54,0,0,1-14.41,2.61q-3.42-17.88-6.83-35.77a42.09,42.09,0,0,1,14-4.39q6.66-1,11.33,1.44a15.15,15.15,0,0,1,6.11,6,21.07,21.07,0,0,1,2.87,9.62Q378.4,514.92,374.21,520.37Z" transform="translate(-75.95 -31.95)"/><path class="cls-3" d="M498.21,431.71q-9.84,22.37-19,44.84-20.31-18-41.47-35.57-16.67,13.5-32.8,27.35,44.08,40.86,84.11,84,26.31-57.23,57.31-113.5Q522.42,434.92,498.21,431.71Z" transform="translate(-75.95 -31.95)"/><path class="cls-3" d="M608.19,507.14q-9,.19-18,.5.18-6.42.35-12.83,11.76-.21,23.49-.26.71-14.46,1.44-28.91-12.35.87-24.67,1.91l.21-13.66q20.64-.25,41.26,0,0-15.6.08-31.2-14,.48-28,1.19-15.4.78-30.79,1.85-11.7.81-23.39,1.79,1.74,50.06,3.71,100.08c.12,3.22.25,6.45.38,9.67q39.68-1.06,79.24-.07.81-15.22,1.67-30.45Q621.69,506.83,608.19,507.14Z" transform="translate(-75.95 -31.95)"/><path class="cls-3" d="M747.82,427.45q-16.91-.63-33.81-.92-.32,23.57-.64,47.11-32.48-23.25-66.83-45.15-2.6,34.71-4.92,69.42-1.12,16.68-2.19,33.36,21.09,1.35,42.07,3.27.93-17.41,1.91-34.83,33.42,20.07,65.13,41.52,3.19-29.81,6.53-59.61,2.67-23.94,5.43-47.88l.66-5.73Q754.49,427.71,747.82,427.45Z" transform="translate(-75.95 -31.95)"/><path class="cls-3" d="M769.35,426.89l-4.19-.29-.21,3.7q-.76,13.59-1.53,27.18,17,1.31,33.85,3-1.1,10-2.19,20.05-3.29,30-6.48,60,19,1.46,37.92,3.36,3.39-31.22,6.8-62.43.9-8.36,1.82-16.71,13.64,1.68,27.25,3.59,1.88-15.92,3.77-31.81Q817.89,430.26,769.35,426.89Z" transform="translate(-75.95 -31.95)"/><path class="cls-3" d="M980.27,467.43q-.28-4.17-.76-8.33c-.39-3.5-.88-7-1.47-10.49q-20.81,1-41.44,2.59c.13.55.26,1.12.39,1.69q1.23,5.67,2.08,12.54a149.75,149.75,0,0,1,1.23,17.34,101,101,0,0,1-.44,10.37c-.85,8.79-2.93,15.25-6.18,19.41a19.08,19.08,0,0,1-3.29,3.49,19.52,19.52,0,0,1-17.61,2.46,14.36,14.36,0,0,1-4.53-2.81,15.39,15.39,0,0,1-4-6c-2.14-5.51-2.13-12.81.11-21.89q.57-2.3,1.32-4.74a108.75,108.75,0,0,1,7.47-17.95q1.93-3.87,4.67-8.67l2.06-3.54.37-.64c.81-1.42,1.63-2.83,2.45-4.25q-16.5-3.66-33.09-7c-3-.59-5.9-1.18-8.85-1.75-8,16.21-13.16,31-15.67,44.27-3.61,19.14-1.73,35.27,5.14,48.31a50,50,0,0,0,25.51,23.41,63.25,63.25,0,0,0,11.88,3.58c1.48.28,2.95.48,4.4.63l1.6.12a9,9,0,0,0,1.12.11c11.52.57,21.74-1.38,30.77-6a54.46,54.46,0,0,0,17.9-14.6c7.86-9.75,13.14-22.56,15.64-38.5.47-2.95.83-6,1.1-9.17A166.87,166.87,0,0,0,980.27,467.43Zm-49.65,95.1-.27,0h.46Z" transform="translate(-75.95 -31.95)"/><path class="cls-3" d="M1069.17,480.57c-6.38-7.42-16.09-13.42-29.08-17.82q-2.11-.72-4.26-1.35a134.71,134.71,0,0,0-41.49-5.77c-.74,3-1.47,6.07-2.2,9.11q-4.46,18.4-8.86,36.81-7.17,29.87-14.23,59.75,18.3,4.13,36.5,8.7l7.86-35.41q10,25.14,19.08,50.37,17.84-7.43,36-14.42-8.07-15.13-16.55-30.17a29.44,29.44,0,0,0,13.34-5.59A30.15,30.15,0,0,0,1073,526l.35-.62a30.28,30.28,0,0,0,3.85-11.1C1079.82,501.1,1077.22,489.84,1069.17,480.57Zm-50.58,30,.15-.72,5.28-25.08a25,25,0,0,1,8.48,3.84,15.56,15.56,0,0,1,5,5.45,11.53,11.53,0,0,1,.67,8.32q-2.24,8.32-11.13,9.09c-.6.05-1.19.08-1.77.08A21,21,0,0,1,1018.59,510.61Z" transform="translate(-75.95 -31.95)"/><path class="cls-3" d="M1146.15,492.13q-22.44-6.53-45-12.37-7.74,24.76-15.42,49.54-8.58,27.68-17.08,55.37,38.08,12.21,75.54,26.41,5.82-14.1,11.7-28.18-21.54-7.44-43.24-14.24l4.59-12q11.27,3.72,22.49,7.61,2.77-6.82,5.57-13.65,2.68-6.58,5.39-13.15-12.08-3.32-24.17-6.44l4.74-12.82q19.77,6.66,39.36,13.83,5-14.07,10-28.11l.46-1.3Q1163.63,497.19,1146.15,492.13Z" transform="translate(-75.95 -31.95)"/><path class="cls-4" d="M242.33,279,93,282.14l9.31,210.09,74.7-4.71-2.23-67.76,43.8,1.74,1.12-52.25H173.2l-.86-26.43,68.37,1.49Z" transform="translate(-75.95 -31.95)"/><path class="cls-4" d="M256.84,280.55l-11,168.69,35.55,2.1,26.36,1.55.64-22.43,4.23-147.57Z" transform="translate(-75.95 -31.95)"/><path class="cls-4" d="M449.06,277.39l-29.28.27.1,9.37.59,52.85L338,280.67,326.71,416.24,381.17,421l2.16-46,85.15,52.4,6.73-119.86,1.22-21.64.49-8.72Z" transform="translate(-75.95 -31.95)"/><path class="cls-4" d="M601.67,346.47l-31.34-57.15-12-21.82-6.88,12.19-25.25,44.72-38.8,68.73,10.92,6.61,23.44,14.18,5.8-11.94,4.37-9,43.55-2.43,6,14.71,2.31,5.62,15.32-5.62,28.92-10.61ZM546.3,363.63l9.94-20.41L564,362.34Z" transform="translate(-75.95 -31.95)"/><path class="cls-4" d="M714.2,277.59l.6,54.78-60-43.11-12.55-9L641,294.67l-5.06,60.77-3.68,44.15,48,4.17L682,366.53l.15-3.28,8.53,5.25,59.75,36.77,6.68,4.11.23-4.11,1.27-22.58,5.94-105.55Z" transform="translate(-75.95 -31.95)"/><path class="cls-4" d="M845.83,367a31.07,31.07,0,0,1-19.73-11.83q-7.27-9.48-5.23-20.64t12.29-17.37a30.9,30.9,0,0,1,22.61-4,32.39,32.39,0,0,1,16.16,8L891.27,296a69.24,69.24,0,0,0-40.21-22.3q-28.21-5.16-51.66,10.09A66.22,66.22,0,0,0,781,301.57a63.18,63.18,0,0,0-9.26,50.3,65.07,65.07,0,0,0,10.85,23.22,68.93,68.93,0,0,0,14.54,14.7c1.45,1.1,3,2.13,4.5,3.12a73,73,0,0,0,25.57,9.94,71.27,71.27,0,0,0,27.77-.3,69.4,69.4,0,0,0,8.07-2.17,68.7,68.7,0,0,0,16.28-7.92l-12.82-28.38A31.3,31.3,0,0,1,845.83,367Z" transform="translate(-75.95 -31.95)"/><path class="cls-4" d="M915.69,280.55l-8.18,125.86-1.19,18.35-.43,6.63L927,432.63l34.3,2,.63-22.1,3.72-129.91Z" transform="translate(-75.95 -31.95)"/><path class="cls-4" d="M1155,422.37,1070,267.5,986.82,414.89l-6.6,11.68L990.85,433l32.88,19.89,7.92-16.31,4.95-10.2,55.14-3.07,10.56,25.74,56-20.55Zm-87.61-59,9.8,24.2-22.38,1.64Z" transform="translate(-75.95 -31.95)"/><path class="cls-4" d="M1283.91,416.33l-44-1.35,5.48-133.11-73.09-.94-3.06,141.34L1168.08,476l-.09,4.29,12.47-.12L1303.32,479l1-62Z" transform="translate(-75.95 -31.95)"/><path class="cls-5" d="M464.45,66.52l-.05,1.83-1.66,65.54-38.8,2.73-1.14-77H360.33l-3.87,189,69.3.91-1-63.72,36.64-1.59-1.82,72.37,39.83,1.59,13,.53,9.6.38,9.22-149.88,2.39-38.78Z" transform="translate(-75.95 -31.95)"/><path class="cls-5" d="M668.81,170.53c-.4-.36-.87-.75-1.42-1.18q-2-1.6-5.3-3.94-1.59-1.14-12.51-8.71A201.26,201.26,0,0,1,631,142.42q-23.1-20.25-12.52-32.32,8.65-10,21-3.52a47.07,47.07,0,0,1,19.4,19l29.24-45.51q-30-17-49.27-20.37-29.48-5.36-55.75,4.21-20.37,7.4-31.64,24.46a55.46,55.46,0,0,0-9.11,26.78,60.47,60.47,0,0,0,.47,12.48q3.4,24.35,28.44,42.67,4.1,3.07,17.52,11.83t18,14a24.05,24.05,0,0,1,5.92,13.08q1,10.81-8.88,10.7-14.33.79-24.12-18.21l-33.68,41c1.24.85,2.47,1.67,3.67,2.48a218.31,218.31,0,0,0,26.45,15.5,79.08,79.08,0,0,0,8.45,3.52q18,6.15,30.95,6.26c1.26,0,2.5,0,3.72-.05q20.29-.56,34.73-8.39c.54-.28,1.08-.58,1.61-.89q14.45-8.42,24.12-25.38,9.45-16.49,6.71-34Q683.71,183.51,668.81,170.53Z" transform="translate(-75.95 -31.95)"/><path class="cls-5" d="M860.2,182.93q-5-30.39-35.39-40.85a62,62,0,0,0,8.3-8.54Q864,94.29,828.45,76.31q-13.65-6.94-36.53-10.13a285.7,285.7,0,0,0-40.16-2.61l-62.13,1.82,5.8,113.17L699.19,252h45.28l.12.11,14.9.11H774.4q17-.1,29.81-1.25,28.21-2.5,43.92-20.25a50.33,50.33,0,0,0,10.78-19Q862.83,198.82,860.2,182.93Zm-85.12-73.39q6,4.42,5.58,11.26-.57,6.6-6.71,11.49-6.72,5.24-16.73,5.58l-2.05-33.34Q768.25,104.41,775.08,109.54Zm18,97.28a22.43,22.43,0,0,1-6.71,5.92l-1.6.91A23.23,23.23,0,0,1,775,216h-2.62l-4.44-.23q-6.25-.34-6.25-.91L760.48,196l-1-15.93a96.55,96.55,0,0,1,10.13,1.14,52.73,52.73,0,0,1,11,2.73q12.63,4.78,14.45,14.45a10.9,10.9,0,0,1-.25,4.59A12.46,12.46,0,0,1,793.06,206.82Z" transform="translate(-75.95 -31.95)"/><path class="cls-5" d="M1018,193.4A47.05,47.05,0,0,1,987,197.83q-18.54-3.41-29.58-17.75t-7.85-31q3.08-16.73,18.43-26t33.91-6A48.46,48.46,0,0,1,1026.1,129l29-37.77Q1031,64.36,994.8,57.76,952.49,50,917.32,72.9a99.38,99.38,0,0,0-27.54,26.74,94.67,94.67,0,0,0-13.88,75.44,97.56,97.56,0,0,0,16.27,34.82c1,1.38,2.05,2.74,3.12,4.06a104.71,104.71,0,0,0,25.44,22.68,109.72,109.72,0,0,0,38.35,14.9,106.83,106.83,0,0,0,41.64-.45A103.91,103.91,0,0,0,1037.25,236l-14.91-33Z" transform="translate(-75.95 -31.95)"/><path class="cls-6" d="M449.06,277.39l27.86-.25-.49,8.72-1.22,21.64q-28.53-10-55.33-20.47l-.1-9.37Z" transform="translate(-75.95 -31.95)"/><path class="cls-6" d="M570.33,289.32l31.34,57.15q-38.8-10.5-75.44-22.06l25.25-44.72,6.88-12.19Z" transform="translate(-75.95 -31.95)"/><path class="cls-6" d="M714.2,277.59l50.3-.45-5.94,105.55Q724,376,690.63,368.5l-8.68-2q-23.31-5.36-46-11.09L641,294.67l1.2-14.42,12.55,9,60,43.11Z" transform="translate(-75.95 -31.95)"/><path class="cls-6" d="M820.87,334.57q-2.05,11.16,5.23,20.64a32.84,32.84,0,0,0,40.44,8.87l12.82,28.38a68.7,68.7,0,0,1-16.28,7.92q-29.49-4.29-59.47-9.46c-2.15-.37-4.3-.74-6.44-1.13a68.93,68.93,0,0,1-14.54-14.7,65.07,65.07,0,0,1-10.85-23.22,63.18,63.18,0,0,1,9.26-50.3,66.22,66.22,0,0,1,18.36-17.83q23.43-15.25,51.66-10.09A69.24,69.24,0,0,1,891.27,296l-19.34,25.19a32.39,32.39,0,0,0-16.16-8,30.9,30.9,0,0,0-22.61,4Q822.92,323.43,820.87,334.57Z" transform="translate(-75.95 -31.95)"/><path class="cls-6" d="M915.69,280.55l49.91,2.09-3.72,129.91q-26.89-2.7-54.37-6.14Z" transform="translate(-75.95 -31.95)"/><path class="cls-6" d="M1070,267.5,1155,422.37c-53,.14-109.36-2.3-168.13-7.48Z" transform="translate(-75.95 -31.95)"/><path class="cls-6" d="M1283.91,416.33c-35.85,3.47-74.22,5.48-114.67,5.94l3.06-141.34,73.09.94L1239.91,415Z" transform="translate(-75.95 -31.95)"/><g class="cls-7"><path class="cls-8" d="M177.25,136.17s-26.67,14.28-49.94,53.06c0,0,62.55,26.19,97.95,111,0,0,61.09-61.09,173.09-48.73Z" transform="translate(-75.95 -31.95)"/><path class="cls-9" d="M171.43,128.63s-36.36,9.21-49.45,19.88c0,0,73.21,33.94,102.79,108.12,0,0,61.58-49.45,171.16,4.37L303.32,122.32Z" transform="translate(-75.95 -31.95)"/><path class="cls-10" d="M354.23,127.9s-93.82-67.64-224.74-5.09c0,0,49.7,8.73,98.19,107.64,0,0,49.46-39.28,186.19,21.09Z" transform="translate(-75.95 -31.95)"/><path class="cls-11" d="M243.68,118.44q-7.53.12-15,.59c-2.48.17-4.95.36-7.41.59s-4.92.55-7.36.87-4.86.78-7.26,1.26-4.78,1-7.11,1.73a46.76,46.76,0,0,0-13.08,5.83l0-2.85a40.28,40.28,0,0,1,3.43,2.91c1.06,1,2.11,2,3.07,3.11a70.1,70.1,0,0,1,10,14.13,70.57,70.57,0,0,1,3.63,7.79l-2.37-3.56c-.83-1.16-1.59-2.35-2.45-3.48l-1.25-1.71L199.21,144c-.84-1.13-1.78-2.19-2.67-3.27-1.85-2.11-3.73-4.19-5.75-6.1-1-1-2-1.91-3.08-2.81a38.31,38.31,0,0,0-3.19-2.48l-2-1.36,2-1.48a36.25,36.25,0,0,1,6.8-3.9,47.12,47.12,0,0,1,7.26-2.64,81.68,81.68,0,0,1,15-2.71c2.52-.24,5.05-.38,7.57-.43s5,0,7.56.06A106,106,0,0,1,243.68,118.44Z" transform="translate(-75.95 -31.95)"/><path class="cls-11" d="M219.92,177.11c1.69,1.67,3.29,3.42,4.84,5.23s3,3.68,4.41,5.62a55.06,55.06,0,0,1,3.88,6.08,19.34,19.34,0,0,1,2.59,7.21l-2.28-1.44a66.69,66.69,0,0,1,14.2-3.72,78.66,78.66,0,0,1,14.54-.91,74.1,74.1,0,0,1,14.41,1.74,69.57,69.57,0,0,1,13.72,4.44c-1.18-.22-2.37-.42-3.53-.66s-2.33-.49-3.51-.64c-2.36-.33-4.68-.74-7-.93-1.17-.11-2.34-.26-3.51-.33l-3.52-.2c-1.17-.11-2.35,0-3.52-.07s-2.34-.06-3.51,0a100.28,100.28,0,0,0-14,1.23,79.9,79.9,0,0,0-13.52,3.14l-1.94.64-.35-2.08c-.08-.48-.09-1-.2-1.46s-.26-1-.43-1.55l-.55-1.57-.67-1.56c-.94-2.08-2-4.13-3.16-6.17s-2.36-4-3.6-6S221.21,179.11,219.92,177.11Z" transform="translate(-75.95 -31.95)"/><ellipse class="cls-8" cx="205.19" cy="121.16" rx="22.18" ry="14.3"/></g><g class="cls-12"><path class="cls-13" d="M1165.73,143.42s26.66,14.28,49.94,53.07c0,0-62.55,26.18-98,111,0,0-61.09-61.09-173.1-48.73Z" transform="translate(-75.95 -31.95)"/><path class="cls-14" d="M1171.54,135.88s36.37,9.21,49.46,19.88c0,0-73.21,33.94-102.79,108.13,0,0-61.58-49.46-171.16,4.36l92.61-138.67Z" transform="translate(-75.95 -31.95)"/><path class="cls-15" d="M988.75,135.15s93.82-67.64,224.74-5.09c0,0-49.7,8.73-98.19,107.64,0,0-49.46-39.27-186.19,21.09Z" transform="translate(-75.95 -31.95)"/><path class="cls-16" d="M1099.3,125.7a103.11,103.11,0,0,1,15-1.57q3.78-.16,7.56-.07c2.52,0,5.05.19,7.57.44a80.58,80.58,0,0,1,15,2.7,47.9,47.9,0,0,1,7.27,2.64,36.56,36.56,0,0,1,6.8,3.9l2,1.48-2,1.37a36.29,36.29,0,0,0-3.19,2.48c-1.06.89-2.07,1.84-3.08,2.8-2,1.91-3.9,4-5.75,6.1-.89,1.08-1.83,2.14-2.67,3.27l-1.31,1.67-1.25,1.7c-.86,1.13-1.62,2.32-2.45,3.48l-2.37,3.56a72.32,72.32,0,0,1,3.63-7.79,75.27,75.27,0,0,1,4.54-7.35,71.74,71.74,0,0,1,5.45-6.77c1-1.09,2-2.11,3.07-3.12a40.21,40.21,0,0,1,3.43-2.9l0,2.84a46.27,46.27,0,0,0-13.07-5.82,70.88,70.88,0,0,0-7.11-1.74c-2.4-.47-4.82-.93-7.26-1.25s-4.89-.64-7.36-.88-4.93-.42-7.41-.59Q1106.82,125.83,1099.3,125.7Z" transform="translate(-75.95 -31.95)"/><path class="cls-16" d="M1123.06,184.37c-1.29,2-2.54,4-3.79,6s-2.43,4-3.6,6-2.22,4.09-3.17,6.17l-.66,1.57-.55,1.57c-.17.52-.28,1-.43,1.54s-.12,1-.2,1.46l-.35,2.08-1.94-.64a80.12,80.12,0,0,0-13.52-3.14,100.28,100.28,0,0,0-14-1.23c-1.17-.06-2.34,0-3.51,0s-2.35,0-3.52.07l-3.52.21c-1.18.06-2.34.22-3.52.32-2.35.19-4.68.6-7,.94-1.18.15-2.34.41-3.51.63s-2.35.44-3.53.66a70.24,70.24,0,0,1,13.72-4.44,74.1,74.1,0,0,1,14.41-1.74,79.53,79.53,0,0,1,14.54.91,66.72,66.72,0,0,1,14.2,3.73l-2.28,1.44a19.21,19.21,0,0,1,2.59-7.21,55.19,55.19,0,0,1,3.88-6.09c1.4-1.94,2.88-3.8,4.41-5.62S1121.37,186,1123.06,184.37Z" transform="translate(-75.95 -31.95)"/><ellipse class="cls-13" cx="985.9" cy="128.42" rx="22.18" ry="14.3"/></g></g></g></svg>