<svg xmlns="http://www.w3.org/2000/svg" viewBox="0 0 444.53 651.54"><defs><style>.cls-1{fill:#ffc697;}.cls-2{fill:#d30056;}.cls-3{fill:#1a1a1a;}.cls-4{fill:#ff0062;}.cls-5{fill:#310b6d;}.cls-6{fill:#d3976a;}.cls-7{fill:#191212;}.cls-8{fill:#d205d8;}.cls-9{fill:#f0f;}.cls-10{fill:#fbed21;}.cls-11{fill:#302424;}.cls-12{fill:#fff;}</style></defs><title>Girl Still</title><g id="Layer_2" data-name="Layer 2"><g id="Layer_13" data-name="Layer 13"><path class="cls-1" d="M64.79,251.56c.31,7.81,26.71,47.09,40.7,54.37s37.14,7.72,37.14,7.72,15,28.78-.33,37.22c0,0-32.19-2.06-45.79-14.44S39,267.66,37.1,260.27"/><path class="cls-2" d="M220.48,351.82a31.7,31.7,0,0,0,18.8-16.21c3.38-6.91,6.54-15.2,5.54-20.49-2-10.49-67.28-13.59-79.74-16.82s-20.81-1.73-22,9.28-4.19,62.41,6.2,62.78C158.4,370.69,192.13,360.94,220.48,351.82Z"/><path class="cls-1" d="M58.64,223.58s-31.54,8.91-35.37,19.51,16.06,27.4,24.3,25.55,25-10.2,17.56-33.19C61.67,224.81,58.64,223.58,58.64,223.58Z"/><path class="cls-1" d="M58.64,223.58s-6.7-39.76-15.47-37.3-.82,41.45,4.57,47.83S58.64,223.58,58.64,223.58Z"/><path class="cls-1" d="M45.38,230.53s-21.24-40.25-29-35.48S30.77,239,38.45,244.34,45.38,230.53,45.38,230.53Z"/><path class="cls-1" d="M36.05,239.11S3.64,220,.25,226.66s29.19,24.58,36.93,25.07S36.05,239.11,36.05,239.11Z"/><path class="cls-1" d="M67,249.88s1.37-14.34,15.86-14.32-2.95-23.7-13-12.53-8.11,18.11-8.11,18.11Z"/><path class="cls-1" d="M183.29,523.44C164.57,583,173.5,626.66,173.5,626.66L222,642.09c-8.22-43.14-3.39-79.9,5.27-108.38,12.79-42,33.95-66.05,33.95-66.05L217.94,451.2A287.13,287.13,0,0,0,183.29,523.44Z"/><path class="cls-2" d="M140.25,651.54h80.61a6.65,6.65,0,0,0,6.36-8.64c-10-31.28-29.12-39.93-61.71-33.87-24.25,4.51-30.32,22.8-31.73,33.87-.06.46-.12.91-.16,1.36A6.65,6.65,0,0,0,140.25,651.54Z"/><path class="cls-3" d="M140.25,651.54h80.61a6.65,6.65,0,0,0,6.36-8.64H133.78c-.06.46-.12.91-.16,1.36A6.65,6.65,0,0,0,140.25,651.54Z"/><path class="cls-1" d="M257.09,536.64c3.7,62.32,27.58,100,27.58,100l50.8-2.82c-23-37.4-31.61-73.47-33.64-103.17-3-43.82,8.23-73.8,8.23-73.8H263.78A287.44,287.44,0,0,0,257.09,536.64Z"/><path class="cls-2" d="M254.57,651.54h80.61a6.66,6.66,0,0,0,6.37-8.64c-10-31.28-29.13-39.92-61.71-33.86-24.26,4.51-30.33,22.79-31.74,33.86-.06.47-.11.92-.16,1.36A6.64,6.64,0,0,0,254.57,651.54Z"/><path class="cls-3" d="M254.57,651.54h80.61a6.66,6.66,0,0,0,6.37-8.64H248.1c-.06.47-.11.92-.16,1.36A6.64,6.64,0,0,0,254.57,651.54Z"/><path class="cls-4" d="M200,441.86c0,.4.07.8.1,1.19,4.36,48.93,53.3,63,95.3,42.83,21.88-10.51,28.83-33.21,26.47-60.81-2.21-25.81-12.55-55.88-26.47-84.25-28.79-58.7-68.3-44-68.3-44C196.46,305.26,192.1,334.05,200,441.86Z"/><path class="cls-5" d="M200.09,443.05c4.36,48.93,53.3,63,95.3,42.83,21.88-10.51,28.83-33.21,26.47-60.81C299,418.38,248.2,409.64,200.09,443.05Z"/><path class="cls-6" d="M236.19,277.92S245,304.27,224.27,304s2.23.56-13.91-24.84S236.19,277.92,236.19,277.92Z"/><path class="cls-5" d="M321.86,425.07s9.44,43.88,32.58,63.07c0,0-77.23,73.38-186.78,19.19,0,0,35.15-20.84,32.43-64.28Z"/><path class="cls-1" d="M254.76,478.36s-9.11-.56-15,4.52-1.7,11.43,2.11,11.43S254.13,490.36,254.76,478.36Z"/><path class="cls-1" d="M307.45,374.08s11,29.21,5.51,46.15S283.39,493,277.64,497.7s-.67,8.89-5.75,15.24S255.81,529,248.61,521.4s-20.75-22-19.05-25.82S244,485.42,250.73,482s30.9-42.33,31.75-57.57-8-35.84-8-35.84S293.9,363.91,307.45,374.08Z"/><path class="cls-2" d="M277.13,304.73a30.66,30.66,0,0,0-21.78-10.12c-7.45-.23-16,.28-20.29,3.27-8.47,5.93,14.82,64.77,16.94,77.05s6.77,19.05,16.93,15.66,56.73-21.16,52.92-30.48C318.52,352,296.48,326.1,277.13,304.73Z"/><path class="cls-1" d="M288.44,249.94s-26.67,44.72-85.52,45.22-73.23-47.33-72.81-59.61,13.12-27.94,4.66-49.53-12.7-31.33-8.89-56.73,8.89-56.73,41.06-63.92,105.84,11.43,124.46,36S323.15,174.59,313,204.64,288.44,249.94,288.44,249.94Z"/><path class="cls-7" d="M229.51,40.39s-22.44-16.93-28.79-29.63S179.13-5.75,166,12.45s-33.45,39.79-45.3,45.3S102.08,138.6,130,174.59c0,0-14.81-47,21.59-79.17S229.51,40.39,229.51,40.39Z"/><path class="cls-8" d="M190.17,31.1s-36.4-11.27-33.1,6.35,22.66,27.68,33.93,16S202,33.82,190.17,31.1Z"/><path class="cls-9" d="M187.53,50.68s-13.29,21.63,9.31,25.1S217.1,59,204.42,49.27,187.53,50.68,187.53,50.68Z"/><path class="cls-8" d="M204.42,49.27S223,80.08,240,53.31,212,28.79,208.3,34.69,204.42,49.27,204.42,49.27Z"/><path class="cls-9" d="M210.45,39.05s31.34-11.34,11.63-28.19-41.06,4-27.69,31.35S210.45,39.05,210.45,39.05Z"/><ellipse class="cls-10" cx="202" cy="45.32" rx="17.17" ry="11.61" transform="translate(30.9 161.87) rotate(-46.91)"/><path class="cls-11" d="M299.13,52.38S243.81,6.1,168.17,41.1s-61,83.53-52.49,85.23,26.53,0,35.56-24.27c0,0-4.52,18.62,9.6,19.19s29.35,5.64,51.93-11.29l-2.26,9.59s56.44-4,45.15,21.45S235.34,217,263,248.68c0,0-20.94-63.2.92-75.05,14.89-8.07,38.22,40.85,9.44,93.9,0,0,99.71-59.92,71.49-143.46S299.13,52.38,299.13,52.38Z"/><path class="cls-11" d="M317.35,63.8s32.29-32.3,61.93-17.06,21.17,66.89,47,87.21,26.67,95.25-13.12,149.44c0,0,19.67-69.38-12.67-107.47a31.24,31.24,0,0,0-20.59-10.72c-9.06-1-24.64-6.33-42.1-28.49C310.27,101.77,317.35,63.8,317.35,63.8Z"/><path class="cls-1" d="M255.27,188.09s6.08-22,18.35-21.17S298.18,179.2,291,205s-25.4,21.17-25.4,21.17"/><path d="M255.27,188.09a47.87,47.87,0,0,1,2.23-6.87,45.2,45.2,0,0,1,3.23-6.5,23.87,23.87,0,0,1,4.73-5.66,12,12,0,0,1,6.94-3,22.4,22.4,0,0,1,3.79.27,22.78,22.78,0,0,1,3.62,1,19.62,19.62,0,0,1,6.49,3.78l.72.61c.24.21.44.46.66.69l1.26,1.41,1.08,1.55c.18.27.37.52.53.79l.44.83.86,1.68.66,1.76a26.74,26.74,0,0,1,1,3.6,39.48,39.48,0,0,1-.12,14.7A52.36,52.36,0,0,1,289,212.67c-2.15,4.37-5.19,8.51-9.42,11.11a18.74,18.74,0,0,1-14,2.41A18.88,18.88,0,0,0,279,222.9a11.93,11.93,0,0,0,1.38-1.08,14.35,14.35,0,0,0,1.3-1.16l1.19-1.29c.19-.22.4-.42.58-.65L284,218a23.71,23.71,0,0,0,1.92-2.92,26.35,26.35,0,0,0,1.6-3.13,54.37,54.37,0,0,0,3.86-13.56,38.15,38.15,0,0,0,0-13.93,23.38,23.38,0,0,0-.91-3.33l-.59-1.62-.77-1.52-.39-.77c-.14-.25-.32-.47-.48-.71l-1-1.41-1.13-1.27c-.2-.21-.37-.44-.58-.63l-.64-.56a17.65,17.65,0,0,0-5.8-3.55,15.44,15.44,0,0,0-1.62-.55l-1.67-.42a21,21,0,0,0-3.37-.37,10.79,10.79,0,0,0-6.15,2.41,23.21,23.21,0,0,0-4.73,5.14A53,53,0,0,0,255.27,188.09Z"/><ellipse class="cls-6" cx="270.95" cy="196.71" rx="10.8" ry="14.82"/><ellipse class="cls-12" cx="152.78" cy="185.89" rx="19.59" ry="14.78" transform="matrix(0.07, -1, 1, 0.07, -43.58, 324.96)"/><ellipse cx="157.78" cy="185.98" rx="11.78" ry="8.89" transform="translate(-39.03 330.03) rotate(-85.89)"/><ellipse class="cls-12" cx="161.6" cy="183.96" rx="3.6" ry="2.72" transform="translate(-33.47 331.96) rotate(-85.89)"/><path class="cls-7" d="M150.17,166.62s-.86,3-5.92,4.72a7,7,0,0,1-7.95-2.64c4.46,2,5.44,0,5.44,0-3,.07-5.44-6.65-5.44-6.65,3.74,5.41,13.87,4.57,13.87,4.57s10.24-3.2,15.54,9c0,0-6.39-10-19.67-6.8Z"/><path class="cls-7" d="M165.54,175.53s-6.18-10.35-22.17-4.11h0L147,167.5l6.77-.28,5.44,2.26,3.52,2.4,2.82,3.65"/><ellipse class="cls-12" cx="199.65" cy="185.89" rx="19.59" ry="14.78" transform="translate(-0.08 371.7) rotate(-85.89)"/><ellipse cx="204.64" cy="185.98" rx="11.78" ry="8.89" transform="matrix(0.07, -1, 1, 0.07, 4.47, 376.77)"/><ellipse class="cls-12" cx="208.46" cy="183.96" rx="3.6" ry="2.72" transform="translate(10.04 378.7) rotate(-85.89)"/><path class="cls-7" d="M197,166.62s-.86,3-5.92,4.72a7,7,0,0,1-8-2.64c4.46,2,5.45,0,5.45,0-3,.07-5.45-6.65-5.45-6.65,3.75,5.41,13.87,4.57,13.87,4.57s10.25-3.2,15.54,9c0,0-6.39-10-19.67-6.8Z"/><path class="cls-7" d="M212.41,175.53s-6.19-10.35-22.18-4.11h0l3.62-3.92,6.78-.28,5.43,2.26,3.53,2.4,2.82,3.65"/><path class="cls-11" d="M188.53,139.45v14.82s17.59-17.53,48.69,6.35C237.22,160.62,229.59,134,188.53,139.45Z"/><path class="cls-11" d="M166.09,140.72v12.7s-17.6-21-40.76,3.48C125.33,156.9,134.77,125.9,166.09,140.72Z"/><path class="cls-1" d="M167.55,195.75a47.92,47.92,0,0,1-14,17.94c-9.73,7.47,13.13,20.82,30.48,15"/><path d="M167.55,195.75a35.27,35.27,0,0,1-3.34,7.61,41.62,41.62,0,0,1-4.87,6.83l-1.42,1.56-1.53,1.47c-.53.48-1.07.93-1.61,1.39-.3.25-.47.43-.68.62a3.21,3.21,0,0,0-.53.59,2.84,2.84,0,0,0-.65,2.54,6.21,6.21,0,0,0,1.62,2.77,20.32,20.32,0,0,0,6.16,4.33,37.69,37.69,0,0,0,7.39,2.69,36.84,36.84,0,0,0,16,.53,28.29,28.29,0,0,1-16.47,1.95,33.51,33.51,0,0,1-8.19-2.38,22.44,22.44,0,0,1-7.27-4.95,9.36,9.36,0,0,1-2.32-4.32,6,6,0,0,1,.09-2.75,6.12,6.12,0,0,1,1.29-2.34,6.24,6.24,0,0,1,.89-.89c.31-.26.64-.53.88-.71l1.57-1.21,1.51-1.29,1.48-1.34a56.86,56.86,0,0,0,5.38-6A60.23,60.23,0,0,0,167.55,195.75Z"/><path d="M154.33,239.86s18.57,22.08,45.34-2.29c0,0-16.2,27.2-44.42,9C155.25,246.56,153.56,245.31,154.33,239.86Z"/><path class="cls-8" d="M340.58,66.34s23.23-30.21,5.56-33.24S312.3,44.72,319.37,59.36,333.91,76.51,340.58,66.34Z"/><path class="cls-9" d="M323.14,57.06s-15.66-20-26.76,0S305,81.88,318.59,73.38,323.14,57.06,323.14,57.06Z"/><path class="cls-8" d="M318.59,73.38s-35.34,6.69-16.15,31.94,32.7-17.68,28.47-23.23S318.59,73.38,318.59,73.38Z"/><path class="cls-9" d="M326.07,82.59s-.27,33.33,22.39,20.71S359,63.41,328.69,66.44,326.07,82.59,326.07,82.59Z"/><ellipse class="cls-10" cx="323.14" cy="72.49" rx="11.61" ry="17.17" transform="translate(1.68 152.1) rotate(-26.55)"/></g></g></svg>