<svg xmlns="http://www.w3.org/2000/svg" viewBox="0 0 412.46 350.32"><defs><style>.cls-1{fill:#20af02;}.cls-2{fill:lime;}</style></defs><title>Grass foreground</title><g id="Layer_2" data-name="Layer 2"><g id="Layer_4" data-name="Layer 4"><path class="cls-1" d="M20.1,350.32s-58.75-90.65,24.64-107.71c0,0-71.27-32.22-22.37-64.44s69.75,7.58,69.75,7.58C58.21,150.44,50.37,107.8,67.25,84.93,76.79,72,97.31,61.2,114.87,66.34s26.29,24.43,30.88,34.51c6.67,14.66,10.82,35.62,10.82,35.62h0c-13.38-63.66,14.17-118.76,55-132.67C234.41-4,265.17-.13,284,18.69c27.7,27.75,27.17,85.74-13.68,131.05,0,0,53.07-75.82,87.18-24.64S312,212.28,312,212.28,410.54,195.23,412.44,235s-92.88,51.17-92.88,51.17,49.28-1.89,55,22.75-1.9,41.37-1.9,41.37Z"/><path class="cls-2" d="M57.42,350.32c-31.42-16-39.35-49.47-27.84-66,8.11-11.66,26.85-16.3,45.71-12.11a99.26,99.26,0,0,0-9.7-27.7C49.27,213.73,23,204.94,25.79,197.12c2.5-7.07,26.58-7.29,45.49,0,22.25,8.58,34,26.29,38.38,33.85C81.73,186.1,73.94,145,90.23,128.89c6.27-6.21,17.34-9.94,26.53-7.58,17.13,4.39,25.49,29.3,31.79,48.08,2.71,8.08,7.84,25.84,7.84,25.84h0C153.48,123.12,178.74,67,217.22,55c4.3-1.34,25.47-7.33,39.8,3.79,23.86,18.51,18.54,76.5-18.16,146.09C253,170.33,278,149.23,300.61,151.63c8.42.9,21.13,5.56,24.64,15.17,4.4,12-7.56,26.53-29.71,53.38,0,0-3.85,4.67-26.43,30h0c22.49-20.77,47.18-24.74,58-15.18,7.15,6.3,8.68,18.81,5.68,28.43,0,0-4.29,13.75-58.23,40.36h0c41.93-6.08,55.31-1.55,58.23,5.13,5.32,12.15-19.74,41.36-19.74,41.37H57.42Z"/></g></g></svg>