<svg xmlns="http://www.w3.org/2000/svg" viewBox="0 0 883.98 689.01"><defs><style>.cls-1{fill:#026057;}</style></defs><title>tree1 bg</title><g id="Layer_2" data-name="Layer 2"><g id="Layer_10" data-name="Layer 10"><path class="cls-1" d="M876.1,326.14c-.82-9.17-8.18-13.41-14.32-14.92a7.71,7.71,0,0,0-.08-3.67,4.57,4.57,0,0,0-.24-.74c5.25-2.34,10.92-7.05,10.32-14.81-.42-5.47-3.46-9.21-8.37-10.53a12.77,12.77,0,0,0,1.85-7.31,11.13,11.13,0,0,0-6.77-9.35A11.63,11.63,0,0,0,848,265a12.19,12.19,0,0,0-2.7-5.21,10,10,0,0,0-.92-.92,9,9,0,0,0,3.31-9.28c3.13-3,4.51-6.09,4.1-9.13a8.94,8.94,0,0,0-3.19-5.55c2-4,4.69-11.52.93-18-3-5.18-7.23-5.54-10.23-5.15a15,15,0,0,0-.07-7,12.82,12.82,0,0,0-6.85-8.1c-7-3.62-13-2-15.95.94a15.86,15.86,0,0,0-10.55-2.18,13.84,13.84,0,0,0,.49-6.53,13.26,13.26,0,0,0-5.85-8.72,17,17,0,0,0-9.32-3.29c-6.12,0-9.74,4.69-11.39,8.54-4.87.86-8.34,4.08-9.92,9a25.63,25.63,0,0,0-4.49-2.26,17.11,17.11,0,0,0-10.78-.43,13.43,13.43,0,0,0,0-5.47,11.51,11.51,0,0,0-6.41-7.85c-6.74-3.5-13.44-2.5-17-.09a16,16,0,0,0-11.57-5.12,17.75,17.75,0,0,0-6.3,1.22,9.79,9.79,0,0,0-2.19-4.72,10.46,10.46,0,0,0-8.16-3.26,18.41,18.41,0,0,0-2.77.21,10.77,10.77,0,0,0-2.46-1.74,12.69,12.69,0,0,0,1.49-6.33c-.15-4-2.35-7.65-6.51-10.82a21.9,21.9,0,0,0-13.59-4.83,24.24,24.24,0,0,0-11.37,3,17.73,17.73,0,0,0-13.29-3.52,18.47,18.47,0,0,0-2.76-16.6,16.51,16.51,0,0,0-14.11-7.09,28.16,28.16,0,0,0-9.36,1.77,13.61,13.61,0,0,0-5.83-4.53,14.68,14.68,0,0,0,1.31-2.2,17.89,17.89,0,0,0,3.34-5.17,15.48,15.48,0,0,0-.44-12.4C622,85.48,613.15,83.89,608.3,83.89a26,26,0,0,0-2.95.18,16,16,0,0,0-8.1-4,16.13,16.13,0,0,0-1.87-15.51c-4.13-5.76-9-7-12.34-7a16.22,16.22,0,0,0-5.62,1c-1.28-3.38-3.27-4.88-5.09-5.52,1-3,1.73-6.94.53-10.55a11.24,11.24,0,0,0-6.59-6.86,17.54,17.54,0,0,0-6.8-1.46A14.73,14.73,0,0,0,548.78,39a13.14,13.14,0,0,0-11.65,1.28,17.3,17.3,0,0,0-19.76.1c-3.36-4.64-6.74-6.28-9.42-6.7.78-3.63,1.15-8.57-1-12.62-1.25-2.27-3.84-5.17-9.18-6.11-11-1.93-16.22,4.16-18.45,9.13-7.42-1.94-13.51-1.34-17.18.43a13.22,13.22,0,0,0-2-5.39,10.53,10.53,0,0,0-7.27-4.59c-9.54-1.59-14,3.46-15.76,8a22.86,22.86,0,0,0-7.22-1.3,13.66,13.66,0,0,0-10.46,4.37,11.64,11.64,0,0,0-6.17-2.67,10.21,10.21,0,0,0,.67-4.67,9.17,9.17,0,0,0-4.82-6.89c-5.31-3.2-10.94-2.22-14,.05-4.73-3.26-7.91-1.79-9.78-.84a13.23,13.23,0,0,0-8.56,0c-2.16-5.71-7-11.87-14-10.27a10.84,10.84,0,0,0-7.25,5,12,12,0,0,0-1.56,5.89c-8-.6-12.41,2.67-14.76,5.91a15.61,15.61,0,0,0-13.81.61,10.39,10.39,0,0,0-5.29,6.79,12.55,12.55,0,0,0,1,7.61,14.54,14.54,0,0,0-4,9.29,16.12,16.12,0,0,0-11.51,3.59c-3.6,3-5.42,6.34-5.38,10a12.18,12.18,0,0,0,1.91,6.3c-5.09,2.59-7.59,7.7-8.61,12.3a18,18,0,0,0-9.74.14,9.84,9.84,0,0,0-6.88,5.38,11.82,11.82,0,0,0-.62,7.1,14.43,14.43,0,0,0-5,1.21,11.81,11.81,0,0,0-11.32-7c-4,0-7,1.21-9,3.59a9.82,9.82,0,0,0-2.13,5.29,10.71,10.71,0,0,0-6.2,5.41c-2.85-1.93-7.77-2.93-13.45-1-4.3,1.42-6.93,3.78-7.86,7a10.09,10.09,0,0,0,.69,7,9.82,9.82,0,0,0-3.38,5.58,9.94,9.94,0,0,0-.11,3.43,17.64,17.64,0,0,0-11.28,1.89,9.83,9.83,0,0,0-5.33,6.77,11.23,11.23,0,0,0,.63,6A14.89,14.89,0,0,0,194,136a14.67,14.67,0,0,0-2.67,4.76,10.1,10.1,0,0,0-5.24-2.13c-3.45,0-5.75,2.43-7.17,4.79-3.48-2.45-9.61-4.16-14.1-1-5.18,3.56-5.25,8.79-4.05,12.7a9.13,9.13,0,0,0-4.21,4,7.7,7.7,0,0,0-.87,3.71,12.63,12.63,0,0,0-3.44,5.3,14.24,14.24,0,0,0-10.63-1.54c-7.88,2-10,8.71-10.11,13.8a8.91,8.91,0,0,0-5.18,3.32,10.81,10.81,0,0,0-1.85,6.86,9.49,9.49,0,0,0-5.63,3.12,9.17,9.17,0,0,0-1.92,3.67,21.86,21.86,0,0,0-5.61.13,9.87,9.87,0,0,0-1.18-5.59c-1.71-3-5-4.61-9.73-4.76H99.31c-5.57,0-9.45,1.42-11.52,4.27a7.48,7.48,0,0,0-1.16,2.31c-8.75-.84-13.63,3.86-15.87,8a12.55,12.55,0,0,0-8.63,1.22c-2.25-2.85-6.08-6.68-10.42-6.68a7.65,7.65,0,0,0-5.7,2.62,11.06,11.06,0,0,0-2.32,12.26,14.23,14.23,0,0,0-9.25,10.46c-7.84.1-13.21,2.64-15.1,7.18-2.49,6-1.16,10.34.39,12.92,1.92,3.24,5.16,5.49,8.55,7.06a10.76,10.76,0,0,0-1.8,1.77,12.72,12.72,0,0,0-2.76,7.75,15.35,15.35,0,0,0-8.54,6.2,18.73,18.73,0,0,0-2.63,11.79,9,9,0,0,0-3,6,11.66,11.66,0,0,0,1.53,6.47A14,14,0,0,0,4.3,292.6C1.11,296-.31,301,.05,307.38c.92,15.61,9.79,19,14.31,19.7,4.43,8.52,10.75,9.84,14.25,9.84a11.72,11.72,0,0,0,1.35-.07c-.92,7.19-1.13,19.56,7.86,22a19.38,19.38,0,0,0,15.52-2.57c5.18,6.84,11,8,14.29,8h.17a14.43,14.43,0,0,0,3.67,8.83,12.43,12.43,0,0,0,2.44,2.06,18.74,18.74,0,0,0-7.36,10,17.19,17.19,0,0,0,1.38,12.06c-2.12,5-2.25,9.25-.39,12.81,2.48,4.74,7.72,6.41,9.9,6.92,4.18,3.48,7.45,4.76,9.86,4.29,5,5,10,6.1,13.55,6.1a18.46,18.46,0,0,0,7.67-1.72,10.11,10.11,0,0,0,7.12,3.18c-1,4.05-1.74,9.87.6,14.78,1.84,3.92,5.19,6.58,10,7.88a24.59,24.59,0,0,0,6.63.92c10,0,16.71-6.32,19.6-9.71,7.73,2.6,15.23-.16,19.84-3.8a19.11,19.11,0,0,0,1.9,6.62c2.32,4.57,6.43,7.82,12.25,9.64,6.34,2,11.52,2.44,14.91,1.66.63,5,3.33,9.65,9.41,11.56a16,16,0,0,0,4.83.77c6.82,0,11.4-4.61,13.47-7.27a15,15,0,0,0,6.53-.81,11.72,11.72,0,0,0,1.29,3.59c2.38,4.28,7.29,7,14.61,8.06a40.31,40.31,0,0,0,6,.49c5.38,0,9.28-1.43,11.56-4.25a9.22,9.22,0,0,0,1.23-2,15.66,15.66,0,0,0,10,.82,12.31,12.31,0,0,0,.63,2.79c1.17,3.24,3.65,5.68,7.39,7.25a15.94,15.94,0,0,0,6.28,1.38,12.58,12.58,0,0,0,10.78-6.28c5.91-1.52,9.47-4.73,11.48-8.22a11.33,11.33,0,0,0,6.62,3.27c3.79.53,6.36-.47,8.2-2.09,3.33,10.9,6.62,21.59,9.76,30.56,9.85,28.16,4.22,35.2-4.23,63.35s-11.26,61.94-38,84.47c-2,1.66-4,3.34-6.11,5L291,650.94c-1.5,1.19-3,2.38-4.54,3.55l-2.08,1.6c-4.44,3.39-9,6.7-13.46,9.85l-1.07.75c-2.12,1.47-4.24,2.91-6.33,4.31l-.51.34c-7.17,4.75-14.09,8.94-20.25,12.2h0a95.62,95.62,0,0,1-12,5.48H518c-.85-.17-1.73-.33-2.63-.48l-1.13-.19c-1.33-.2-2.7-.39-4.14-.57-3.64-.46-7.61-.88-11.86-1.45h0c-11.33-1.53-24.61-4.2-38.67-11.69a28.85,28.85,0,0,0-12.55-7C422.87,656,402,665.69,394.17,652.71c-8.46-14.07,8.44-14.07,12-27.43s7-31.68,12.66-44.35,35.9-11.28,48.56-17.61,42.25-19,53.5-27.44,16.19-5.64,28.86-16.2c11.27-9.38,16.43-23.23,24.36-37.07a17.09,17.09,0,0,0,7.94,4,12.44,12.44,0,0,0,1.44,7.39c2.11,3.68,6.14,6,12,6.8,7,1,10.72-1.65,12.57-3.83a16.1,16.1,0,0,0,3.35-9.69,16,16,0,0,0,5.26-.47,17.38,17.38,0,0,0,1.34,10.45c2.4,4.8,7.28,7.77,14.51,8.84a42.48,42.48,0,0,0,5.91.44c12.4,0,18.33-6.8,20.52-12.3a22.25,22.25,0,0,0,5.53.77c7.62,0,11.18-4.91,12.42-8.66a14.69,14.69,0,0,0,5.55-3.63c2.1,1.58,5.34,2.64,10.84,1.95,4.91-.61,8.38-2.57,10.29-5.79a10.85,10.85,0,0,0,1.42-4.2,10.4,10.4,0,0,0,3.19.51c2.57,0,6.26-1,9.23-5.9a14.07,14.07,0,0,0,.93-14c3.27-1.14,7-4.29,8.6-12.39a20.37,20.37,0,0,0,.34-6.06,15.05,15.05,0,0,0,1.93,3.14,11.4,11.4,0,0,0,8.33,4.25c4.75.3,8.49-1,11.21-3.9,2.93-3.1,3.75-7.29,4-9.84a19.93,19.93,0,0,0,7.45-5.79c3.17,4.11,8.61,5.48,15.72,3.55,5.66-1.55,9.52-4.47,11.48-8.68a16.38,16.38,0,0,0,1.16-9.33,16.9,16.9,0,0,0,10.86-2.66c1.4,4.59,4.24,10,9.82,10a11.25,11.25,0,0,0,6.61-2.51c4.09-3,6.26-6.57,6.46-10.49A12.3,12.3,0,0,0,821,398.6a13,13,0,0,0,6.83-4.19,12,12,0,0,0,2.66-6.26,12.54,12.54,0,0,0,7.78-6,15.63,15.63,0,0,0,12.46,6.17,20.29,20.29,0,0,0,7.15-1.4c5.64-2.14,9.38-5.4,11.13-9.7a15.59,15.59,0,0,0,.62-9.31c3.6-2.51,5.72-5.64,6.33-9.34a15.42,15.42,0,0,0-1.21-8.42c4.67-.15,7.91-3.2,8.92-8.44C885.32,332.89,880.3,328.11,876.1,326.14Zm-499,166.54a4.8,4.8,0,0,1-1.94-.44l-.1-.06a33.46,33.46,0,0,1-3.76-12.12,3.28,3.28,0,0,0-3.28-3,3,3,0,0,0-.95.24c-.66-5.28-1.1-11.42-3.13-17.85.13-.14.3-.29.41-.42a9.78,9.78,0,0,0,1.67-3.4,16.79,16.79,0,0,0,10.88,1.75,8.18,8.18,0,0,0,5.67-4.11,8.55,8.55,0,0,0,.76-1.91,17.42,17.42,0,0,0,9.9,4C387.77,472.3,384.47,492.68,377.1,492.68ZM503,513.9c-19,9.16-39.82,18.08-51.09,23.7-6.3,3.15-15.32,6.84-21.93,7.76a2.91,2.91,0,0,0,0-.59,3.05,3.05,0,0,0-3.48-2.51c-.19,0-2,.26-4.77.78a4.7,4.7,0,0,1-.37-2.28c1-13.49-9.58-11.21-9.58-35.86,0-3.2.05-6.13.15-8.88,0-.18,0-.37,0-.55.1-2.61.25-5,.41-7.22,0-.24,0-.5.06-.73.18-2.13.38-4.06.62-5.87,0-.27.07-.54.1-.8.24-1.72.51-3.3.79-4.77l.15-.75c.28-1.4.59-2.68.91-3.86.07-.23.13-.47.19-.69.33-1.13.66-2.18,1-3.14l.21-.59c.36-.93.72-1.79,1.09-2.59.08-.16.15-.31.22-.47.38-.79.77-1.53,1.15-2.21l.18-.32c0-.08.09-.15.13-.22a13.5,13.5,0,0,0,11.8-5.3,12.4,12.4,0,0,0,9,4.35c-1.31,3.9-2.34,9.21-.5,13.64a11.58,11.58,0,0,0,7.87,6.68,18.08,18.08,0,0,0,5,.79c6.61,0,9.92-4.43,11.34-8.61a8.27,8.27,0,0,0,3.55.62c1,5.84,4.08,14.09,13.2,15.74a53.38,53.38,0,0,0,9.59,1c7.8,0,12.3-2.28,14.92-4.83,2.7,2.8,6.49,3.88,12.58,2.82,4.43-.75,7-4,8.49-7.66a20.72,20.72,0,0,0,7.11,4.3C528.08,493.33,519.87,505.77,503,513.9ZM724.74,430a16.24,16.24,0,0,0-5.68-5,11.55,11.55,0,0,0,2.06-3.9,16.55,16.55,0,0,0,3.86,1,42.41,42.41,0,0,0,.55,9.24C725.28,430.79,725,430.36,724.74,430Z"/></g></g></svg>