<svg xmlns="http://www.w3.org/2000/svg" viewBox="0 0 775.49 702"><defs><style>.cls-1{fill:#026057;}</style></defs><title>tree 2 bg</title><g id="Layer_2" data-name="Layer 2"><g id="Layer_10" data-name="Layer 10"><path class="cls-1" d="M311.07,96.06a8,8,0,0,0,.89-2.77c.72-5.23,1-9.48-4-11.94-5.49-2.7-16.06-4.55-21.25-.3a47.85,47.85,0,0,0-6.12,7c-3.78,4.71-4.73-.5-3.67-4.35,1.73-6.17.36-10.35-5.64-12a2,2,0,0,0-1.38.12c-1.9-2.92-4.18-5.17-7.43-5.72-5.08-.93-9.81,3.36-11.37,8.13-1,3-.49,6.08.13,9.12a6.46,6.46,0,0,0-.13,1.77,14.25,14.25,0,0,0-3.81,2.29,16.77,16.77,0,0,0-6,1.43c-6.19,3-3.56,8.08-5.38,13.14-1.08,3.09-2.88,7.11-3.85,10.89a38.3,38.3,0,0,0-4.61,1.13,31.79,31.79,0,0,0-7.89-.56c-7.88.5-18.44,3.24-24.25,9.11-4.49,4.42-2.13,13.91,1.3,18.53a4.33,4.33,0,0,0-.7,1.41,37.18,37.18,0,0,0-1.47,6.42,1.75,1.75,0,0,1-.18.7,11.55,11.55,0,0,0-4.61.17c-2.35.78-4.67,1.67-6.33,3.49a16.53,16.53,0,0,0-2.21,3c-2.51-1.54-5.82-3.23-4.74-5.73,2.05-4.83,3.84-8.51,1.92-13.93-1.91-5.26-6.72-11-12.17-12.31-4.51-1.15-8.75.31-12.42,3.06a22.47,22.47,0,0,0-3.78,4.37c-.14.2-.28.43-.44.63-3.61-3.1-8-3.75-13.05-2.1-3.09,1-4.91,2.72-7,5.28-.16.28-.31.51-.47.79a10.45,10.45,0,0,0-10.12-.53,17.26,17.26,0,0,0-17.72-.74c-6.57,3.55-7.39,10-6.87,16.62-6,.81-11.26,3.32-12.75,8.88l-3,.23-1.84.19c-1,.12-1.94.26-2.88.45-.2.05-.41.07-.62.12a16.53,16.53,0,0,0-3.25,1.16l-.58.29a12.55,12.55,0,0,0-3.15,2.28s0,.05-.08.05a2.26,2.26,0,0,1-.39.47s.08,0,.08,0h0a17,17,0,0,0-3.08,4.92c-2.9,6.79.74,13.1,5.61,18.35-3.82,2.1-6.74,5.65-7.21,11.6-.73,8.86,9.71,13.72,17.27,15.77a11.22,11.22,0,0,0,8,6,.86.86,0,0,1-.07.1,16.14,16.14,0,0,0-1.54,1.14,1,1,0,0,1-.64-.25,11.05,11.05,0,0,0-2.22,3.21,6.71,6.71,0,0,0-.44.84,9.79,9.79,0,0,0-.75,1.79,7.41,7.41,0,0,0-.24.84,9.52,9.52,0,0,0-.23,2.29c-2.71,2-1.65,2-5.26.84-4.9-1.51-12.22,1.68-15.27,5.76a17.65,17.65,0,0,0-2,3.28c-4.25,7.49-1.46,15.6,5.39,19.86a15.89,15.89,0,0,0-.35,3.65h0c-.27,9.44,5.3,15.88,13.91,16.22.12.38.18.74.33,1.14a16.24,16.24,0,0,1,1.17,4.28,4.5,4.5,0,0,0,.62-.72,3.8,3.8,0,0,0-.62.95,17.06,17.06,0,0,0-2.72,5,7.8,7.8,0,0,0-4.71-.48c-.59-4.65-2.81-8.94-7.65-9.67a9.76,9.76,0,0,0-7.92,3c-2,2-4.31,2.09-7.12,2.67a53.24,53.24,0,0,0-7,1.95l0,0-.45.19c-.53.2-1.05.4-1.56.64a16.66,16.66,0,0,0-3.26,1.9c-.16.12-.31.26-.46.39a12.73,12.73,0,0,0-2.85,3.16A8.81,8.81,0,0,0,31.1,303,11.21,11.21,0,0,0,24,307.89c-1.58,2.45-3,5.47-2.74,8.54a23.49,23.49,0,0,0,.88,4.4c-5.18,1.06-10.51,3.05-12.69,8.65-2.27,5.8-.49,9.6,2.15,13.52-3.77,1.59-7.31,3.27-9.85,7.4-4.86,7.68,1.41,16.51,7.8,20.27,7.4,4.52,17.32,1.12,24.27-2.66,4-2.21,7-5.76,10.67-8.43,1.69-1.11,5.38,1.78,6.51,2.65,1.77,1.43,1.21,5,1.29,7,0,2.74,3.18,4.75,5.6,4.16,7.88-1.91,15.23-3.76,20-11a5.77,5.77,0,0,0,.69-1.18c2.62,3.2-3.8,7.54-5.65,10.33s-1.59,6.49,1.21,8.29a12.32,12.32,0,0,0,6.82,2c4.63.18,3.63.62,2,4.72a14,14,0,0,0,3.33,15.54c6.32,6.25,16.68,3.24,23.56-2,6.87,2.9,13.44-3.31,18.15-9.9,1.08-1.61,2.24-3.33,3.42-4.92.06-.16.06-.23.14-.27,2.37,2.19-1.19,6.12-.58,9.1a13.47,13.47,0,0,0,1.85,4.44,8.87,8.87,0,0,0,3.83,3.1c2.38,1.14,5.25.22,7.57-.68,1.65-.64,3.13-2.14,4.92-2.49,2.43-.56,5.64,1,8,1.44,6.55,1.42,13.69-5.05,14.45-11.62.48-3.54,2.18.68,2.45,1.84a14.36,14.36,0,0,1-.35,6.64c-.57,2.5-1.4,5.8-.16,8.29,3.4,6.85,10.1,6.88,16.62,6.31a16.38,16.38,0,0,0,13.78-10.28c1.47-3.5.89-6.55,4.45-5.22a8.48,8.48,0,0,0,7.68-1,18.9,18.9,0,0,0,6.27-6.87,19.14,19.14,0,0,0,1.5-4.84,3.56,3.56,0,0,0,0-.65,16.6,16.6,0,0,0,6.9-3.1c3.48.82,7.31-.19,10.91-3,1.76,2.42,4.61,3.63,8.29,3.27a50,50,0,0,0,4.86-1.18,39.25,39.25,0,0,0,5.28,1.33c1.79,3.17-.06,3.63.41,7.46,1.16,8.88,11.15,6.7,19.54,2.64,0,.31.06.63.13.95,1.16,5.27,6.91,5.83,11,4.69.32-.09.68-.26,1-.37a7.23,7.23,0,0,0,2.28,2.26c5.52,3.56,11.17,1.55,16.48-1.23,5.08,4.69,11.95,1.36,17-4.1.32,1.16.63,2.26.93,3.21a113.34,113.34,0,0,0,8.79,21.29,51.77,51.77,0,0,0,8.58,14.38c8.79,10.07,18,21.37,22.67,34.5,1.18,4.35,2.09,8.86,3.13,13.57,2.65,12.14,10.53,21.69,12.2,34.18.81,5.94,2.16,11.77,2.94,17.73.67,5.4-.43,10.82-.28,16.2a27.51,27.51,0,0,0,1.85,10c-.33,4-1,9.45-.4,14.13.09,3.15.24,6.27.53,9.34a18.07,18.07,0,0,1-.1,2.65,8.93,8.93,0,0,0,.43,4.75c.06,5.5,2.66,11.09,5.8,15.75.64,1.12,1.35,2.27,2,3.37a77.34,77.34,0,0,0,4.22,12.91c.09.5.29,1.2.52,2,1.12,4.41,2.36,8.79,3.51,13.21a.6.6,0,0,0,.57.53c.06.78,2.14,5.75,4.54,11.41,2.39,9.48,5.63,21.22,7.51,30a21.5,21.5,0,0,1-.37,3.16l-1.72-.63-2.52-.91h0l-1.07-.39-.95.49a25.74,25.74,0,0,0-2.42,1.2l0,0-.2.1-.13.23c-.88.87-2,3.06-2.8,4.06l-.21-.36-1.07-.32a5.41,5.41,0,0,0-.71-.25c-.21,0-.4-.11-.6-.16l-4.69-1.43-.28.05a12.26,12.26,0,0,0-2.21.31l-2.83.43h0l-.1,0h0l-.21,0-.16.17a14.34,14.34,0,0,0-2.81,2.8l-3.15,3.14-1.51,1.51h0l-.14.14.05.35a12.14,12.14,0,0,0,.59,4c.36.65,1.41,1.26,1.94,1.76.22.19.35.29.51.44l.71.62,1.14.07,0,0,13.59.76,0,0h.25a39.56,39.56,0,0,0,4.69-2l1.47-2.82c.15-.29.3-.59.46-.88.58,1,2.31,2,3.19,2.78.47.41.81.72,1.14,1l.87.76,9.92,1.61L442,702l0,0,.44.07.12,0h0c2.9-.5,5.82-1,8.64-1.74l0,0h0l2.59-3c.36.27.74.56,1,.79l.8.74.8.73,19.89,1.19.11-.05h0c2.07-.83,4.13-1.65,6.14-2.69,1.22-2.57,2.46-5.1,3.84-7.53h0l.13-.19h0l0,0-.05-.06h0c-.31-.31-.61-.64-.92-1,0,0,0-.07,0-.11-.53-.57-1.1-1.1-1.65-1.64-.39-.4-.77-.79-1.14-1.19-.72-.86-1.36-1.76-2.13-2.57-.31-.31-.58-.65-.88-1s-.39-.55-.59-.81l-.54-1-1.42-.44a6,6,0,0,0-1-.33c-.26-.06-.53-.15-.8-.22L469.34,678l-.11,0h0l-.14,0a9.18,9.18,0,0,0-2.88.42l-4.5.66-.31.32a6.47,6.47,0,0,0-1.54,1.29c-.72-2.45-1.45-4.88-2.25-7.35-2.26-6.91-15.65-38.34-19.26-44.61-4.18-7.27-11.24-13.84-15.63-21.54l-.21-.37a30.25,30.25,0,0,1-2.82-7c-.12-.51-.21-1-.28-1.56.35-4.93-.1-9.74.84-14.67a30.4,30.4,0,0,1,1.59-5c2.06-3.3,3.09-7.07,4.42-10.89.15-.52-.48-1.11-.78-.61-.74,1.06-1.54,2-2.28,3a36.35,36.35,0,0,0,1.21-12.39c-.09-.63-1-.71-1.06-.11a29,29,0,0,1-.8,4,.28.28,0,0,0-.32.15c-2.75,6.22-7.47,13.33-9,20.67-1-3.17-2-6.35-2.76-9.56-.2-3.42-.44-6.84-.76-10.22-.1-1.15,0-2.25,0-3.37,1.36-5.11,2.79-10.19,3.67-15.47A92.68,92.68,0,0,1,417,528.52a46.07,46.07,0,0,0,3.49-6.26,45.34,45.34,0,0,1,3.47-5.38c1.73-1.89,3.42-3.85,5.16-5.63,3.51-3.63,7.22-7.1,10.79-10.62,2.83-2.4,5.58-4.84,8.2-7.39,3.77-2.3,6.69-6.57,9.43-10.76,1.83-2.16,3.67-4.31,5.45-6.58,2.16-2.84,4.15-5.81,6.08-8.84A72.43,72.43,0,0,0,477,453.24c5.2-10.09,9.75-20.68,14.38-31.19a48.45,48.45,0,0,0,4.26-8,2,2,0,0,0,.8-1.33,1.81,1.81,0,0,0,.14-.76c.89-1.59,1.73-3.19,2.64-4.76,3.72-6.23,6.6-13,9.67-19.72a133.85,133.85,0,0,1,7.89-11.5,19.84,19.84,0,0,0,7.1-2.45c4.27,4,10.15.82,14.21-4,2.12.75,4.58.05,6.91-2.44,2-2,2.78-4.52,3.51-7.14a16.61,16.61,0,0,0,2-.52,12.61,12.61,0,0,0,2.86-1.45,12.83,12.83,0,0,0,4.29-3.06,51.5,51.5,0,0,0,5.63-2.14,14.8,14.8,0,0,0,4.54-2.22,17.73,17.73,0,0,1,3.7-.56c3.92.33,7.45-2.05,10.62-5,2.94,2.11,6.26,1.93,10.58-.41a35.35,35.35,0,0,0,6.06-4.81c.22-.15.44-.3.66-.43l1.12.13c1,.14,4.59,2.11,5.39.92-3,4.44-5,11,.15,14.82,3.2,2.53,7.22,1.83,11,1.17,1.6,3.18,5,3.43,8.68,2.32v0l.13-.05a23.33,23.33,0,0,0,3.86-1.65c5.74,6.92,16.75,10,24.68,7.16,5.73-2,9.61-8.18,10.61-14.58a20.77,20.77,0,0,0,3.91-2,5.19,5.19,0,0,0,3.2-.39,6.41,6.41,0,0,0,3.18-3.22,9.53,9.53,0,0,0,.46-1.13c1.37-.95,2.71-2,4-3,3.55,4.18,8.13,7.49,12.75,5.33,5.35,3.81,13.39,5.79,18,.85a10.54,10.54,0,0,0,2.1-12c-1.31-3-2-3.39,1.42-3.69a9.49,9.49,0,0,0,5.19-1.71,4.54,4.54,0,0,0,.73-6.43c-1.51-2.05-6.56-5.16-4.72-7.72.23.33.48.58.69.87,3.83,5.41,9.49,6.6,15.58,7.8,1.78.36,4.21-1.25,4.14-3.33,0-1.56-.59-4.23.75-5.36.87-.73,3.65-3.07,5-2.21,2.86,1.89,5.21,4.58,8.37,6.11,5.39,2.68,13,4.95,18.62,1.3,4.72-3.13,9.3-10,5.47-15.77-2.15-3-4.87-4.25-7.83-5.31,1.95-3.11,3.28-6.09,1.32-10.44s-5.92-5.61-9.95-6.24a19.18,19.18,0,0,0,.64-3.37,11.36,11.36,0,0,0-2.35-6.47,8.87,8.87,0,0,0-5.56-3.55,7.18,7.18,0,0,0-1.21-5,9.89,9.89,0,0,0-2.14-2.19c-.22-.17-.43-.35-.66-.51a15.18,15.18,0,0,0-2.49-1.31l-.65-.25c-.26-.09-.51-.21-.77-.29,0,0,0,0,0,.06-.91-.29-1.81-.56-2.74-.76l0,0a24.3,24.3,0,0,0-2.82-.51c-2.12-.38-3.87-.35-5.47-1.83a8.59,8.59,0,0,0-2.13-1.39c7-.17,11.28-5.37,10.42-12.67h0a13.19,13.19,0,0,0-.48-2.62c4.55-3.53,6-9.55,2.53-14.6a12.43,12.43,0,0,0-1.64-2.26c-2.51-2.66-7.86-4.43-11.29-3-2.51,1.1-1.87,1-3.89-.22a7.44,7.44,0,0,0-.65-2.42,6.6,6.6,0,0,0-.37-.7,12.42,12.42,0,0,0-2.33-3,.91.91,0,0,1-.43.21,12.72,12.72,0,0,0-1.18-.71.08.08,0,0,1,0,0,8.07,8.07,0,0,0,5.25-4.88c5.3-2.05,12.47-6.34,11.36-12.59-.77-4.28-3-6.56-5.94-7.8,3-4.1,5.29-9,2.75-13.55a12.31,12.31,0,0,0-2.54-3.3l.08,0-.28-.23c-.06,0-.11-.12-.17-.17l0,0-.16-.1a9.11,9.11,0,0,0-2.06-1.18l-.65-.26a11.69,11.69,0,0,0-2.3-.55l-.34,0c-.75-.08-1.52-.11-2.3-.12-.34,0-.69,0-1,0l-2.34.06c-1.46-3.87-5.42-5.28-9.67-5.47-.14-4.75-1.17-9.27-6.11-11.3a12.49,12.49,0,0,0-12.68,1.82,7.36,7.36,0,0,0-7.18,1.14,1.09,1.09,0,0,0-.46-.52,9.71,9.71,0,0,0-5.33-3.27,11.29,11.29,0,0,0-4.63,0,7.56,7.56,0,0,0-1.23-2.23,6.1,6.1,0,0,0,.5-7.22,4.85,4.85,0,0,0-1.56-1.53,18.6,18.6,0,0,0-2.33-7.25c-2.23-3.69-4.9-4.71-7.71-4.49,2-5.39,2.24-11.32-1.5-15.91-2.58-3.18-3-7.45-5.69-10.54-3.1-3.49-5.84-1.61-8.68-.24a15,15,0,0,0-3.28-6.55,41.11,41.11,0,0,0,9-17.75,20.13,20.13,0,0,0,.41-3.22c0-.24,0-.45,0-.69a14.85,14.85,0,0,0-.12-2.14c0-.29-.12-.56-.17-.84A10.89,10.89,0,0,0,650.3,68a8.7,8.7,0,0,0-.39-.88,10.59,10.59,0,0,0-.66-1.14,7.76,7.76,0,0,0-.65-.86,9.08,9.08,0,0,0-.76-.76,9.28,9.28,0,0,0-1-.79c-.22-.15-.46-.26-.69-.39a9.41,9.41,0,0,0-1.42-.71h0a13.73,13.73,0,0,0-5-.83C638.11,55.87,635,49.47,629,49.23c-3.61-.1-6.29,1.9-8.82,4.35a14,14,0,0,0-3.31,4.93,9.6,9.6,0,0,1-2.7-2.15c-1.6-.13-1.85-.69-.55-1.65a23.58,23.58,0,0,0,3.13-5,16.89,16.89,0,0,0-.52-12.61A8.85,8.85,0,0,0,608,31.84a10.17,10.17,0,0,0-7.19,3c-1-.52-2-1.75-3.16-2a7.07,7.07,0,0,0-6.7,1.7,10.66,10.66,0,0,0-3,4.5c-5.9.31-11.95,3.82-15.66,8.21a15.15,15.15,0,0,0-3.31,13.34,5,5,0,0,0,.63,1.39c.06.09.13.17.2.26a7.58,7.58,0,0,0,.85,1,.73.73,0,0,0,.09.08,16.77,16.77,0,0,0,1.72,1.5s.07,0,.11,0c.19.13.38.29.56.42s.13.1.2.16.1.13.15.18a1.45,1.45,0,0,0,.29.19l-.07,0h0a10.81,10.81,0,0,0-1,1.09,11.28,11.28,0,0,0-2,3.87,3.75,3.75,0,0,0-.46-.35l.07.09a6.88,6.88,0,0,0-5.84-1.07A10.14,10.14,0,0,0,558,62.44a37.3,37.3,0,0,0,4.32-7.22,21.16,21.16,0,0,0,1-2.87,16.35,16.35,0,0,0,.34-1.84c0-.29.11-.59.14-.87a12.2,12.2,0,0,0,0-1.71c0-.27,0-.54-.05-.81a11.25,11.25,0,0,0-.31-1.47c-.08-.28-.17-.56-.28-.84a9.32,9.32,0,0,0-.56-1.2,9.85,9.85,0,0,0-.57-.86,9.11,9.11,0,0,0-.72-.92,10.74,10.74,0,0,0-1-.89c-.25-.2-.47-.42-.75-.61a12.73,12.73,0,0,0-1.9-1l-.27-.13a.26.26,0,0,0-.09,0l0,0a16,16,0,0,0-2.67-.82c-.43-6-2.13-12.93-8-14.49-3.51-.91-6.49.49-9.46,2.25a14.9,14.9,0,0,0-4.24,4.1,9.26,9.26,0,0,1-2.18-2.71c-1.6-.46-1.62-1-.21-1.73a22.51,22.51,0,0,0,4.06-4.2,17.39,17.39,0,0,0,2-12.43,9.32,9.32,0,0,0-7.09-6.93A10.23,10.23,0,0,0,522,3.49c-.87-.74-1.55-2.15-2.65-2.7a7.12,7.12,0,0,0-6.89.2,11.06,11.06,0,0,0-3.86,3.74c-5.81-1-12.45,1.09-16.88,4.58a14.67,14.67,0,0,0-5.94,12.28,4.68,4.68,0,0,0,.28,1.48c.05.14.13.27.19.41a7.84,7.84,0,0,0,.53,1l.25.38c.26.37.52.73.8,1.07l0,.05c.15.17.29.36.44.53,0,0,.05.05.09.05.17.19.34.39.51.57a6,6,0,0,0,.43.61c-.36.28-.82.59-1.24.89A9.7,9.7,0,0,0,485.3,32a2,2,0,0,0-.39-.44l0,.09a7.22,7.22,0,0,0-5.52-2.33C479.2,23.79,475.3,19.5,469,19c-7.16-.54-10.84,5-12.9,11.08C449.13,31.62,443,37.59,444,45.62a16.36,16.36,0,0,0,.57,2.16c-.52-.05-1,0-1.55-.07,0,0,0-.05,0-.09-.43,0-.86,0-1.29,0h-.28a17.67,17.67,0,0,0-2.88.33c-2.29.55-1.45-1.3-3.73-2.65-.92-.55-1.81-1.17-2.71-1.75-.34-.23-.71-.39-1.06-.6a15,15,0,0,0-1.56-.89s0,.06,0,.08a11.61,11.61,0,0,0-1.11-.57c-3.51-1.16-5.11-4.35-8.47-5.62-4.83-1.85-10.87-.15-15.32,2.08a19.11,19.11,0,0,0-9.95,11.46c-1.43,4.18-.38,7.47,1,10.82a19.58,19.58,0,0,0-7,3.92,20.62,20.62,0,0,0-13.6-3.42c-5.17.61-6.23,5.57-8.8,9.2-.73,1-1.52,2-2.33,2.93-1.61-3.66-2.69-7.88-6.76-9.81-8-3.79-15.7-2.11-23,2.72-.78.54-1.57,1.17-2.53,1.81l0,0a33.63,33.63,0,0,0-4.15,3.81v0l-.2.25A20.12,20.12,0,0,0,326,73.49c-.12.17-.25.34-.37.52a14.87,14.87,0,0,0-1.07,1.9c-.09.19-.2.36-.28.55a12.63,12.63,0,0,0-.69,2.16c0,.16-.1.31-.13.47a11,11,0,0,0-.19,2.82c.09-.12-4.46,5.08-5,6a36,36,0,0,0-2.64,5.94C310.76,98.48,309.33,99.2,311.07,96.06ZM675.7,334.3a.31.31,0,0,0,.13.2l1.08,1.45c-.51.44-1,.9-1.53,1.32C675,336.15,674.88,335.11,675.7,334.3ZM429.25,477.13c.19.5.43,1,.65,1.43,0,.11,0,.26,0,.35s.06.35.12.52c-.2-.47-.45-.92-.66-1.39C429.31,477.74,429.3,477.43,429.25,477.13Zm3.15,6.81h0l0,0Zm-14.89,9.4c-.11-.12-.31-.13-.35.05a38.41,38.41,0,0,1-3.43,9.25,66.39,66.39,0,0,0-11.06,16.69c-.19.44-.3.92-.49,1.36a55.92,55.92,0,0,0-5.25,10.1,43.07,43.07,0,0,0-1.62-9.3.9.9,0,0,0-.81-.68c-.25-1.55-.48-3.11-.73-4.67a60.34,60.34,0,0,0-2.67-14.89c-1.83-5.51-5.31-10-8.78-14.46a35.94,35.94,0,0,1-1.61-3.88c-2.35-7.23-2.59-14.88-5.31-22a49.5,49.5,0,0,0-2.68-6,44.89,44.89,0,0,0-3.64-7.95c-6.4-11.2-15.42-19.43-24-28.5a68.11,68.11,0,0,1-6.75-11.74c-2.18-5-3.16-10.51-4.25-15.95a11.31,11.31,0,0,0,3.47-2.54c2.67-2.78,3.73-6.43,4.65-10.08,5.45,0,10-2.82,13.17-7.55a11.18,11.18,0,0,0,3.21.11,122.34,122.34,0,0,0,4.11,15.41c2.95,8.11,6.13,17.49,11.54,24.07a125.79,125.79,0,0,1,8.39,10.86c.79,3.17,1,6.55,1.91,9.63,1.72,5.61,4.55,10.65,5.88,16.41.91,4.26,2.14,8.39,4.68,11.87a18.38,18.38,0,0,0,4.17,3.88c2.54,2.45,5.4,4.62,7.5,7.48,2.69,3.71,6.29,7.71,8.58,12.06a18.16,18.16,0,0,0,1.8,5.09C418.1,489.16,418,491.21,417.51,493.34Zm11-93.73c-.12.31-.26.61-.38.91a48.08,48.08,0,0,0,1.3-7.52A16,16,0,0,1,428.51,399.61ZM436.12,383a33.77,33.77,0,0,0-1.25-4.54,16.25,16.25,0,0,0,4.13-.77l-.05.09c.28-.09.53-.25.8-.35a28.46,28.46,0,0,0,3.91-1.71,31.75,31.75,0,0,1-2,5.15c-1.55,2.92-3.3,5.61-4.71,8.6C436.74,387.24,436.49,385.08,436.12,383Zm-10.18,19.68a24.43,24.43,0,0,0-.45,4.42,22.1,22.1,0,0,0-1.36,5.59c0,.26.05.45.06.68a26.2,26.2,0,0,1-1.44,2.91c-.39.47-.76.95-1.17,1.4-4.33,5.1-9.31,10.58-12.39,16.91-2.41,3.08-4.38,5.9-4.92,10.27-.51,4.17,1.48,8.51,2.92,12.43l-.88-.49a15.07,15.07,0,0,1-6.29-7.29c-1-2.82-1.71-5.69-2.77-8.46-.83-3.55-1.47-7.12-2.3-10.14a46.94,46.94,0,0,0-5.32-11.56,47.26,47.26,0,0,0-1.45-4.76c-.5-1.63-1-3.22-1.5-4.82-.55-2.09-1.08-4.18-1.45-6.3-1.38-7.64,1-14.9,1.66-22.31,2.35-5.82,5.53-11.3,7.85-17.14a45,45,0,0,0,5.21-2.9,21.87,21.87,0,0,0,4.34-.19c-.8,3.43-.86,6.95,2.33,9a9.16,9.16,0,0,0,5.44,1.44,9.94,9.94,0,0,0,2,2.06c3.08,2.33,6.64,2.42,10.28,2,0,.08,0,.14,0,.21.89,3.78,2.11,7.47,3.1,11.27C428.92,392.71,427.37,397.07,425.94,402.63Zm-.1-27.5c.07.78.2,1.58.34,2.37-.24-.77-.48-1.53-.67-2.32Zm-38.55-8.67c-1,2.05-2.09,4.08-3.15,6.12.48-2,.95-4,1.45-6A11.23,11.23,0,0,0,387.29,366.46Zm-23.76,2.66c.25,1,.48,2.07.64,3.19,0,0,0,.08,0,.12-.25-1.1-.48-2.19-.7-3.29Zm4.12,15c-1.53-4.93-2.73-10-4-15.06A26.84,26.84,0,0,0,368,366.3c4.39,1.51,8.44.08,12.16-2.53a5.17,5.17,0,0,0,5,2.84C383,372.49,380,378,378.5,384.11a34.54,34.54,0,0,0-.84,10.24c-.05.51-.12,1-.17,1.53a33,33,0,0,0,.79,8.86A81.84,81.84,0,0,1,367.65,384.13Zm262-208.32a13.53,13.53,0,0,0-3.27.91c.56-1.63,1.38-2.95,2.78-2.23a2.9,2.9,0,0,1,1.27,1.33C630.18,175.83,629.91,175.78,629.66,175.81ZM379.43,481.28a27.2,27.2,0,0,0,.93,2.63c-.3-.47-.68-.93-.93-1.42a14.48,14.48,0,0,1-.54-1.37,110.56,110.56,0,0,1-2.91-12.8C377.3,472.55,378.34,476.84,379.43,481.28ZM488.68,401.5c-2.14,6.81-6.71,12.85-10.07,18.88-7.55,13.48-14.62,27.18-23.29,39.89-3.85,5.75-8,11.74-13.12,16.15-2.5,1.88-5.21,3.33-7.83,5.36a9.93,9.93,0,0,0-.91.93,1.11,1.11,0,0,0,.09-.49v0a.92.92,0,0,0,.55-1.6,18.7,18.7,0,0,1-3.22-4.39c-.56-1.31-.87-2.82-1.5-4.12a29.1,29.1,0,0,0-4.69-6.54c-1.78-3.6-3.42-7.26-5.32-10.85a19.25,19.25,0,0,1-1.66-13c.14-.27.27-.55.4-.82a55.18,55.18,0,0,1,4.28-6.87,83.06,83.06,0,0,0,8.05-11.36,47.06,47.06,0,0,0,3.83-7.44,19.32,19.32,0,0,0,1.4-4.4,31.69,31.69,0,0,0,.78-4.84,179.43,179.43,0,0,0,10.79-19.1,29.24,29.24,0,0,0,2.78-6c7.44,4.78,17.29,6.43,24.83,3.72,5.77-2,10-7.47,12.18-13.69,4.45,1.52,12.14-1.92,17.05-5.15a20.61,20.61,0,0,0,4.31-.18c-.13.58-.2,1.16-.28,1.74-5.81,4.23-11.15,9.08-14.39,15.82C491.06,388.86,490.49,395.51,488.68,401.5Zm231-140a5.07,5.07,0,0,0-1.1,0c-.14-.21-.29-.39-.45-.59-.25-.38-.51-.75-.79-1.11a3,3,0,0,1-.65-1.82c.1-.88.19-1.4.18-1.69a12,12,0,0,0,3.83,1.4A11.79,11.79,0,0,0,719.65,261.47ZM453,688l-.24.25-.4-.46a3.6,3.6,0,0,0,.56.08ZM257.4,378.28a5.75,5.75,0,0,0,.78.56c-.81-.1-1.63-.27-2.45-.43A8.2,8.2,0,0,1,257.4,378.28Z"/></g></g></svg>