<svg xmlns="http://www.w3.org/2000/svg" xmlns:xlink="http://www.w3.org/1999/xlink" viewBox="0 0 1151.71 480.33"><defs><style>.cls-1{fill-rule:evenodd;fill:url(#Áåçûìÿííûé_ãðàäèåíò_79);}.cls-2{fill:#fff;}</style><radialGradient id="Áåçûìÿííûé_ãðàäèåíò_79" cx="570.18" cy="240.17" r="521.88" gradientUnits="userSpaceOnUse"><stop offset="0" stop-color="#ffdb9a"/><stop offset="1" stop-color="#ff9f74"/></radialGradient></defs><title>L1 msg box</title><g id="Layer_2" data-name="Layer 2"><g id="Layer_18" data-name="Layer 18"><path class="cls-1" d="M81.26,476.33A77.35,77.35,0,0,1,4,399.07V92.48A77.35,77.35,0,0,1,81.26,15.22h852A76.48,76.48,0,0,1,981.41,32a4,4,0,0,0,4.81.13,3.83,3.83,0,0,0,.44-.36C990.51,29,1026.09,4,1070.89,4c23.29,0,45.25,6.68,65.47,19.89-5.48-.55-12.09-1-19.39-1-33.85,0-92.68,9.93-106.32,76.41a3.56,3.56,0,0,0-.08.8v299a77.35,77.35,0,0,1-77.27,77.26Z"/><path class="cls-2" d="M1070.89,8a112.07,112.07,0,0,1,48.46,10.92l-2.38,0c-60.55,0-99.7,28.27-110.24,79.6a7.92,7.92,0,0,0-.16,1.61v299a73.35,73.35,0,0,1-73.27,73.26h-852A73.35,73.35,0,0,1,8,399.07V92.48A73.34,73.34,0,0,1,81.26,19.22h852a72.42,72.42,0,0,1,45.61,16,8,8,0,0,0,9.67.21c.16-.11.31-.23.47-.36,3.6-2.63,38.3-27,81.84-27m0-8c-49.23,0-87,28.88-87,28.88v0a80.94,80.94,0,0,0-50.6-17.69h-852A81.26,81.26,0,0,0,0,92.48V399.07a81.26,81.26,0,0,0,81.26,81.26h852a81.27,81.27,0,0,0,81.27-81.26v-299c12.76-62.17,66.12-73.21,102.4-73.21a173.82,173.82,0,0,1,34.74,3.35C1124.12,7.52,1096,0,1070.89,0Z"/></g></g></svg>