<svg xmlns="http://www.w3.org/2000/svg" xmlns:xlink="http://www.w3.org/1999/xlink" viewBox="0 0 1282.18 279.22"><defs><style>.cls-1{isolation:isolate;}.cls-2,.cls-24{fill:#42210b;}.cls-10,.cls-11,.cls-12,.cls-13,.cls-14,.cls-15,.cls-16,.cls-17,.cls-18,.cls-19,.cls-2,.cls-20,.cls-21,.cls-22,.cls-23,.cls-25,.cls-26,.cls-27,.cls-28,.cls-29,.cls-3,.cls-30,.cls-31,.cls-32,.cls-33,.cls-34,.cls-35,.cls-4,.cls-5,.cls-6,.cls-8,.cls-9{fill-rule:evenodd;}.cls-3{fill:url(#Áåçûìÿííûé_ãðàäèåíò_29);}.cls-4{fill:url(#Áåçûìÿííûé_ãðàäèåíò_29-2);}.cls-5{fill:url(#Áåçûìÿííûé_ãðàäèåíò_29-3);}.cls-6{fill:url(#Áåçûìÿííûé_ãðàäèåíò_29-4);}.cls-7{fill:#a0343b;}.cls-10,.cls-11,.cls-12,.cls-8,.cls-9{opacity:0.8;mix-blend-mode:multiply;}.cls-8{fill:url(#Áåçûìÿííûé_ãðàäèåíò_81);}.cls-9{fill:url(#Áåçûìÿííûé_ãðàäèåíò_81-2);}.cls-10{fill:url(#Áåçûìÿííûé_ãðàäèåíò_81-3);}.cls-11{fill:url(#Áåçûìÿííûé_ãðàäèåíò_81-4);}.cls-12{fill:url(#Áåçûìÿííûé_ãðàäèåíò_80);}.cls-13{fill:url(#Áåçûìÿííûé_ãðàäèåíò_79);}.cls-14{fill:url(#Áåçûìÿííûé_ãðàäèåíò_29-5);}.cls-15{fill:url(#Áåçûìÿííûé_ãðàäèåíò_79-2);}.cls-16{fill:url(#Áåçûìÿííûé_ãðàäèåíò_29-6);}.cls-17{fill:url(#Áåçûìÿííûé_ãðàäèåíò_79-3);}.cls-18{fill:url(#Áåçûìÿííûé_ãðàäèåíò_29-7);}.cls-19{fill:url(#Áåçûìÿííûé_ãðàäèåíò_79-4);}.cls-20{fill:url(#Áåçûìÿííûé_ãðàäèåíò_29-8);}.cls-21{fill:url(#Áåçûìÿííûé_ãðàäèåíò_79-5);}.cls-22{fill:url(#Áåçûìÿííûé_ãðàäèåíò_29-9);}.cls-23{fill:url(#Áåçûìÿííûé_ãðàäèåíò_79-6);}.cls-25{fill:url(#Áåçûìÿííûé_ãðàäèåíò_79-7);}.cls-26{fill:url(#Áåçûìÿííûé_ãðàäèåíò_29-10);}.cls-27{fill:url(#Áåçûìÿííûé_ãðàäèåíò_79-8);}.cls-28{fill:url(#Áåçûìÿííûé_ãðàäèåíò_29-11);}.cls-29{fill:url(#Áåçûìÿííûé_ãðàäèåíò_79-9);}.cls-30{fill:url(#Áåçûìÿííûé_ãðàäèåíò_29-12);}.cls-31{fill:url(#Áåçûìÿííûé_ãðàäèåíò_79-10);}.cls-32{fill:url(#Áåçûìÿííûé_ãðàäèåíò_29-13);}.cls-33{fill:url(#Áåçûìÿííûé_ãðàäèåíò_79-11);}.cls-34{fill:url(#Áåçûìÿííûé_ãðàäèåíò_29-14);}.cls-35{fill:url(#Áåçûìÿííûé_ãðàäèåíò_79-12);}</style><linearGradient id="Áåçûìÿííûé_ãðàäèåíò_29" x1="1272.47" y1="273.35" x2="1272.47" y2="119.9" gradientUnits="userSpaceOnUse"><stop offset="0" stop-color="#d65629"/><stop offset="1" stop-color="#ff914f"/></linearGradient><linearGradient id="Áåçûìÿííûé_ãðàäèåíò_29-2" x1="-258.16" y1="314.29" x2="-89.88" y2="314.29" gradientTransform="matrix(0, 1, 1, 0, -304.58, 369.1)" xlink:href="#Áåçûìÿííûé_ãðàäèåíò_29"/><linearGradient id="Áåçûìÿííûé_ãðàäèåíò_29-3" x1="0" y1="121.05" x2="1282.18" y2="121.05" xlink:href="#Áåçûìÿííûé_ãðàäèåíò_29"/><linearGradient id="Áåçûìÿííûé_ãðàäèåíò_29-4" x1="1288.01" y1="269.11" x2="1.41" y2="269.11" xlink:href="#Áåçûìÿííûé_ãðàäèåíò_29"/><linearGradient id="Áåçûìÿííûé_ãðàäèåíò_81" x1="139.25" y1="1264.39" x2="139.25" y2="1161.01" gradientTransform="matrix(0, 0.68, -6.39, 0.02, 8136.67, 6.71)" gradientUnits="userSpaceOnUse"><stop offset="0" stop-color="#fff"/><stop offset="1" stop-color="#cc6670"/></linearGradient><linearGradient id="Áåçûìÿííûé_ãðàäèåíò_81-2" x1="365.01" y1="1191.66" x2="365.01" y2="1088.28" xlink:href="#Áåçûìÿííûé_ãðàäèåíò_81"/><linearGradient id="Áåçûìÿííûé_ãðàäèåíò_81-3" x1="84" y1="438.19" x2="84" y2="64.65" gradientTransform="matrix(-0.04, 0.67, -1, -0.05, 1315.19, 75.59)" xlink:href="#Áåçûìÿííûé_ãðàäèåíò_81"/><linearGradient id="Áåçûìÿííûé_ãðàäèåíò_81-4" x1="312.89" y1="1255.1" x2="312.89" y2="881.56" gradientTransform="matrix(0.02, -0.67, 1, 0.03, -765.96, 453.44)" xlink:href="#Áåçûìÿííûé_ãðàäèåíò_81"/><linearGradient id="Áåçûìÿííûé_ãðàäèåíò_80" x1="7.25" y1="279.22" x2="7.25" y2="171.67" gradientUnits="userSpaceOnUse"><stop offset="0" stop-color="#cc6670"/><stop offset="1" stop-color="#fff"/></linearGradient><radialGradient id="Áåçûìÿííûé_ãðàäèåíò_79" cx="558.61" cy="-95.78" r="20.21" gradientTransform="translate(-102.9 66.99) scale(0.37 0.55)" gradientUnits="userSpaceOnUse"><stop offset="0" stop-color="#ffdb9a"/><stop offset="1" stop-color="#ff9f74"/></radialGradient><linearGradient id="Áåçûìÿííûé_ãðàäèåíò_29-5" x1="101.37" y1="24.78" x2="111.79" y2="24.78" xlink:href="#Áåçûìÿííûé_ãðàäèåíò_29"/><radialGradient id="Áåçûìÿííûé_ãðàäèåíò_79-2" cx="558.61" cy="-56.37" r="20.21" xlink:href="#Áåçûìÿííûé_ãðàäèåíò_79"/><linearGradient id="Áåçûìÿííûé_ãðàäèåíò_29-6" x1="101.37" y1="46.65" x2="111.79" y2="46.65" xlink:href="#Áåçûìÿííûé_ãðàäèåíò_29"/><radialGradient id="Áåçûìÿííûé_ãðàäèåíò_79-3" cx="558.61" cy="-16.95" r="20.21" xlink:href="#Áåçûìÿííûé_ãðàäèåíò_79"/><linearGradient id="Áåçûìÿííûé_ãðàäèåíò_29-7" x1="101.37" y1="68.51" x2="111.79" y2="68.51" xlink:href="#Áåçûìÿííûé_ãðàäèåíò_29"/><radialGradient id="Áåçûìÿííûé_ãðàäèåíò_79-4" cx="558.61" cy="22.46" r="20.21" xlink:href="#Áåçûìÿííûé_ãðàäèåíò_79"/><linearGradient id="Áåçûìÿííûé_ãðàäèåíò_29-8" x1="101.37" y1="90.38" x2="111.79" y2="90.38" xlink:href="#Áåçûìÿííûé_ãðàäèåíò_29"/><radialGradient id="Áåçûìÿííûé_ãðàäèåíò_79-5" cx="558.61" cy="61.88" r="20.21" xlink:href="#Áåçûìÿííûé_ãðàäèåíò_79"/><linearGradient id="Áåçûìÿííûé_ãðàäèåíò_29-9" x1="101.37" y1="112.25" x2="111.79" y2="112.25" xlink:href="#Áåçûìÿííûé_ãðàäèåíò_29"/><radialGradient id="Áåçûìÿííûé_ãðàäèåíò_79-6" cx="558.61" cy="101.29" r="20.21" xlink:href="#Áåçûìÿííûé_ãðàäèåíò_79"/><radialGradient id="Áåçûìÿííûé_ãðàäèåíò_79-7" cx="3423.78" cy="-95.78" r="20.21" xlink:href="#Áåçûìÿííûé_ãðàäèåíò_79"/><linearGradient id="Áåçûìÿííûé_ãðàäèåíò_29-10" x1="1175.8" y1="24.78" x2="1186.23" y2="24.78" xlink:href="#Áåçûìÿííûé_ãðàäèåíò_29"/><radialGradient id="Áåçûìÿííûé_ãðàäèåíò_79-8" cx="3423.78" cy="-56.37" r="20.21" xlink:href="#Áåçûìÿííûé_ãðàäèåíò_79"/><linearGradient id="Áåçûìÿííûé_ãðàäèåíò_29-11" x1="1175.8" y1="46.65" x2="1186.23" y2="46.65" xlink:href="#Áåçûìÿííûé_ãðàäèåíò_29"/><radialGradient id="Áåçûìÿííûé_ãðàäèåíò_79-9" cx="3423.78" cy="-16.95" r="20.21" xlink:href="#Áåçûìÿííûé_ãðàäèåíò_79"/><linearGradient id="Áåçûìÿííûé_ãðàäèåíò_29-12" x1="1175.8" y1="68.51" x2="1186.23" y2="68.51" xlink:href="#Áåçûìÿííûé_ãðàäèåíò_29"/><radialGradient id="Áåçûìÿííûé_ãðàäèåíò_79-10" cx="3423.78" cy="22.46" r="20.21" xlink:href="#Áåçûìÿííûé_ãðàäèåíò_79"/><linearGradient id="Áåçûìÿííûé_ãðàäèåíò_29-13" x1="1175.8" y1="90.38" x2="1186.23" y2="90.38" xlink:href="#Áåçûìÿííûé_ãðàäèåíò_29"/><radialGradient id="Áåçûìÿííûé_ãðàäèåíò_79-11" cx="3423.78" cy="61.88" r="20.21" xlink:href="#Áåçûìÿííûé_ãðàäèåíò_79"/><linearGradient id="Áåçûìÿííûé_ãðàäèåíò_29-14" x1="1175.8" y1="112.25" x2="1186.23" y2="112.25" xlink:href="#Áåçûìÿííûé_ãðàäèåíò_29"/><radialGradient id="Áåçûìÿííûé_ãðàäèåíò_79-12" cx="3423.78" cy="101.29" r="20.21" xlink:href="#Áåçûìÿííûé_ãðàäèåíò_79"/></defs><title>Level 1 Title</title><g class="cls-1"><g id="Layer_2" data-name="Layer 2"><g id="Layer_19" data-name="Layer 19"><path class="cls-2" d="M7.33,124.86V263.77H1274.1V124.86Zm86.86,20.81a12.39,12.39,0,1,1,12.4,12.38A12.39,12.39,0,0,1,94.19,145.67ZM1181,158.05a12.38,12.38,0,1,1,12.38-12.38A12.38,12.38,0,0,1,1181,158.05Z"/><polygon class="cls-3" points="1262.75 277.13 1262.75 113.27 1282.18 110.94 1282.18 279.22 1262.75 277.13"/><polygon class="cls-4" points="19.43 277.13 19.43 113.27 0 110.94 0 279.22 19.43 277.13"/><polygon class="cls-5" points="1266.27 131.16 17.75 131.16 0 110.94 1282.18 110.94 1266.27 131.16"/><polygon class="cls-6" points="1282.18 279.22 0 279.22 17.75 259 1266.27 259 1282.18 279.22"/><circle class="cls-7" cx="7.33" cy="127.25" r="2.39"/><circle class="cls-7" cx="14.6" cy="120.19" r="2.39"/><circle class="cls-7" cx="1267.04" cy="120.08" r="2.39"/><circle class="cls-7" cx="1274.1" cy="127.36" r="2.39"/><circle class="cls-7" cx="7.33" cy="261.49" r="2.39"/><circle class="cls-7" cx="14.6" cy="268.55" r="2.39"/><circle class="cls-7" cx="1267.04" cy="268.66" r="2.39"/><circle class="cls-7" cx="1274.1" cy="261.39" r="2.39"/><path class="cls-8" d="M715.78,116.18,55,120.39S519.22,123.72,715.78,116.18Z"/><path class="cls-9" d="M1181,267.47l-660.81,4.21S984.45,275,1181,267.47Z"/><path class="cls-10" d="M1248.06,121.6l-373.52-9.85S1135.76,141.39,1248.06,121.6Z"/><path class="cls-11" d="M120.86,273.94l373.65.73S232.64,251.41,120.86,273.94Z"/><polygon class="cls-12" points="4.78 279.22 7.89 171.67 9.72 279.21 4.78 279.22"/><polygon class="cls-13" points="111.79 27.7 101.37 11.25 101.37 0 111.79 16.45 111.79 27.7"/><polygon class="cls-14" points="111.79 38.63 101.37 22.18 101.37 10.93 111.79 27.39 111.79 38.63"/><polygon class="cls-15" points="111.79 49.57 101.37 33.11 101.37 21.86 111.79 38.32 111.79 49.57"/><polygon class="cls-16" points="111.79 60.5 101.37 44.05 101.37 32.8 111.79 49.25 111.79 60.5"/><polygon class="cls-17" points="111.79 71.43 101.37 54.98 101.37 43.73 111.79 60.19 111.79 71.43"/><polygon class="cls-18" points="111.79 82.37 101.37 65.91 101.37 54.66 111.79 71.12 111.79 82.37"/><polygon class="cls-19" points="111.79 93.3 101.37 76.84 101.37 65.6 111.79 82.05 111.79 93.3"/><polygon class="cls-20" points="111.79 104.23 101.37 87.78 101.37 76.53 111.79 92.98 111.79 104.23"/><polygon class="cls-21" points="111.79 115.16 101.37 98.71 101.37 87.46 111.79 103.92 111.79 115.16"/><polygon class="cls-22" points="111.79 126.1 101.37 109.64 101.37 98.39 111.79 114.85 111.79 126.1"/><polygon class="cls-23" points="111.79 137.03 101.37 120.58 101.37 109.33 111.79 125.78 111.79 137.03"/><rect class="cls-24" x="96.8" y="104.35" width="19.55" height="41.02" rx="9.63"/><polygon class="cls-25" points="1186.23 27.7 1175.8 11.25 1175.8 0 1186.23 16.45 1186.23 27.7"/><polygon class="cls-26" points="1186.23 38.63 1175.8 22.18 1175.8 10.93 1186.23 27.39 1186.23 38.63"/><polygon class="cls-27" points="1186.23 49.57 1175.8 33.11 1175.8 21.86 1186.23 38.32 1186.23 49.57"/><polygon class="cls-28" points="1186.23 60.5 1175.8 44.05 1175.8 32.8 1186.23 49.25 1186.23 60.5"/><polygon class="cls-29" points="1186.23 71.43 1175.8 54.98 1175.8 43.73 1186.23 60.19 1186.23 71.43"/><polygon class="cls-30" points="1186.23 82.37 1175.8 65.91 1175.8 54.66 1186.23 71.12 1186.23 82.37"/><polygon class="cls-31" points="1186.23 93.3 1175.8 76.84 1175.8 65.6 1186.23 82.05 1186.23 93.3"/><polygon class="cls-32" points="1186.23 104.23 1175.8 87.78 1175.8 76.53 1186.23 92.98 1186.23 104.23"/><polygon class="cls-33" points="1186.23 115.16 1175.8 98.71 1175.8 87.46 1186.23 103.92 1186.23 115.16"/><polygon class="cls-34" points="1186.23 126.1 1175.8 109.64 1175.8 98.39 1186.23 114.85 1186.23 126.1"/><polygon class="cls-35" points="1186.23 137.03 1175.8 120.58 1175.8 109.33 1186.23 125.78 1186.23 137.03"/><rect class="cls-24" x="1171.24" y="104.35" width="19.55" height="41.02" rx="9.63"/></g></g></g></svg>