<svg xmlns="http://www.w3.org/2000/svg" xmlns:xlink="http://www.w3.org/1999/xlink" viewBox="0 0 272.9 444.72"><defs><style>.cls-1{fill:none;}.cls-2{fill:#e6e6e6;}.cls-3{fill:#893838;}.cls-4{clip-path:url(#clip-path);}.cls-5{fill:#ffc697;}.cls-6{fill:#f6921e;}.cls-7{fill:#310b6d;}.cls-8{fill:#f1c7a9;}.cls-9{fill:#1a1a1a;}.cls-10{fill:#ffc200;}.cls-11{fill:#d3976a;}.cls-12{fill:#302424;}.cls-13{fill:#fff;}</style><clipPath id="clip-path"><circle class="cls-1" cx="136.45" cy="136.45" r="129.45"/></clipPath></defs><title>Avatar - Boy</title><g id="Layer_2" data-name="Layer 2"><g id="Layer_16" data-name="Layer 16"><circle class="cls-2" cx="136.45" cy="136.45" r="132.95"/><path class="cls-3" d="M136.45,7A129.45,129.45,0,1,1,7,136.45,129.45,129.45,0,0,1,136.45,7m0-7A136.45,136.45,0,0,0,40,232.94a136.45,136.45,0,0,0,193-193A135.55,135.55,0,0,0,136.45,0Z"/><g class="cls-4"><path class="cls-5" d="M186.49,296.4s3.25-3.81,7.52-4.2,5.15,3.69,3.69,5.19S191.45,300.73,186.49,296.4Z"/><path class="cls-5" d="M125.29,277.34s7.3,15.49,16.08,19.79,40,16.15,44,15.66,3.75,3.13,8.2,3.56,12.47-.2,12.22-5.94-.75-16.58-2.9-17.37-9.5,1.79-13.42,3.17-28.47-4-34.8-9.47-11.07-16.83-11.07-16.83S126.46,268.12,125.29,277.34Z"/><path class="cls-6" d="M109.55,238.93a16.83,16.83,0,0,1,4.32-12.45c2.76-3,6.23-6.2,9-6.74,5.56-1.07,19.86,30.56,23.88,36.08s4.92,9.94-.29,12.65-30,14.27-32.21,9.21C112.36,273.27,110.58,254.71,109.55,238.93Z"/><path class="cls-7" d="M142.81,361.79c12.12,38.55,6.34,66.82,6.34,66.82l-31.38,10a145.43,145.43,0,0,0-3.41-70.17c-8.28-27.21-22-42.76-22-42.76l28-10.66A185.72,185.72,0,0,1,142.81,361.79Z"/><path class="cls-8" d="M142.81,361.79c12.12,38.55,6.34,66.82,6.34,66.82l-31.38,10a145.43,145.43,0,0,0-3.41-70.17C120.68,364.38,130.66,360,142.81,361.79Z"/><path class="cls-6" d="M170.67,444.72H118.49a4.31,4.31,0,0,1-4.12-5.6c6.46-20.24,18.85-25.84,39.95-21.92C170,420.12,174,432,174.86,439.12c0,.31.08.6.11.89A4.3,4.3,0,0,1,170.67,444.72Z"/><path class="cls-9" d="M170.67,444.72H118.49a4.31,4.31,0,0,1-4.12-5.6h60.49c0,.31.08.6.11.89A4.3,4.3,0,0,1,170.67,444.72Z"/><path class="cls-10" d="M132,309c0,.26,0,.52-.07.77-2.82,31.68-34.5,40.79-61.69,27.73C56.07,330.67,51.57,316,53.1,298.1c1.43-16.7,8.13-36.18,17.14-54.54,18.63-38,44.21-28.51,44.21-28.51C134.29,220.54,137.11,239.17,132,309Z"/><path class="cls-7" d="M131.93,309.74c-2.82,31.68-34.5,40.79-61.69,27.73C56.07,330.67,51.57,316,53.1,298.1,67.92,293.77,100.79,288.11,131.93,309.74Z"/><path class="cls-11" d="M108.56,202.83s-5.71,17.06,7.72,16.88-1.44.37,9-16.08S108.56,202.83,108.56,202.83Z"/><path class="cls-7" d="M95,370.33C92.63,410.68,77.18,435,77.18,435l-32.89-1.82a145.53,145.53,0,0,0,21.78-66.8c1.94-28.37-5.33-47.78-5.33-47.78h30A185.71,185.71,0,0,1,95,370.33Z"/><path class="cls-8" d="M95,370.33C92.63,410.68,77.18,435,77.18,435l-32.89-1.82a145.53,145.53,0,0,0,21.78-66.8C73.42,364.88,84.3,364.37,95,370.33Z"/><path class="cls-6" d="M96.66,444.72H44.47a4.3,4.3,0,0,1-4.11-5.59c6.46-20.25,18.85-25.85,40-21.93C96,420.13,99.94,432,100.85,439.13c0,.3.08.59.11.88A4.31,4.31,0,0,1,96.66,444.72Z"/><path class="cls-9" d="M96.66,444.72H44.47a4.3,4.3,0,0,1-4.11-5.59h60.49c0,.3.08.59.11.88A4.31,4.31,0,0,1,96.66,444.72Z"/><path class="cls-5" d="M97.77,329.52s5.9-.36,9.74,2.93,1.1,7.4-1.37,7.4S98.18,337.29,97.77,329.52Z"/><path class="cls-5" d="M63.66,262s-7.13,18.91-3.56,29.88S79.24,339,83,342s.43,5.76,3.72,9.87,10.42,10.41,15.08,5.48,13.42-14.25,12.33-16.72-9.32-6.58-13.71-8.77-20-27.41-20.55-37.27S85,271.42,85,271.42,72.43,255.43,63.66,262Z"/><path class="cls-6" d="M83.29,217.11a19.85,19.85,0,0,1,14.1-6.55c4.83-.15,10.37.18,13.14,2.12,5.48,3.83-9.6,41.93-11,49.88s-4.38,12.33-11,10.14S51.87,259,54.34,253C56.49,247.7,70.76,231,83.29,217.11Z"/><path class="cls-5" d="M90.24,184.72s17.27,28.95,55.37,29.28,47.41-30.65,47.14-38.6-8.5-18.09-3-32.06,8.23-20.28,5.76-36.73-5.76-36.72-26.59-41.38-68.52,7.4-80.57,23.29-20.56,47.42-14,66.88S90.24,184.72,90.24,184.72Z"/><path class="cls-12" d="M111.72,146.08s-6.4-28.23-3.39-36.45,30.15-30.15,34.81-30.7,20.28,12.33,38.92,14.25,36.18-13.7,37-49.61c0,0-32.34,12.34-61.67,1.92s-50.72-3.56-63.87,9S83,85.23,83,85.23s-10.53-6.41-6.69-21c0,0-9.87,8.14-2.2,24.86,0,0-8.77-3-16.44,10.69,0,0,5.56-6.85,14.43-1.65,0,0-15.53,15.9-14.43,32.35S71.54,178.88,96,198.15c0,0,4.38,2.74,3.29-6.85s-3-23-3-23l11.79-29.17Z"/><path class="cls-5" d="M111.72,146.08s-3.94-14.25-11.88-13.71S83.94,140.32,88.6,157,105,170.74,105,170.74"/><path d="M111.72,146.08a34.4,34.4,0,0,0-4.11-8.28,15.21,15.21,0,0,0-3-3.34,6.93,6.93,0,0,0-4-1.56,12.7,12.7,0,0,0-4.31.88,11.42,11.42,0,0,0-3.76,2.29,15.3,15.3,0,0,0-1.52,1.6,13.39,13.39,0,0,0-1.18,1.87l-.5,1-.38,1a13.54,13.54,0,0,0-.59,2.16,24.64,24.64,0,0,0,0,9,35.26,35.26,0,0,0,2.5,8.78,16.54,16.54,0,0,0,5.49,7.08,12.16,12.16,0,0,0,8.71,2.13A12.13,12.13,0,0,1,96,169.19a17.45,17.45,0,0,1-6.09-7.2A33.86,33.86,0,0,1,87,153a25.55,25.55,0,0,1-.07-9.51,16.27,16.27,0,0,1,.65-2.34L88,140l.56-1.08a15,15,0,0,1,1.32-2.06,14.14,14.14,0,0,1,1.71-1.75,12.88,12.88,0,0,1,4.2-2.45,14.54,14.54,0,0,1,2.35-.63,14,14,0,0,1,2.45-.17,7.9,7.9,0,0,1,4.48,1.94,15.44,15.44,0,0,1,3.07,3.65A31.8,31.8,0,0,1,111.72,146.08Z"/><ellipse class="cls-11" cx="101.57" cy="151.66" rx="6.99" ry="9.59"/><ellipse class="cls-13" cx="146.49" cy="143.72" rx="9.57" ry="12.68"/><ellipse cx="149.12" cy="143.55" rx="5.75" ry="7.62"/><ellipse class="cls-13" cx="146.49" cy="142.06" rx="1.76" ry="2.33"/><ellipse class="cls-13" cx="177.28" cy="143.72" rx="9.57" ry="12.68"/><ellipse cx="179.65" cy="143.55" rx="5.75" ry="7.62"/><ellipse class="cls-13" cx="177.28" cy="142.06" rx="1.76" ry="2.33"/><path class="cls-12" d="M154.93,113.19v9.59s-11.39-11.35-31.52,4.11C123.41,126.89,128.34,109.63,154.93,113.19Z"/><path class="cls-12" d="M169.45,114v8.22s11.4-13.59,26.39,2.25C195.84,124.48,189.73,104.42,169.45,114Z"/><path class="cls-5" d="M168.51,149.64a31.09,31.09,0,0,0,9,11.61c6.31,4.84-8.49,13.48-19.73,9.71"/><path d="M168.51,149.64a40.92,40.92,0,0,0,6.49,8.22c.63.59,1.28,1.15,1.94,1.7l1,.79c.16.11.37.29.57.46a3.46,3.46,0,0,1,.58.57,4,4,0,0,1,.84,1.52,4,4,0,0,1,.05,1.78,6,6,0,0,1-1.5,2.8,17.82,17.82,0,0,1-10,4.74A18.4,18.4,0,0,1,157.82,171a23.83,23.83,0,0,0,10.34-.35,23.42,23.42,0,0,0,4.79-1.74,13.26,13.26,0,0,0,4-2.8,4,4,0,0,0,1-1.79,1.83,1.83,0,0,0-.42-1.65,2.38,2.38,0,0,0-.34-.38c-.14-.12-.25-.24-.44-.4l-1-.9-1-.95-.93-1A26.06,26.06,0,0,1,168.51,149.64Z"/><path d="M174.81,177.2s-19.2,12.48-39.88-5.54c0,0,11,18.89,38.24,9.75C173.17,181.41,174.81,180.76,174.81,177.2Z"/></g></g></g></svg>