<svg xmlns="http://www.w3.org/2000/svg" xmlns:xlink="http://www.w3.org/1999/xlink" viewBox="0 0 272.9 434.53"><defs><style>.cls-1{fill:none;}.cls-2{fill:#e6e6e6;}.cls-3{fill:#893838;}.cls-4{clip-path:url(#clip-path);}.cls-5{fill:#ffc697;}.cls-6{fill:#d30056;}.cls-7{fill:#1a1a1a;}.cls-8{fill:#ff0062;}.cls-9{fill:#310b6d;}.cls-10{fill:#d3976a;}.cls-11{fill:#191212;}.cls-12{fill:#d205d8;}.cls-13{fill:#f0f;}.cls-14{fill:#fbed21;}.cls-15{fill:#302424;}.cls-16{fill:#fff;}</style><clipPath id="clip-path"><circle class="cls-1" cx="136.45" cy="136.45" r="129.45"/></clipPath></defs><title>Avatar - Girl</title><g id="Layer_2" data-name="Layer 2"><g id="Layer_16" data-name="Layer 16"><circle class="cls-2" cx="136.45" cy="136.45" r="132.95" transform="translate(-33.69 227.5) rotate(-73.15)"/><path class="cls-3" d="M136.45,7A129.45,129.45,0,1,1,7,136.45,129.45,129.45,0,0,1,136.45,7m0-7A136.45,136.45,0,0,0,40,232.94a136.45,136.45,0,0,0,193-193A135.55,135.55,0,0,0,136.45,0Z"/><g class="cls-4"><path class="cls-5" d="M228,294.21s3.08-3.6,7.11-4,4.87,3.49,3.49,4.91S232.73,298.31,228,294.21Z"/><path class="cls-5" d="M170.14,276.18s6.91,14.66,15.21,18.72,37.81,15.28,41.63,14.82,3.55,3,7.75,3.36,11.81-.18,11.57-5.62-.72-15.68-2.75-16.42-9,1.69-12.69,3-26.94-3.77-32.92-9-10.48-15.92-10.48-15.92S171.25,267.46,170.14,276.18Z"/><path class="cls-6" d="M155.25,239.84a15.85,15.85,0,0,1,4.09-11.77c2.61-2.86,5.89-5.87,8.55-6.38,5.26-1,18.78,28.91,22.6,34.13s4.65,9.41-.28,12-28.38,13.5-30.47,8.72C157.91,272.33,156.22,254.77,155.25,239.84Z"/><path class="cls-5" d="M186.72,356.07c11.46,36.47,6,63.22,6,63.22L163,428.74a137.57,137.57,0,0,0-3.23-66.38C152,336.62,139,321.91,139,321.91l26.49-10.09A176.16,176.16,0,0,1,186.72,356.07Z"/><path class="cls-6" d="M213.08,434.52H163.71a4.08,4.08,0,0,1-3.9-5.29c6.12-19.16,17.84-24.45,37.8-20.74,14.85,2.76,18.57,14,19.43,20.74,0,.29.07.56.1.84A4.06,4.06,0,0,1,213.08,434.52Z"/><path class="cls-7" d="M213.08,434.52H163.71a4.08,4.08,0,0,1-3.9-5.29H217c0,.29.07.56.1.84A4.06,4.06,0,0,1,213.08,434.52Z"/><path class="cls-5" d="M141.52,364.15c-2.27,38.17-16.89,61.22-16.89,61.22l-31.11-1.73a137.69,137.69,0,0,0,20.6-63.18c1.83-26.85-5-45.21-5-45.21h28.34A176.07,176.07,0,0,1,141.52,364.15Z"/><path class="cls-6" d="M143.06,434.53H93.69a4.08,4.08,0,0,1-3.9-5.3c6.12-19.15,17.84-24.45,37.8-20.74,14.85,2.77,18.57,14,19.43,20.74,0,.29.08.57.1.84A4.07,4.07,0,0,1,143.06,434.53Z"/><path class="cls-7" d="M143.06,434.53H93.69a4.08,4.08,0,0,1-3.9-5.3H147c0,.29.08.57.1.84A4.07,4.07,0,0,1,143.06,434.53Z"/><path class="cls-8" d="M176.49,306.1l-.06.73c-2.67,30-32.65,38.59-58.37,26.23-13.4-6.43-17.66-20.34-16.21-37.24,1.35-15.8,7.69-34.22,16.21-51.6,17.63-35.95,41.83-27,41.83-27C178.65,222.44,181.33,240.08,176.49,306.1Z"/><path class="cls-9" d="M176.43,306.83c-2.67,30-32.65,38.59-58.37,26.23-13.4-6.43-17.66-20.34-16.21-37.24C115.87,291.73,147,286.37,176.43,306.83Z"/><path class="cls-10" d="M154.32,205.7s-5.4,16.14,7.3,16-1.37.35,8.52-15.21S154.32,205.7,154.32,205.7Z"/><path class="cls-9" d="M101.85,295.82s-5.78,26.88-20,38.63c0,0,47.31,44.94,114.4,11.75,0,0-21.53-12.76-19.86-39.37Z"/><path class="cls-5" d="M143,328.46s5.58-.34,9.21,2.77,1,7-1.3,7S143.33,335.81,143,328.46Z"/><path class="cls-5" d="M110.68,264.59s-6.75,17.89-3.38,28.27,18.11,44.59,21.63,47.44.41,5.45,3.52,9.34,9.86,9.85,14.26,5.18,12.71-13.48,11.67-15.81-8.81-6.23-13-8.3S126.49,304.78,126,295.45s4.9-21.95,4.9-21.95S119,258.36,110.68,264.59Z"/><path class="cls-6" d="M129.24,222.12a18.81,18.81,0,0,1,13.35-6.2c4.56-.14,9.81.18,12.42,2,5.19,3.63-9.07,39.67-10.37,47.19s-4.15,11.67-10.37,9.6-34.74-13-32.41-18.67C103.9,251.06,117.4,235.21,129.24,222.12Z"/><path class="cls-5" d="M122.32,188.56s16.33,27.39,52.37,27.7,44.86-29,44.6-36.51-8-17.11-2.85-30.34,7.78-19.18,5.44-34.74-5.44-34.74-25.15-39.15-64.82,7-76.23,22-19.44,44.85-13.22,63.26S122.32,188.56,122.32,188.56Z"/><path class="cls-11" d="M158.41,60.22S172.15,49.85,176,42.07s13.23-10.11,21.26,1,20.49,24.37,27.75,27.74,11.4,49.52-5.71,71.56c0,0,9.08-28.78-13.22-48.48S158.41,60.22,158.41,60.22Z"/><path class="cls-12" d="M182.51,54.53s22.29-6.9,20.27,3.89S188.9,75.38,182,68.2,175.25,56.2,182.51,54.53Z"/><path class="cls-13" d="M184.12,66.53s8.14,13.24-5.7,15.36S166,71.63,173.78,65.66,184.12,66.53,184.12,66.53Z"/><path class="cls-12" d="M173.78,65.66S162.41,84.53,152,68.14s17.12-15,19.4-11.41S173.78,65.66,173.78,65.66Z"/><path class="cls-13" d="M170.08,59.4S150.89,52.46,163,42.14s25.15,2.45,17,19.2S170.08,59.4,170.08,59.4Z"/><ellipse class="cls-14" cx="175.26" cy="63.24" rx="7.11" ry="10.52" transform="translate(4.07 136.79) rotate(-43.09)"/><path class="cls-15" d="M115.77,67.57S149.65,39.22,196,60.65s37.33,51.17,32.15,52.2-16.25,0-21.78-14.86c0,0,2.76,11.41-5.88,11.75s-18,3.46-31.8-6.91l1.38,5.88s-34.57-2.42-27.66,13.13,12.45,46.51-4.49,65.95c0,0,12.83-38.71-.56-46-9.12-4.94-23.41,25-5.78,57.52,0,0-61.07-36.7-43.79-87.87S115.77,67.57,115.77,67.57Z"/><path class="cls-15" d="M104.62,74.56S84.83,54.78,66.68,64.11s-13,41-28.78,53.41-16.33,58.34,8,91.53c0,0-12-42.49,7.76-65.82a19.13,19.13,0,0,1,12.61-6.57c5.55-.59,15.09-3.87,25.78-17.45C109,97.82,104.62,74.56,104.62,74.56Z"/><path class="cls-5" d="M142.64,150.68s-3.73-13.48-11.25-13-15,7.52-10.63,23.33,15.56,13,15.56,13"/><path d="M142.64,150.68a32.71,32.71,0,0,0-3.89-7.83,14.08,14.08,0,0,0-2.89-3.16,6.48,6.48,0,0,0-3.77-1.47,11.83,11.83,0,0,0-4.08.83,10.76,10.76,0,0,0-3.56,2.17,12.77,12.77,0,0,0-1.43,1.51,13.07,13.07,0,0,0-1.12,1.76l-.48.94-.36,1a13.93,13.93,0,0,0-.55,2,23.08,23.08,0,0,0,0,8.53,33.31,33.31,0,0,0,2.36,8.31,15.69,15.69,0,0,0,5.2,6.7,11.57,11.57,0,0,0,8.24,2,11.52,11.52,0,0,1-8.6-1.48,16.42,16.42,0,0,1-5.76-6.81,31.77,31.77,0,0,1-2.68-8.54,24.1,24.1,0,0,1-.07-9,14.11,14.11,0,0,1,.62-2.2l.4-1.08.53-1a14.58,14.58,0,0,1,1.25-1.94,12.72,12.72,0,0,1,1.62-1.66,12,12,0,0,1,4-2.32,12.21,12.21,0,0,1,4.54-.76,7.47,7.47,0,0,1,4.24,1.84,14.7,14.7,0,0,1,2.91,3.45A30.08,30.08,0,0,1,142.64,150.68Z"/><ellipse class="cls-10" cx="133.03" cy="155.96" rx="6.62" ry="9.07"/><ellipse class="cls-16" cx="205.4" cy="149.33" rx="9.05" ry="12" transform="translate(-10.18 15.11) rotate(-4.11)"/><ellipse cx="202.34" cy="149.39" rx="5.44" ry="7.21" transform="translate(-10.19 14.89) rotate(-4.11)"/><ellipse class="cls-16" cx="200" cy="148.15" rx="1.67" ry="2.21" transform="translate(-10.1 14.72) rotate(-4.11)"/><path class="cls-11" d="M207,137.53s.53,1.83,3.63,2.89a4.26,4.26,0,0,0,4.87-1.61c-2.73,1.21-3.34,0-3.34,0,1.82,0,3.34-4.08,3.34-4.08-2.29,3.32-8.5,2.8-8.5,2.8s-6.27-2-9.51,5.53a11.07,11.07,0,0,1,12-4.16Z"/><path class="cls-11" d="M197.59,143s3.79-6.34,13.58-2.52h0l-2.22-2.4-4.15-.17-3.33,1.38-2.16,1.47L197.59,143"/><ellipse class="cls-16" cx="176.7" cy="149.33" rx="9.05" ry="12" transform="translate(-10.25 13.05) rotate(-4.11)"/><ellipse cx="173.64" cy="149.39" rx="5.44" ry="7.21" transform="translate(-10.26 12.83) rotate(-4.11)"/><ellipse class="cls-16" cx="171.3" cy="148.15" rx="1.67" ry="2.21" transform="matrix(1, -0.07, 0.07, 1, -10.18, 12.66)"/><path class="cls-11" d="M178.3,137.53s.53,1.83,3.63,2.89a4.26,4.26,0,0,0,4.87-1.61c-2.73,1.21-3.34,0-3.34,0,1.82,0,3.34-4.08,3.34-4.08-2.3,3.32-8.5,2.8-8.5,2.8s-6.27-2-9.51,5.53a11.07,11.07,0,0,1,12-4.16Z"/><path class="cls-11" d="M168.89,143s3.78-6.34,13.58-2.52h0l-2.22-2.4-4.15-.17-3.33,1.38-2.16,1.47L168.89,143"/><path class="cls-15" d="M183.51,120.89V130s-10.77-10.74-29.82,3.89C153.69,133.86,158.36,117.52,183.51,120.89Z"/><path class="cls-15" d="M197.25,121.67v7.78s10.78-12.86,25,2.13C222.22,131.58,216.44,112.6,197.25,121.67Z"/><path class="cls-5" d="M196.36,155.38a29.41,29.41,0,0,0,8.55,11c6,4.57-8,12.75-18.66,9.18"/><path d="M196.36,155.38a38.66,38.66,0,0,0,6.14,7.77c.6.56,1.21,1.09,1.83,1.61l1,.74c.15.11.35.28.54.44a4,4,0,0,1,.55.54,3.8,3.8,0,0,1,.79,1.44,3.68,3.68,0,0,1,.05,1.68,5.76,5.76,0,0,1-1.42,2.65,16.84,16.84,0,0,1-9.46,4.48,17.28,17.28,0,0,1-10.09-1.19,22.37,22.37,0,0,0,9.78-.33,22.88,22.88,0,0,0,4.53-1.64,12.47,12.47,0,0,0,3.77-2.65,3.85,3.85,0,0,0,1-1.7,1.71,1.71,0,0,0-.4-1.55,2.17,2.17,0,0,0-.32-.37l-.42-.37-1-.86-.93-.9-.87-.95A24.63,24.63,0,0,1,196.36,155.38Z"/><path d="M204.46,182.39s-11.38,13.52-27.77-1.4c0,0,9.92,16.66,27.2,5.5C203.89,186.49,204.92,185.73,204.46,182.39Z"/><path class="cls-12" d="M90.38,76.12S76.16,57.61,87,55.76s20.72,7.11,16.39,16.08S94.47,82.34,90.38,76.12Z"/><path class="cls-13" d="M101.07,70.43s9.58-12.24,16.39,0-5.31,15.21-13.61,10S101.07,70.43,101.07,70.43Z"/><path class="cls-12" d="M103.85,80.43s21.65,4.09,9.9,19.56-20-10.83-17.44-14.23S103.85,80.43,103.85,80.43Z"/><path class="cls-13" d="M99.27,86.07s.16,20.41-13.71,12.68S79.11,74.32,97.67,76.18,99.27,86.07,99.27,86.07Z"/><ellipse class="cls-14" cx="101.07" cy="79.88" rx="10.52" ry="7.11" transform="translate(-15.57 134.58) rotate(-63.45)"/></g></g></g></svg>