<svg xmlns="http://www.w3.org/2000/svg" xmlns:xlink="http://www.w3.org/1999/xlink" viewBox="0 0 1151.72 545.7"><defs><style>.cls-1{fill-rule:evenodd;fill:url(#Áåçûìÿííûé_ãðàäèåíò_79);}.cls-2,.cls-6{fill:#fff;}.cls-14,.cls-3{fill:#d9e021;}.cls-12,.cls-13,.cls-14,.cls-3,.cls-4,.cls-5{stroke:#fff;stroke-miterlimit:10;}.cls-3,.cls-4,.cls-5{stroke-width:10px;}.cls-12,.cls-4{fill:#d4145a;}.cls-13,.cls-5{fill:#2ee8e8;}.cls-11,.cls-6,.cls-7,.cls-8{font-size:32px;}.cls-10,.cls-6,.cls-7,.cls-8{font-family:Poppins-Bold, Poppins;font-weight:700;}.cls-7,.cls-8{fill:#534741;}.cls-7{letter-spacing:-0.02em;}.cls-9{font-size:30px;font-family:Poppins-Medium, Poppins;font-weight:500;}.cls-11,.cls-9{fill:#a0343b;}.cls-11{font-family:Poppins-SemiBold, Poppins;font-weight:600;}.cls-12,.cls-13,.cls-14{stroke-width:4px;}</style><radialGradient id="Áåçûìÿííûé_ãðàäèåíò_79" cx="570.18" cy="240.17" r="521.88" gradientUnits="userSpaceOnUse"><stop offset="0" stop-color="#ffdb9a"/><stop offset="1" stop-color="#ff9f74"/></radialGradient></defs><title>message box text</title><g id="Layer_2" data-name="Layer 2"><g id="Layer_15" data-name="Layer 15"><path class="cls-1" d="M81.26,476.33A77.35,77.35,0,0,1,4,399.07V92.48A77.35,77.35,0,0,1,81.26,15.22h852A76.48,76.48,0,0,1,981.41,32a4,4,0,0,0,4.86.1,4.32,4.32,0,0,0,.39-.34C990.53,29,1026.11,4,1070.89,4c23.29,0,45.25,6.68,65.47,19.89-5.48-.55-12.09-1-19.39-1-33.85,0-92.68,9.93-106.32,76.41a3.56,3.56,0,0,0-.08.8v299a77.35,77.35,0,0,1-77.27,77.26Z"/><path class="cls-2" d="M1070.89,8a112.07,112.07,0,0,1,48.46,10.92l-2.38,0c-60.55,0-99.7,28.27-110.24,79.6a7.92,7.92,0,0,0-.16,1.61v299a73.35,73.35,0,0,1-73.27,73.26h-852A73.35,73.35,0,0,1,8,399.07V92.48A73.34,73.34,0,0,1,81.26,19.22h852a72.42,72.42,0,0,1,45.61,16,8,8,0,0,0,9.68.2c.16-.11.31-.23.46-.35,3.62-2.64,38.31-27,81.84-27m0-8c-49.23,0-87,28.88-87,28.88v0a80.94,80.94,0,0,0-50.6-17.69h-852A81.26,81.26,0,0,0,0,92.48V399.07a81.26,81.26,0,0,0,81.26,81.26h852a81.27,81.27,0,0,0,81.27-81.26v-299c12.76-62.17,66.12-73.21,102.4-73.21a174,174,0,0,1,34.75,3.35C1124.12,7.52,1096,0,1070.89,0Z"/><path class="cls-3" d="M452.38,182.17,259.69,244.29V41.9C349.8,41.9,426.15,100.79,452.38,182.17Z"/><path class="cls-4" d="M259.69,41.9V446.69c-111.78,0-202.4-90.61-202.4-202.39S147.91,41.9,259.69,41.9Z"/><path class="cls-5" d="M462.09,244.3c0,111.78-90.62,202.39-202.4,202.39V244.29l192.69-62.12A202.52,202.52,0,0,1,462.09,244.3Z"/><text class="cls-6" transform="translate(115.23 263.84)">NEEDS</text><text class="cls-7" transform="translate(277.28 160.1)">SAVINGS</text><text class="cls-8" transform="translate(288.56 321.55)">WANTS</text><text class="cls-9" transform="translate(559.01 222.05)">Use one half for <tspan class="cls-10" x="241.86" y="0">NEEDS</tspan><tspan x="337.13" y="0">.</tspan><tspan x="0" y="72">More than half of the other </tspan><tspan x="0" y="108">part is for </tspan><tspan class="cls-10" x="151.32" y="108">WANTS</tspan><tspan x="263.73" y="108">.</tspan><tspan x="0" y="180">The rest for </tspan><tspan class="cls-10" x="176.13" y="180">SAVINGS</tspan><tspan x="311.3" y="180">.</tspan></text><text class="cls-11" transform="translate(532.8 111.92)">Most suitable way to spend <tspan x="0" y="38.4">the allowances is to :</tspan></text><circle class="cls-12" cx="526.81" cy="210.11" r="13.17"/><circle class="cls-13" cx="526.81" cy="286.34" r="13.17"/><circle class="cls-14" cx="526.81" cy="391.66" r="13.17"/></g></g></svg>