<svg xmlns="http://www.w3.org/2000/svg" xmlns:xlink="http://www.w3.org/1999/xlink" viewBox="0 0 1189.21 713.61"><defs><style>.cls-1{isolation:isolate;}.cls-10,.cls-100,.cls-101,.cls-102,.cls-104,.cls-106,.cls-11,.cls-12,.cls-13,.cls-14,.cls-15,.cls-16,.cls-17,.cls-18,.cls-19,.cls-2,.cls-20,.cls-21,.cls-22,.cls-23,.cls-24,.cls-25,.cls-26,.cls-27,.cls-28,.cls-29,.cls-3,.cls-30,.cls-31,.cls-32,.cls-33,.cls-34,.cls-35,.cls-36,.cls-37,.cls-38,.cls-39,.cls-4,.cls-40,.cls-41,.cls-42,.cls-43,.cls-44,.cls-45,.cls-46,.cls-47,.cls-48,.cls-49,.cls-5,.cls-50,.cls-51,.cls-52,.cls-53,.cls-54,.cls-55,.cls-56,.cls-57,.cls-58,.cls-59,.cls-6,.cls-60,.cls-61,.cls-62,.cls-63,.cls-64,.cls-65,.cls-66,.cls-67,.cls-68,.cls-69,.cls-7,.cls-70,.cls-71,.cls-72,.cls-73,.cls-74,.cls-75,.cls-76,.cls-77,.cls-78,.cls-79,.cls-8,.cls-80,.cls-81,.cls-82,.cls-83,.cls-84,.cls-85,.cls-86,.cls-87,.cls-88,.cls-89,.cls-9,.cls-90,.cls-91,.cls-92,.cls-93,.cls-94,.cls-95,.cls-96,.cls-97,.cls-98,.cls-99{fill-rule:evenodd;}.cls-2{fill:url(#Áåçûìÿííûé_ãðàäèåíò_29);}.cls-3{fill:url(#Áåçûìÿííûé_ãðàäèåíò_59);}.cls-4{fill:url(#Áåçûìÿííûé_ãðàäèåíò_59-2);}.cls-5{fill:url(#Áåçûìÿííûé_ãðàäèåíò_59-3);}.cls-6{fill:#ff7c30;}.cls-7{fill:url(#Áåçûìÿííûé_ãðàäèåíò_30);}.cls-8{fill:url(#Áåçûìÿííûé_ãðàäèåíò_59-4);}.cls-9{fill:url(#Áåçûìÿííûé_ãðàäèåíò_59-5);}.cls-10,.cls-11,.cls-12,.cls-13,.cls-14,.cls-15,.cls-38,.cls-39,.cls-40,.cls-41,.cls-42,.cls-43,.cls-63,.cls-64,.cls-65,.cls-66,.cls-67,.cls-80,.cls-81,.cls-82,.cls-83,.cls-84{opacity:0.47;}.cls-10,.cls-100,.cls-101,.cls-102,.cls-103,.cls-11,.cls-12,.cls-13,.cls-14,.cls-15,.cls-16,.cls-17,.cls-18,.cls-19,.cls-20,.cls-21,.cls-22,.cls-23,.cls-24,.cls-25,.cls-26,.cls-27,.cls-28,.cls-29,.cls-30,.cls-38,.cls-39,.cls-40,.cls-41,.cls-42,.cls-43,.cls-44,.cls-45,.cls-46,.cls-47,.cls-48,.cls-49,.cls-50,.cls-51,.cls-52,.cls-53,.cls-54,.cls-55,.cls-56,.cls-57,.cls-58,.cls-63,.cls-64,.cls-65,.cls-66,.cls-67,.cls-68,.cls-69,.cls-70,.cls-71,.cls-72,.cls-73,.cls-74,.cls-75,.cls-80,.cls-81,.cls-82,.cls-83,.cls-84,.cls-85,.cls-86,.cls-87,.cls-88,.cls-89,.cls-90,.cls-91,.cls-92,.cls-93,.cls-97,.cls-98,.cls-99{mix-blend-mode:multiply;}.cls-10{fill:url(#Áåçûìÿííûé_ãðàäèåíò_81);}.cls-11{fill:url(#Áåçûìÿííûé_ãðàäèåíò_81-2);}.cls-12{fill:url(#Áåçûìÿííûé_ãðàäèåíò_81-3);}.cls-13{fill:url(#Áåçûìÿííûé_ãðàäèåíò_81-4);}.cls-14{fill:url(#Áåçûìÿííûé_ãðàäèåíò_81-5);}.cls-15{fill:url(#Áåçûìÿííûé_ãðàäèåíò_81-6);}.cls-100,.cls-101,.cls-102,.cls-16,.cls-17,.cls-18,.cls-19,.cls-20,.cls-21,.cls-22,.cls-23,.cls-24,.cls-25,.cls-26,.cls-27,.cls-28,.cls-29,.cls-30,.cls-44,.cls-45,.cls-46,.cls-47,.cls-48,.cls-49,.cls-50,.cls-51,.cls-52,.cls-53,.cls-54,.cls-55,.cls-56,.cls-57,.cls-58,.cls-68,.cls-69,.cls-70,.cls-71,.cls-72,.cls-73,.cls-74,.cls-75,.cls-85,.cls-86,.cls-87,.cls-88,.cls-89,.cls-90,.cls-91,.cls-92,.cls-93,.cls-97,.cls-98,.cls-99{opacity:0.8;}.cls-16{fill:url(#Áåçûìÿííûé_ãðàäèåíò_81-7);}.cls-17{fill:url(#Áåçûìÿííûé_ãðàäèåíò_81-8);}.cls-18{fill:url(#Áåçûìÿííûé_ãðàäèåíò_81-9);}.cls-19{fill:url(#Áåçûìÿííûé_ãðàäèåíò_81-10);}.cls-20{fill:url(#Áåçûìÿííûé_ãðàäèåíò_81-11);}.cls-21{fill:url(#Áåçûìÿííûé_ãðàäèåíò_81-12);}.cls-22{fill:url(#Áåçûìÿííûé_ãðàäèåíò_81-13);}.cls-23{fill:url(#Áåçûìÿííûé_ãðàäèåíò_81-14);}.cls-24{fill:url(#Áåçûìÿííûé_ãðàäèåíò_81-15);}.cls-25{fill:url(#Áåçûìÿííûé_ãðàäèåíò_81-16);}.cls-26{fill:url(#Áåçûìÿííûé_ãðàäèåíò_81-17);}.cls-27{fill:url(#Áåçûìÿííûé_ãðàäèåíò_80);}.cls-28{fill:url(#Áåçûìÿííûé_ãðàäèåíò_80-2);}.cls-29{fill:url(#Áåçûìÿííûé_ãðàäèåíò_80-3);}.cls-30{fill:url(#Áåçûìÿííûé_ãðàäèåíò_81-18);}.cls-31{fill:url(#Áåçûìÿííûé_ãðàäèåíò_29-2);}.cls-32{fill:url(#Áåçûìÿííûé_ãðàäèåíò_59-6);}.cls-33{fill:url(#Áåçûìÿííûé_ãðàäèåíò_59-7);}.cls-34{fill:url(#Áåçûìÿííûé_ãðàäèåíò_59-8);}.cls-35{fill:url(#Áåçûìÿííûé_ãðàäèåíò_30-2);}.cls-36{fill:url(#Áåçûìÿííûé_ãðàäèåíò_59-9);}.cls-37{fill:url(#Áåçûìÿííûé_ãðàäèåíò_59-10);}.cls-38{fill:url(#Áåçûìÿííûé_ãðàäèåíò_81-19);}.cls-39{fill:url(#Áåçûìÿííûé_ãðàäèåíò_81-20);}.cls-40{fill:url(#Áåçûìÿííûé_ãðàäèåíò_81-21);}.cls-41{fill:url(#Áåçûìÿííûé_ãðàäèåíò_81-22);}.cls-42{fill:url(#Áåçûìÿííûé_ãðàäèåíò_81-23);}.cls-43{fill:url(#Áåçûìÿííûé_ãðàäèåíò_81-24);}.cls-44{fill:url(#Áåçûìÿííûé_ãðàäèåíò_81-25);}.cls-45{fill:url(#Áåçûìÿííûé_ãðàäèåíò_81-26);}.cls-46{fill:url(#Áåçûìÿííûé_ãðàäèåíò_81-27);}.cls-47{fill:url(#Áåçûìÿííûé_ãðàäèåíò_81-28);}.cls-48{fill:url(#Áåçûìÿííûé_ãðàäèåíò_81-29);}.cls-49{fill:url(#Áåçûìÿííûé_ãðàäèåíò_81-30);}.cls-50{fill:url(#Áåçûìÿííûé_ãðàäèåíò_81-31);}.cls-51{fill:url(#Áåçûìÿííûé_ãðàäèåíò_81-32);}.cls-52{fill:url(#Áåçûìÿííûé_ãðàäèåíò_81-33);}.cls-53{fill:url(#Áåçûìÿííûé_ãðàäèåíò_81-34);}.cls-54{fill:url(#Áåçûìÿííûé_ãðàäèåíò_81-35);}.cls-55{fill:url(#Áåçûìÿííûé_ãðàäèåíò_80-4);}.cls-56{fill:url(#Áåçûìÿííûé_ãðàäèåíò_80-5);}.cls-57{fill:url(#Áåçûìÿííûé_ãðàäèåíò_80-6);}.cls-58{fill:url(#Áåçûìÿííûé_ãðàäèåíò_81-36);}.cls-59{fill:url(#Áåçûìÿííûé_ãðàäèåíò_29-3);}.cls-60{fill:url(#Áåçûìÿííûé_ãðàäèåíò_59-11);}.cls-61{fill:url(#Áåçûìÿííûé_ãðàäèåíò_59-12);}.cls-62{fill:url(#Áåçûìÿííûé_ãðàäèåíò_59-13);}.cls-63{fill:url(#Áåçûìÿííûé_ãðàäèåíò_81-37);}.cls-64{fill:url(#Áåçûìÿííûé_ãðàäèåíò_81-38);}.cls-65{fill:url(#Áåçûìÿííûé_ãðàäèåíò_81-39);}.cls-66{fill:url(#Áåçûìÿííûé_ãðàäèåíò_81-40);}.cls-67{fill:url(#Áåçûìÿííûé_ãðàäèåíò_81-41);}.cls-68{fill:url(#Áåçûìÿííûé_ãðàäèåíò_81-42);}.cls-69{fill:url(#Áåçûìÿííûé_ãðàäèåíò_81-43);}.cls-70{fill:url(#Áåçûìÿííûé_ãðàäèåíò_81-44);}.cls-71{fill:url(#Áåçûìÿííûé_ãðàäèåíò_81-45);}.cls-72{fill:url(#Áåçûìÿííûé_ãðàäèåíò_80-7);}.cls-73{fill:url(#Áåçûìÿííûé_ãðàäèåíò_80-8);}.cls-74{fill:url(#Áåçûìÿííûé_ãðàäèåíò_80-9);}.cls-75{fill:url(#Áåçûìÿííûé_ãðàäèåíò_81-46);}.cls-76{fill:url(#Áåçûìÿííûé_ãðàäèåíò_29-4);}.cls-77{fill:url(#Áåçûìÿííûé_ãðàäèåíò_59-14);}.cls-78{fill:url(#Áåçûìÿííûé_ãðàäèåíò_59-15);}.cls-79{fill:url(#Áåçûìÿííûé_ãðàäèåíò_59-16);}.cls-80{fill:url(#Áåçûìÿííûé_ãðàäèåíò_81-47);}.cls-81{fill:url(#Áåçûìÿííûé_ãðàäèåíò_81-48);}.cls-82{fill:url(#Áåçûìÿííûé_ãðàäèåíò_81-49);}.cls-83{fill:url(#Áåçûìÿííûé_ãðàäèåíò_81-50);}.cls-84{fill:url(#Áåçûìÿííûé_ãðàäèåíò_81-51);}.cls-85{fill:url(#Áåçûìÿííûé_ãðàäèåíò_81-52);}.cls-86{fill:url(#Áåçûìÿííûé_ãðàäèåíò_81-53);}.cls-87{fill:url(#Áåçûìÿííûé_ãðàäèåíò_81-54);}.cls-88{fill:url(#Áåçûìÿííûé_ãðàäèåíò_81-55);}.cls-89{fill:url(#Áåçûìÿííûé_ãðàäèåíò_80-10);}.cls-90{fill:url(#Áåçûìÿííûé_ãðàäèåíò_80-11);}.cls-91{fill:url(#Áåçûìÿííûé_ãðàäèåíò_80-12);}.cls-92{fill:url(#Áåçûìÿííûé_ãðàäèåíò_81-56);}.cls-93{fill:url(#Áåçûìÿííûé_ãðàäèåíò_80-13);}.cls-94{fill:#a0343b;}.cls-95{fill:url(#Áåçûìÿííûé_ãðàäèåíò_79);}.cls-96{fill:#d6523b;}.cls-97{fill:url(#Áåçûìÿííûé_ãðàäèåíò_81-57);}.cls-98{fill:url(#Áåçûìÿííûé_ãðàäèåíò_81-58);}.cls-99{fill:url(#Áåçûìÿííûé_ãðàäèåíò_80-14);}.cls-100{fill:url(#Áåçûìÿííûé_ãðàäèåíò_80-15);}.cls-101{fill:url(#Áåçûìÿííûé_ãðàäèåíò_80-16);}.cls-102{fill:url(#Áåçûìÿííûé_ãðàäèåíò_81-59);}.cls-103{opacity:0.3;}.cls-104{fill:#cc908e;}.cls-105{opacity:0.5;mix-blend-mode:soft-light;}.cls-106{fill:#faf5f5;}.cls-107{font-size:64px;fill:#7c222a;font-family:Cocogoose;}.cls-108{letter-spacing:-0.02em;}.cls-109{letter-spacing:-0.14em;}</style><linearGradient id="Áåçûìÿííûé_ãðàäèåíò_29" x1="272.64" y1="1102.57" x2="272.64" y2="386.61" gradientTransform="translate(1114.29 -213.27) rotate(90)" gradientUnits="userSpaceOnUse"><stop offset="0" stop-color="#d65629"/><stop offset="1" stop-color="#ff914f"/></linearGradient><radialGradient id="Áåçûìÿííûé_ãðàäèåíò_59" cx="274.33" cy="632.81" r="17.14" gradientTransform="translate(1114.29 -213.27) rotate(90)" gradientUnits="userSpaceOnUse"><stop offset="0" stop-color="#ff6e31"/><stop offset="1" stop-color="#d64a29"/></radialGradient><radialGradient id="Áåçûìÿííûé_ãðàäèåíò_59-2" cx="271.22" cy="881.65" r="17.39" xlink:href="#Áåçûìÿííûé_ãðàäèåíò_59"/><radialGradient id="Áåçûìÿííûé_ãðàäèåíò_59-3" cx="277.44" cy="387.13" r="17.7" xlink:href="#Áåçûìÿííûé_ãðàäèåíò_59"/><linearGradient id="Áåçûìÿííûé_ãðàäèåíò_30" x1="280.14" y1="380.23" x2="280.14" y2="-74.91" gradientTransform="translate(1114.29 -213.27) rotate(90)" gradientUnits="userSpaceOnUse"><stop offset="0" stop-color="#ff914f"/><stop offset="1" stop-color="#d65629"/></linearGradient><radialGradient id="Áåçûìÿííûé_ãðàäèåíò_59-4" cx="283.08" cy="-70.09" r="16.88" xlink:href="#Áåçûìÿííûé_ãðàäèåíò_59"/><radialGradient id="Áåçûìÿííûé_ãðàäèåíò_59-5" cx="280.1" cy="168.66" r="16.9" xlink:href="#Áåçûìÿííûé_ãðàäèåíò_59"/><linearGradient id="Áåçûìÿííûé_ãðàäèåíò_81" x1="250.43" y1="636.33" x2="298.15" y2="636.33" gradientTransform="translate(1114.29 -213.27) rotate(90)" gradientUnits="userSpaceOnUse"><stop offset="0" stop-color="#fff"/><stop offset="1" stop-color="#cc6670"/></linearGradient><linearGradient id="Áåçûìÿííûé_ãðàäèåíò_81-2" x1="250.53" y1="625.43" x2="298.22" y2="625.43" xlink:href="#Áåçûìÿííûé_ãðàäèåíò_81"/><linearGradient id="Áåçûìÿííûé_ãðàäèåíò_81-3" x1="247.14" y1="885.15" x2="295.23" y2="885.15" xlink:href="#Áåçûìÿííûé_ãðàäèåíò_81"/><linearGradient id="Áåçûìÿííûé_ãðàäèåíò_81-4" x1="247.25" y1="875.73" x2="295.3" y2="875.73" xlink:href="#Áåçûìÿííûé_ãðàäèåíò_81"/><linearGradient id="Áåçûìÿííûé_ãðàäèåíò_81-5" x1="253.73" y1="394.6" x2="300.97" y2="394.6" xlink:href="#Áåçûìÿííûé_ãðàäèåíò_81"/><linearGradient id="Áåçûìÿííûé_ãðàäèåíò_81-6" x1="253.83" y1="374.44" x2="301.15" y2="374.44" xlink:href="#Áåçûìÿííûé_ãðàäèåíò_81"/><linearGradient id="Áåçûìÿííûé_ãðàäèåíò_81-7" x1="290.05" y1="876.64" x2="290.05" y2="634.41" xlink:href="#Áåçûìÿííûé_ãðàäèåíò_81"/><linearGradient id="Áåçûìÿííûé_ãðàäèåíò_81-8" x1="294.25" y1="628.71" x2="294.25" y2="402.59" xlink:href="#Áåçûìÿííûé_ãðàäèåíò_81"/><linearGradient id="Áåçûìÿííûé_ãðàäèåíò_81-9" x1="285.73" y1="1098.72" x2="285.73" y2="882.42" xlink:href="#Áåçûìÿííûé_ãðàäèåíò_81"/><linearGradient id="Áåçûìÿííûé_ãðàäèåíò_81-10" x1="295.96" y1="368.66" x2="295.96" y2="172.72" xlink:href="#Áåçûìÿííûé_ãðàäèåíò_81"/><linearGradient id="Áåçûìÿííûé_ãðàäèåíò_81-11" x1="299.82" y1="167.18" x2="299.82" y2="-65.27" xlink:href="#Áåçûìÿííûé_ãðàäèåíò_81"/><linearGradient id="Áåçûìÿííûé_ãðàäèåíò_81-12" x1="271.2" y1="59.05" x2="271.2" y2="-67.05" xlink:href="#Áåçûìÿííûé_ãðàäèåíò_81"/><linearGradient id="Áåçûìÿííûé_ãðàäèåíò_81-13" x1="293.55" y1="-47.06" x2="293.55" y2="-66.3" xlink:href="#Áåçûìÿííûé_ãðàäèåíò_81"/><linearGradient id="Áåçûìÿííûé_ãðàäèåíò_81-14" x1="258.54" y1="163.18" x2="303.66" y2="163.18" xlink:href="#Áåçûìÿííûé_ãðàäèåíò_81"/><linearGradient id="Áåçûìÿííûé_ãðàäèåíò_81-15" x1="256.55" y1="173.45" x2="303.59" y2="173.45" xlink:href="#Áåçûìÿííûé_ãðàäèåíò_81"/><linearGradient id="Áåçûìÿííûé_ãðàäèåíò_81-16" x1="270.89" y1="320.12" x2="275.93" y2="320.12" xlink:href="#Áåçûìÿííûé_ãðàäèåíò_81"/><linearGradient id="Áåçûìÿííûé_ãðàäèåíò_81-17" x1="144.91" y1="560.65" x2="144.91" y2="416.75" gradientTransform="matrix(-0.04, 0.67, -1, -0.05, 1133.46, -10.08)" xlink:href="#Áåçûìÿííûé_ãðàäèåíò_81"/><linearGradient id="Áåçûìÿííûé_ãðàäèåíò_80" x1="261.17" y1="629.19" x2="261.17" y2="570.15" gradientTransform="translate(1114.29 -213.27) rotate(90)" gradientUnits="userSpaceOnUse"><stop offset="0" stop-color="#cc6670"/><stop offset="1" stop-color="#fff"/></linearGradient><linearGradient id="Áåçûìÿííûé_ãðàäèåíò_80-2" x1="286.96" y1="876.64" x2="286.96" y2="793.11" xlink:href="#Áåçûìÿííûé_ãðàäèåíò_80"/><linearGradient id="Áåçûìÿííûé_ãðàäèåíò_80-3" x1="259.86" y1="878.52" x2="259.86" y2="840.45" xlink:href="#Áåçûìÿííûé_ãðàäèåíò_80"/><linearGradient id="Áåçûìÿííûé_ãðàäèåíò_81-18" x1="277.58" y1="913.32" x2="277.58" y2="883.85" xlink:href="#Áåçûìÿííûé_ãðàäèåíò_81"/><linearGradient id="Áåçûìÿííûé_ãðàäèåíò_29-2" x1="878.74" y1="948.49" x2="878.74" y2="311.41" gradientTransform="matrix(0, 1, 1, 0, 173.85, -213.27)" xlink:href="#Áåçûìÿííûé_ãðàäèåíò_29"/><radialGradient id="Áåçûìÿííûé_ãðàäèåíò_59-6" cx="879.06" cy="536" r="14.24" gradientTransform="matrix(0, 1, 1, 0, 173.85, -213.27)" xlink:href="#Áåçûìÿííûé_ãðàäèåíò_59"/><radialGradient id="Áåçûìÿííûé_ãðàäèåíò_59-7" cx="877.93" cy="757.11" r="14.24" gradientTransform="matrix(0, 1, 1, 0, 173.85, -213.27)" xlink:href="#Áåçûìÿííûé_ãðàäèåíò_59"/><radialGradient id="Áåçûìÿííûé_ãðàäèåíò_59-8" cx="880.23" cy="311.64" r="14.95" gradientTransform="matrix(0, 1, 1, 0, 173.85, -213.27)" xlink:href="#Áåçûìÿííûé_ãðàäèåíò_59"/><linearGradient id="Áåçûìÿííûé_ãðàäèåíò_30-2" x1="881.47" y1="305" x2="881.47" y2="-127.14" gradientTransform="matrix(0, 1, 1, 0, 173.85, -213.27)" xlink:href="#Áåçûìÿííûé_ãðàäèåíò_30"/><radialGradient id="Áåçûìÿííûé_ãðàäèåíò_59-9" cx="882.44" cy="-122.83" r="14.55" gradientTransform="matrix(0, 1, 1, 0, 173.85, -213.27)" xlink:href="#Áåçûìÿííûé_ãðàäèåíò_59"/><radialGradient id="Áåçûìÿííûé_ãðàäèåíò_59-10" cx="881.26" cy="106.86" r="14.36" gradientTransform="matrix(0, 1, 1, 0, 173.85, -213.27)" xlink:href="#Áåçûìÿííûé_ãðàäèåíò_59"/><linearGradient id="Áåçûìÿííûé_ãðàäèåíò_81-19" x1="859.3" y1="539.12" x2="898.79" y2="539.12" gradientTransform="matrix(0, 1, 1, 0, 173.85, -213.27)" xlink:href="#Áåçûìÿííûé_ãðàäèåíò_81"/><linearGradient id="Áåçûìÿííûé_ãðàäèåíò_81-20" x1="859.34" y1="529.43" x2="898.82" y2="529.43" gradientTransform="matrix(0, 1, 1, 0, 173.85, -213.27)" xlink:href="#Áåçûìÿííûé_ãðàäèåíò_81"/><linearGradient id="Áåçûìÿííûé_ãðàäèåíò_81-21" x1="858.29" y1="760.14" x2="897.53" y2="760.14" gradientTransform="matrix(0, 1, 1, 0, 173.85, -213.27)" xlink:href="#Áåçûìÿííûé_ãðàäèåíò_81"/><linearGradient id="Áåçûìÿííûé_ãðàäèåíò_81-22" x1="858.33" y1="751.94" x2="897.56" y2="751.94" gradientTransform="matrix(0, 1, 1, 0, 173.85, -213.27)" xlink:href="#Áåçûìÿííûé_ãðàäèåíò_81"/><linearGradient id="Áåçûìÿííûé_ãðàäèåíò_81-23" x1="860.35" y1="318.56" x2="900.03" y2="318.56" gradientTransform="matrix(0, 1, 1, 0, 173.85, -213.27)" xlink:href="#Áåçûìÿííûé_ãðàäèåíò_81"/><linearGradient id="Áåçûìÿííûé_ãðàäèåíò_81-24" x1="860.38" y1="299.64" x2="900.11" y2="299.64" gradientTransform="matrix(0, 1, 1, 0, 173.85, -213.27)" xlink:href="#Áåçûìÿííûé_ãðàäèåíò_81"/><linearGradient id="Áåçûìÿííûé_ãðàäèåíò_81-25" x1="892.4" y1="752.6" x2="892.4" y2="537.27" gradientTransform="matrix(0, 1, 1, 0, 173.85, -213.27)" xlink:href="#Áåçûìÿííûé_ãðàäèåíò_81"/><linearGradient id="Áåçûìÿííûé_ãðàäèåíò_81-26" x1="894.74" y1="532.13" x2="894.74" y2="325.71" gradientTransform="matrix(0, 1, 1, 0, 173.85, -213.27)" xlink:href="#Áåçûìÿííûé_ãðàäèåíò_81"/><linearGradient id="Áåçûìÿííûé_ãðàäèåíò_81-27" x1="890.05" y1="945.08" x2="890.05" y2="757.67" gradientTransform="matrix(0, 1, 1, 0, 173.85, -213.27)" xlink:href="#Áåçûìÿííûé_ãðàäèåíò_81"/><linearGradient id="Áåçûìÿííûé_ãðàäèåíò_81-28" x1="895.03" y1="294.28" x2="895.03" y2="110.4" gradientTransform="matrix(0, 1, 1, 0, 173.85, -213.27)" xlink:href="#Áåçûìÿííûé_ãðàäèåíò_81"/><linearGradient id="Áåçûìÿííûé_ãðàäèåíò_81-29" x1="897.19" y1="105.14" x2="897.19" y2="-118.51" gradientTransform="matrix(0, 1, 1, 0, 173.85, -213.27)" xlink:href="#Áåçûìÿííûé_ãðàäèåíò_81"/><linearGradient id="Áåçûìÿííûé_ãðàäèåíò_81-30" x1="872.49" y1="2.28" x2="872.49" y2="-119.57" gradientTransform="matrix(0, 1, 1, 0, 173.85, -213.27)" xlink:href="#Áåçûìÿííûé_ãðàäèåíò_81"/><linearGradient id="Áåçûìÿííûé_ãðàäèåíò_81-31" x1="891.51" y1="-100.55" x2="891.51" y2="-119.32" gradientTransform="matrix(0, 1, 1, 0, 173.85, -213.27)" xlink:href="#Áåçûìÿííûé_ãðàäèåíò_81"/><linearGradient id="Áåçûìÿííûé_ãðàäèåíò_81-32" x1="862.89" y1="101.35" x2="901.25" y2="101.35" gradientTransform="matrix(0, 1, 1, 0, 173.85, -213.27)" xlink:href="#Áåçûìÿííûé_ãðàäèåíò_81"/><linearGradient id="Áåçûìÿííûé_ãðàäèåíò_81-33" x1="861.26" y1="111.55" x2="901.22" y2="111.55" gradientTransform="matrix(0, 1, 1, 0, 173.85, -213.27)" xlink:href="#Áåçûìÿííûé_ãðàäèåíò_81"/><linearGradient id="Áåçûìÿííûé_ãðàäèåíò_81-34" x1="874.5" y1="249.39" x2="878.49" y2="249.39" gradientTransform="matrix(0, 1, 1, 0, 173.85, -213.27)" xlink:href="#Áåçûìÿííûé_ãðàäèåíò_81"/><linearGradient id="Áåçûìÿííûé_ãðàäèåíò_81-35" x1="1031.15" y1="440.8" x2="1031.15" y2="308.9" gradientTransform="matrix(0.04, 0.67, 1, -0.05, 154.68, -10.08)" xlink:href="#Áåçûìÿííûé_ãðàäèåíò_81"/><linearGradient id="Áåçûìÿííûé_ãðàäèåíò_80-4" x1="867.95" y1="532.87" x2="867.95" y2="479.42" gradientTransform="matrix(0, 1, 1, 0, 173.85, -213.27)" xlink:href="#Áåçûìÿííûé_ãðàäèåíò_80"/><linearGradient id="Áåçûìÿííûé_ãðàäèåíò_80-5" x1="890.52" y1="752.6" x2="890.52" y2="679.09" gradientTransform="matrix(0, 1, 1, 0, 173.85, -213.27)" xlink:href="#Áåçûìÿííûé_ãðàäèåíò_80"/><linearGradient id="Áåçûìÿííûé_ãðàäèåíò_80-6" x1="868.5" y1="754.44" x2="868.5" y2="720.96" gradientTransform="matrix(0, 1, 1, 0, 173.85, -213.27)" xlink:href="#Áåçûìÿííûé_ãðàäèåíò_80"/><linearGradient id="Áåçûìÿííûé_ãðàäèåíò_81-36" x1="883.2" y1="784.8" x2="883.2" y2="758.99" gradientTransform="matrix(0, 1, 1, 0, 173.85, -213.27)" xlink:href="#Áåçûìÿííûé_ãðàäèåíò_81"/><linearGradient id="Áåçûìÿííûé_ãðàäèåíò_29-3" x1="89.75" y1="700.53" x2="89.75" y2="8.25" gradientTransform="matrix(1, 0, 0, 1, 0, 0)" xlink:href="#Áåçûìÿííûé_ãðàäèåíò_29"/><radialGradient id="Áåçûìÿííûé_ãðàäèåíò_59-11" cx="84.54" cy="266.48" r="16.24" gradientTransform="matrix(1, 0, 0, 1, 0, 0)" xlink:href="#Áåçûìÿííûé_ãðàäèåíò_59"/><radialGradient id="Áåçûìÿííûé_ãðàäèåíò_59-12" cx="101.7" cy="505.97" r="15.63" gradientTransform="matrix(1, 0, 0, 1, 0, 0)" xlink:href="#Áåçûìÿííûé_ãðàäèåíò_59"/><radialGradient id="Áåçûìÿííûé_ãðàäèåíò_59-13" cx="66.09" cy="8.56" r="17.95" gradientTransform="matrix(1, 0, 0, 1, 0, 0)" xlink:href="#Áåçûìÿííûé_ãðàäèåíò_59"/><linearGradient id="Áåçûìÿííûé_ãðàäèåíò_81-37" x1="62.47" y1="270.34" x2="107.18" y2="270.34" gradientTransform="matrix(1, 0, 0, 1, 0, 0)" xlink:href="#Áåçûìÿííûé_ãðàäèåíò_81"/><linearGradient id="Áåçûìÿííûé_ãðàäèåíò_81-38" x1="61.89" y1="259.14" x2="106.79" y2="259.14" gradientTransform="matrix(1, 0, 0, 1, 0, 0)" xlink:href="#Áåçûìÿííûé_ãðàäèåíò_81"/><linearGradient id="Áåçûìÿííûé_ãðàäèåíò_81-39" x1="80.41" y1="509.61" x2="123.52" y2="509.61" gradientTransform="matrix(1, 0, 0, 1, 0, 0)" xlink:href="#Áåçûìÿííûé_ãðàäèåíò_81"/><linearGradient id="Áåçûìÿííûé_ãðàäèåíò_81-40" x1="79.88" y1="500.25" x2="123.16" y2="500.25" gradientTransform="matrix(1, 0, 0, 1, 0, 0)" xlink:href="#Áåçûìÿííûé_ãðàäèåíò_81"/><linearGradient id="Áåçûìÿííûé_ãðàäèåíò_81-41" x1="42.81" y1="16.76" x2="89.99" y2="16.76" gradientTransform="matrix(1, 0, 0, 1, 0, 0)" xlink:href="#Áåçûìÿííûé_ãðàäèåíò_81"/><linearGradient id="Áåçûìÿííûé_ãðàäèåíò_81-42" x1="111.51" y1="502.41" x2="111.51" y2="268.69" gradientTransform="matrix(1, 0, 0, 1, 0, 0)" xlink:href="#Áåçûìÿííûé_ãðàäèåíò_81"/><linearGradient id="Áåçûìÿííûé_ãðàäèåíò_81-43" x1="96.6" y1="262.95" x2="96.6" y2="25.27" gradientTransform="matrix(1, 0, 0, 1, 0, 0)" xlink:href="#Áåçûìÿííûé_ãðàäèåíò_81"/><linearGradient id="Áåçûìÿííûé_ãðàäèåíò_81-44" x1="124.87" y1="700.28" x2="124.87" y2="507.75" gradientTransform="matrix(1, 0, 0, 1, 0, 0)" xlink:href="#Áåçûìÿííûé_ãðàäèåíò_81"/><linearGradient id="Áåçûìÿííûé_ãðàäèåíò_81-45" x1="-186.32" y1="203.41" x2="-186.32" y2="51.01" gradientTransform="matrix(0.67, 0.04, -0.05, 1, 203.19, -19.17)" xlink:href="#Áåçûìÿííûé_ãðàäèåíò_81"/><linearGradient id="Áåçûìÿííûé_ãðàäèåíò_80-7" x1="69.25" y1="262.7" x2="69.25" y2="202.91" gradientTransform="matrix(1, 0, 0, 1, 0, 0)" xlink:href="#Áåçûìÿííûé_ãðàäèåíò_80"/><linearGradient id="Áåçûìÿííûé_ãðàäèåíò_80-8" x1="112.35" y1="502.41" x2="112.35" y2="423.4" gradientTransform="matrix(1, 0, 0, 1, 0, 0)" xlink:href="#Áåçûìÿííûé_ãðàäèåíò_80"/><linearGradient id="Áåçûìÿííûé_ãðàäèåíò_80-9" x1="90.97" y1="502.42" x2="90.97" y2="467.45" gradientTransform="matrix(1, 0, 0, 1, 0, 0)" xlink:href="#Áåçûìÿííûé_ãðàäèåíò_80"/><linearGradient id="Áåçûìÿííûé_ãðàäèåíò_81-46" x1="108.75" y1="535.18" x2="108.75" y2="508.41" gradientTransform="matrix(1, 0, 0, 1, 0, 0)" xlink:href="#Áåçûìÿííûé_ãðàäèåíò_81"/><linearGradient id="Áåçûìÿííûé_ãðàäèåíò_29-4" x1="424.54" y1="694.62" x2="424.54" y2="23.84" gradientTransform="matrix(-1, 0, 0, 1, 1545.99, 0)" xlink:href="#Áåçûìÿííûé_ãðàäèåíò_29"/><radialGradient id="Áåçûìÿííûé_ãðàäèåíò_59-14" cx="418.35" cy="273.32" r="15.34" gradientTransform="matrix(-1, 0, 0, 1, 1545.99, 0)" xlink:href="#Áåçûìÿííûé_ãðàäèåíò_59"/><radialGradient id="Áåçûìÿííûé_ãðàäèåíò_59-15" cx="437.7" cy="505.51" r="14.78" gradientTransform="matrix(-1, 0, 0, 1, 1545.99, 0)" xlink:href="#Áåçûìÿííûé_ãðàäèåíò_59"/><radialGradient id="Áåçûìÿííûé_ãðàäèåíò_59-16" cx="397.6" cy="23.23" r="16.91" gradientTransform="matrix(-1, 0, 0, 1, 1545.99, 0)" xlink:href="#Áåçûìÿííûé_ãðàäèåíò_59"/><linearGradient id="Áåçûìÿííûé_ãðàäèåíò_81-47" x1="397.64" y1="276.82" x2="439.7" y2="276.82" gradientTransform="matrix(-1, 0, 0, 1, 1545.99, 0)" xlink:href="#Áåçûìÿííûé_ãðàäèåíò_81"/><linearGradient id="Áåçûìÿííûé_ãðàäèåíò_81-48" x1="397" y1="266.07" x2="439.25" y2="266.07" gradientTransform="matrix(-1, 0, 0, 1, 1545.99, 0)" xlink:href="#Áåçûìÿííûé_ãðàäèåíò_81"/><linearGradient id="Áåçûìÿííûé_ãðàäèåíò_81-49" x1="417.68" y1="509.07" x2="458.32" y2="509.07" gradientTransform="matrix(-1, 0, 0, 1, 1545.99, 0)" xlink:href="#Áåçûìÿííûé_ãðàäèåíò_81"/><linearGradient id="Áåçûìÿííûé_ãðàäèåíò_81-50" x1="417.09" y1="499.96" x2="457.9" y2="499.96" gradientTransform="matrix(-1, 0, 0, 1, 1545.99, 0)" xlink:href="#Áåçûìÿííûé_ãðàäèåíò_81"/><linearGradient id="Áåçûìÿííûé_ãðàäèåíò_81-51" x1="375.74" y1="31.48" x2="420.14" y2="31.48" gradientTransform="matrix(-1, 0, 0, 1, 1545.99, 0)" xlink:href="#Áåçûìÿííûé_ãðàäèåíò_81"/><linearGradient id="Áåçûìÿííûé_ãðàäèåíò_81-52" x1="445.84" y1="502.07" x2="445.84" y2="275.06" gradientTransform="matrix(-1, 0, 0, 1, 1545.99, 0)" xlink:href="#Áåçûìÿííûé_ãðàäèåíò_81"/><linearGradient id="Áåçûìÿííûé_ãðàäèåíò_81-53" x1="428.49" y1="269.48" x2="428.49" y2="39.11" gradientTransform="matrix(-1, 0, 0, 1, 1545.99, 0)" xlink:href="#Áåçûìÿííûé_ãðàäèåíò_81"/><linearGradient id="Áåçûìÿííûé_ãðàäèåíò_81-54" x1="461.34" y1="694.62" x2="461.34" y2="507.27" gradientTransform="matrix(-1, 0, 0, 1, 1545.99, 0)" xlink:href="#Áåçûìÿííûé_ãðàäèåíò_81"/><linearGradient id="Áåçûìÿííûé_ãðàäèåíò_81-55" x1="320.24" y1="273.32" x2="320.24" y2="48.19" gradientTransform="matrix(-0.67, 0.04, 0.05, 1, 1342.8, -19.17)" xlink:href="#Áåçûìÿííûé_ãðàäèåíò_81"/><linearGradient id="Áåçûìÿííûé_ãðàäèåíò_80-10" x1="403.5" y1="269.72" x2="403.5" y2="211.7" gradientTransform="matrix(-1, 0, 0, 1, 1545.99, 0)" xlink:href="#Áåçûìÿííûé_ãðàäèåíò_80"/><linearGradient id="Áåçûìÿííûé_ãðàäèåíò_80-11" x1="447.17" y1="502.07" x2="447.17" y2="425.34" gradientTransform="matrix(-1, 0, 0, 1, 1545.99, 0)" xlink:href="#Áåçûìÿííûé_ãðàäèåíò_80"/><linearGradient id="Áåçûìÿííûé_ãðàäèåíò_80-12" x1="427.53" y1="502.06" x2="427.53" y2="468.13" gradientTransform="matrix(-1, 0, 0, 1, 1545.99, 0)" xlink:href="#Áåçûìÿííûé_ãðàäèåíò_80"/><linearGradient id="Áåçûìÿííûé_ãðàäèåíò_81-56" x1="444.48" y1="533.89" x2="444.48" y2="507.89" gradientTransform="matrix(-1, 0, 0, 1, 1545.99, 0)" xlink:href="#Áåçûìÿííûé_ãðàäèåíò_81"/><linearGradient id="Áåçûìÿííûé_ãðàäèåíò_80-13" x1="1106.13" y1="694.38" x2="1106.13" y2="577.66" gradientTransform="matrix(1, 0, 0, 1, 0, 0)" xlink:href="#Áåçûìÿííûé_ãðàäèåíò_80"/><radialGradient id="Áåçûìÿííûé_ãðàäèåíò_79" cx="597.43" cy="5037.11" r="557.59" gradientTransform="translate(0 -2824.67) scale(1 0.63)" gradientUnits="userSpaceOnUse"><stop offset="0" stop-color="#ffdb9a"/><stop offset="1" stop-color="#ff9f74"/></radialGradient><linearGradient id="Áåçûìÿííûé_ãðàäèåíò_81-57" x1="1024.31" y1="525.41" x2="1073.95" y2="525.41" gradientTransform="matrix(1, 0, 0, 1, 0, 0)" xlink:href="#Áåçûìÿííûé_ãðàäèåíò_81"/><linearGradient id="Áåçûìÿííûé_ãðàäèåíò_81-58" x1="831.9" y1="621.7" x2="1074.24" y2="621.7" gradientTransform="matrix(1, 0, 0, 1, 0, 0)" xlink:href="#Áåçûìÿííûé_ãðàäèåíò_81"/><linearGradient id="Áåçûìÿííûé_ãðàäèåíò_80-14" x1="187.96" y1="645.38" x2="187.96" y2="603.27" gradientTransform="matrix(1, 0, 0, 1, 0, 0)" xlink:href="#Áåçûìÿííûé_ãðàäèåíò_80"/><linearGradient id="Áåçûìÿííûé_ãðàäèåíò_80-15" x1="155.95" y1="645.88" x2="155.95" y2="498.06" gradientTransform="matrix(1, 0, 0, 1, 0, 0)" xlink:href="#Áåçûìÿííûé_ãðàäèåíò_80"/><linearGradient id="Áåçûìÿííûé_ãðàäèåíò_80-16" x1="107.97" y1="151.9" x2="266.08" y2="151.9" gradientTransform="matrix(1, 0, 0, 1, 0, 0)" xlink:href="#Áåçûìÿííûé_ãðàäèåíò_80"/><linearGradient id="Áåçûìÿííûé_ãðàäèåíò_81-59" x1="988.61" y1="147.6" x2="1088.45" y2="147.6" gradientTransform="matrix(1, 0, 0, 1, 0, 0)" xlink:href="#Áåçûìÿííûé_ãðàäèåíò_81"/></defs><title>Message box - Name</title><g class="cls-1"><g id="Layer_2" data-name="Layer 2"><g id="Layer_15" data-name="Layer 15"><path class="cls-2" d="M727.69,40.46S584.29,58.14,485,37.26l-7.63-.1S356,57.86,235.37,34l-7.74-.11S110.37,50.42,11.72,31l3.86,48.38S146.64,66.23,231.87,82l5.79.07s191-8.06,242.22,2.85l5.7.07s154.19-7.57,233.54,2.75Z"/><polygon class="cls-3" points="477.39 37.16 485.02 37.26 485.58 84.95 479.88 84.88 477.39 37.16"/><polygon class="cls-4" points="227.63 33.87 235.37 33.98 237.66 82.03 231.87 81.96 227.63 33.87"/><polygon class="cls-5" points="727.69 40.46 735.21 40.56 734.07 87.88 719.12 87.7 727.69 40.46"/><polygon class="cls-6" points="3.88 30.93 11.72 31.03 15.58 79.41 0 79.23 3.88 30.93"/><path class="cls-7" d="M1189.21,46.53l-7.32-.09S1063.17,66.71,949.7,43.38l-7.42-.1S828,59.5,735.21,40.56l-1.14,47.32S861.26,75,941.57,90.32l5.55.06s184.34-7.92,232.44,2.74l5.48.07Z"/><polygon class="cls-8" points="1181.89 46.44 1189.21 46.53 1185.04 93.19 1179.56 93.12 1181.89 46.44"/><polygon class="cls-9" points="942.28 43.28 949.7 43.38 947.12 90.39 941.57 90.32 942.28 43.28"/><path class="cls-10" d="M477.39,37.16l2.49,47.72S473.27,60.74,477.39,37.16Z"/><path class="cls-11" d="M485,37.26,485.58,85S502,65.22,485,37.26Z"/><path class="cls-12" d="M227.63,33.87S223,59.12,231.87,82Z"/><path class="cls-13" d="M235.37,34S248.09,79.79,237.66,82Z"/><path class="cls-14" d="M719.12,87.7l-7.42-.89a177.5,177.5,0,0,0,16-46.35Z"/><path class="cls-15" d="M745.64,86.84s-18.57-19.61-4.52-45.13l-5.91-1.15-1.14,47.32Z"/><path class="cls-16" d="M237.66,82s127.88-31.85,242.22,2.85C479.88,84.88,340.73,73.79,237.66,82Z"/><path class="cls-17" d="M711.7,86.81S599.8,61.86,485.58,85C485.58,85,569.11,77.66,711.7,86.81Z"/><path class="cls-18" d="M15.58,79.41s119-38.68,216.29,2.55C231.87,82,122.76,65.62,15.58,79.41Z"/><path class="cls-19" d="M941.57,90.32S840.1,58.42,745.64,86.84C745.64,86.84,841.34,75.17,941.57,90.32Z"/><path class="cls-20" d="M1179.56,93.12s-112.73-27.68-232.44-2.74C947.12,90.38,1102,80.27,1179.56,93.12Z"/><path class="cls-21" d="M1181.34,52.59s-71.2,11.73-126.1,10.13c0,0,74.43,2.79,125.58-4.24Z"/><polygon class="cls-22" points="1180.25 79.31 1161.35 79.08 1180.6 81.49 1180.25 79.31"/><path class="cls-23" d="M949.62,45.27s-1.45,36.81,5.49,44.83l-8,.28Z"/><path class="cls-24" d="M942.28,43.28s-6,24.47-.71,47Z"/><path class="cls-25" d="M768.77,57.62l50.81,4.74A170.71,170.71,0,0,1,768.77,57.62Z"/><path class="cls-26" d="M712.35,63.13,568.46,59.34S669.09,70.76,712.35,63.13Z"/><polygon class="cls-27" points="487.11 41.02 544.14 54.77 485.11 44.48 487.11 41.02"/><polygon class="cls-28" points="237.66 82.03 321.19 65.35 257.06 81.52 237.66 82.03"/><polygon class="cls-29" points="235.78 42.52 273.84 50.65 236.14 50.17 235.78 42.52"/><polygon class="cls-30" points="230.31 64.23 200.98 61.52 230.45 67.1 230.31 64.23"/><path class="cls-31" d="M485.25,647.07s131.5,15.69,221.59-1l6.88,0s108.44,17.83,215-1l6.78,0s102,14.21,186.87-.85l-3.41,39s-113-11.33-187.4,1.07l-5.07,0s-169.28-7.54-215.34,1.23l-5.13,0s-140.11-7-213.3,1.21Z"/><polygon class="cls-32" points="713.72 646.03 706.84 646.07 705.98 685.55 711.11 685.52 713.72 646.03"/><polygon class="cls-33" points="935.47 645.02 928.68 645.06 926.45 684.29 931.52 684.26 935.47 645.02"/><polygon class="cls-34" points="485.25 647.08 478.29 647.11 478.84 686.84 492.68 686.76 485.25 647.08"/><polygon class="cls-6" points="1129.04 644.14 1122.33 644.17 1118.92 683.19 1132.25 683.11 1129.04 644.14"/><path class="cls-35" d="M46.7,649.07l7.14,0s114.6,18.15,223.32-1l7,0s107.45,14.46,194.08-.88l.55,39.73S360.28,675.32,284.25,688L279,688s-176.71-7.66-223.65,1.28l-5.33,0Z"/><polygon class="cls-36" points="53.84 649.04 46.7 649.07 50 689.29 55.33 689.26 53.84 649.04"/><polygon class="cls-37" points="284.2 647.99 277.16 648.02 278.98 687.98 284.25 687.95 284.2 647.99"/><path class="cls-38" d="M713.72,646l-2.61,39.49S717.25,665.57,713.72,646Z"/><path class="cls-39" d="M706.84,646.07,706,685.55S691.33,669.12,706.84,646.07Z"/><path class="cls-40" d="M935.46,645s4,20.63-3.94,39.24Z"/><path class="cls-41" d="M928.68,645.06s-11.37,37.35-2.23,39.23Z"/><path class="cls-42" d="M492.68,686.76l6.87-.71a139.26,139.26,0,0,1-14.3-39Z"/><path class="cls-43" d="M468.12,685.92s17.42-16.38,4.68-37.89l5.49-.92.55,39.73Z"/><path class="cls-44" d="M926.45,684.29s-112.76-26.8-215.34,1.23C711.11,685.52,835.58,677,926.45,684.29Z"/><path class="cls-45" d="M499.55,686.05s103-20.28,206.43-.5C706,685.55,630.4,679.1,499.55,686.05Z"/><path class="cls-46" d="M1118.92,683.19s-102.39-32-187.4,1.07C931.52,684.26,1026.66,671.49,1118.92,683.19Z"/><path class="cls-47" d="M284.25,688s96.1-26.48,183.87-2C468.12,685.92,379,675.61,284.25,688Z"/><path class="cls-48" d="M55.33,689.26S164.94,666.08,279,688C279,688,130.84,678.59,55.33,689.26Z"/><path class="cls-49" d="M54.27,654.34s68.92,10.52,121.85,9.48c0,0-71.85,1.95-121.44-4.41Z"/><polygon class="cls-50" points="54.89 677.35 73.3 677.25 54.52 679.23 54.89 677.35"/><path class="cls-51" d="M277.21,649.62s.89,31.3-5.81,38.08L279,688Z"/><path class="cls-52" d="M284.21,648s5.32,20.81,0,40Z"/><path class="cls-53" d="M447,661.23l-47.45,3.68A176,176,0,0,0,447,661.23Z"/><path class="cls-54" d="M499.2,666.19l131.94-2.33S539,672.82,499.2,666.19Z"/><polygon class="cls-55" points="704.93 649.16 653.27 660.2 706.71 652.04 704.93 649.16"/><polygon class="cls-56" points="926.45 684.29 852.94 670.21 909.41 683.78 926.45 684.29"/><polygon class="cls-57" points="928.28 652.03 894.8 658.44 927.93 658.27 928.28 652.03"/><polygon class="cls-58" points="932.98 669.79 958.65 667.74 932.84 672.13 932.98 669.79"/><path class="cls-59" d="M42.81,8.25S73,161.41,61.89,262.65l.58,7.65S91.89,389.92,79.88,502.42l.53,7.11S104.3,616,94.73,700.53l42-.25s-21-115.75-13.16-192.53l-.36-5.34S101,319.5,107.18,268.69l-.39-5.74S86.74,103,90,17.12Z"/><polygon class="cls-60" points="62.47 270.3 61.89 262.65 106.79 262.95 107.18 268.69 62.47 270.3"/><polygon class="cls-61" points="80.41 509.53 79.88 502.42 123.16 502.41 123.52 507.75 80.41 509.53"/><polygon class="cls-62" points="42.81 8.25 42.2 0 88.87 0.66 89.99 17.12 42.81 8.25"/><polygon class="cls-6" points="95.24 707.21 94.73 700.53 136.68 700.27 137.59 713.61 95.24 707.21"/><path class="cls-63" d="M62.47,270.3l44.71-1.61S85,274.87,62.47,270.3Z"/><path class="cls-64" d="M61.89,262.65l44.9.3S86.77,246,61.89,262.65Z"/><path class="cls-65" d="M80.41,509.53s23.1,5.39,43.11-1.78Z"/><path class="cls-66" d="M79.88,502.42s40.46-9.78,43.28,0Z"/><path class="cls-67" d="M90,17.12l-.23,8.15a175.45,175.45,0,0,0-46.95-17Z"/><path class="cls-68" d="M123.16,502.41s-39.13-122-16-233.72C107.18,268.69,107.79,405.05,123.16,502.41Z"/><path class="cls-69" d="M89.76,25.27s-14.55,120,17,237.68C106.79,263,93,177.35,89.76,25.27Z"/><path class="cls-70" d="M136.68,700.28S93.87,594,123.52,507.75C123.52,507.75,116.86,605.81,136.68,700.28Z"/><path class="cls-71" d="M66.43,24.79l9.09,153.08S77.75,71.64,66.43,24.79Z"/><polygon class="cls-72" points="65.24 260.62 73.27 202.91 68.66 262.7 65.24 260.62"/><polygon class="cls-73" points="123.16 502.41 101.55 423.4 121.25 484.37 123.16 502.41"/><polygon class="cls-74" points="87.54 502.42 91.87 467.45 94.41 502.42 87.54 502.42"/><polygon class="cls-75" points="107.57 508.41 107.35 535.17 110.15 508.41 107.57 508.41"/><path class="cls-76" d="M1170.24,23.84S1139.91,171.49,1149,269.76l-.64,7.4s-29.25,115.72-19.44,224.9l-.6,6.9s-23.92,103.39-16,185.42l-39.62.24s21.43-112.74,15-187.35l.42-5.2s23.34-177.61,18.2-227l.45-5.58s21-154.88,19.1-238.28Z"/><polygon class="cls-77" points="1148.34 277.16 1148.98 269.76 1106.74 269.48 1106.29 275.06 1148.34 277.16"/><polygon class="cls-78" points="1128.3 508.96 1128.9 502.06 1088.09 502.07 1087.67 507.27 1128.3 508.96"/><polygon class="cls-79" points="1170.24 23.84 1170.93 15.88 1127.12 15.26 1125.84 31.2 1170.24 23.84"/><polygon class="cls-6" points="1111.71 700.88 1112.27 694.38 1072.65 694.62 1071.61 707.62 1111.71 700.88"/><path class="cls-80" d="M1148.34,277.16l-42-2.1S1127.16,281.32,1148.34,277.16Z"/><path class="cls-81" d="M1149,269.76l-42.24-.28S1125.82,253.32,1149,269.76Z"/><path class="cls-82" d="M1128.3,509s-21.83,5.26-40.63-1.69Z"/><path class="cls-83" d="M1128.9,502.06s-38-9.48-40.81,0Z"/><path class="cls-84" d="M1125.84,31.2l.11,7.91a159.66,159.66,0,0,1,44.29-15.27Z"/><path class="cls-85" d="M1088.09,502.07s38.52-118.32,18.2-227C1106.29,275.06,1103.9,407.5,1088.09,502.07Z"/><path class="cls-86" d="M1126,39.11s12.09,116.65-19.21,230.37C1106.74,269.48,1120.87,186.6,1126,39.11Z"/><path class="cls-87" d="M1072.65,694.62s41.85-103.67,15-187.35C1087.67,507.27,1092.65,602.57,1072.65,694.62Z"/><path class="cls-88" d="M1147.88,39.24,1122.69,266S1136.63,84.37,1147.88,39.24Z"/><polygon class="cls-89" points="1145.87 267.75 1139.09 211.7 1142.63 269.72 1145.87 267.75"/><polygon class="cls-90" points="1088.09 502.07 1109.54 425.34 1090.12 484.54 1088.09 502.07"/><polygon class="cls-91" points="1121.69 502.06 1118.08 468.13 1115.21 502.06 1121.69 502.06"/><polygon class="cls-92" points="1102.73 507.89 1102.57 533.89 1100.29 507.89 1102.73 507.89"/><path class="cls-93" d="M1112.27,694.38s-16.21-48.56-11.38-116.72c0,0-2.66,50.67,9.82,87.14Z"/><polygon class="cls-94" points="1073.63 649.85 1080.87 642.17 1113.3 682.51 1111.68 687.39 1073.63 649.85"/><polygon class="cls-94" points="1067.26 678.95 1074.63 683.44 1119.88 644.18 1111.18 636.31 1067.26 678.95"/><path class="cls-95" d="M1074.23,642.22c-134.57-25.3-411.63-19.08-636.94-10L404,619l-2.51,13.21c-150.81,6.19-264,13.64-264,13.64,9.43-55.9,11.3-121.07,8.95-186.82l183.43,8.53L146.11,450.1l0,0C139,275.46,103.27,99.26,103.27,99.26c105,6.46,222.26,10.41,338.17,12.72l18.2,32.11-9.34-31.93c326.5,6.33,641.28-.16,641.28-.16-7.21,27.3-12.69,58.09-16.76,90.76v.05l-48.17,31.35,46.17-14.32c-1.37,12.36-2.5,24.86-3.49,37.56v0l-17.83,4.43,16.25,17.24,0-.09C1056.5,454.22,1074.23,642.22,1074.23,642.22Z"/><polygon class="cls-96" points="1088.45 112.05 1146.87 58.02 1146.13 66.91 1091.57 111.99 1088.45 112.05"/><polygon class="cls-96" points="103.28 99.25 83.12 74.26 86.54 71.37 107.97 99.3 103.28 99.25"/><polygon class="cls-96" points="134.7 653.97 145.25 645.38 137.49 645.88 133.46 653.13 134.7 653.97"/><polygon class="cls-96" points="1074.24 642.21 1076.48 646.83 1080.87 642.17 1073.95 638.95 1074.24 642.21"/><polygon class="cls-94" points="1157.21 102.48 1169.98 91.7 1125.72 45.7 1118.72 53.09 1157.21 102.48"/><polygon class="cls-94" points="1112.76 87.71 1123.39 96.48 1170.17 48.16 1167.08 40.42 1112.76 87.71"/><polygon class="cls-94" points="41.42 35.78 46.36 27.86 96.37 74.66 91.57 82.74 41.42 35.78"/><polygon class="cls-94" points="89.68 29.55 96.53 40.05 54.9 84.61 47.96 76.88 89.68 29.55"/><polygon class="cls-94" points="129.23 650.3 138.19 656.31 95.52 692.68 86.48 686.16 129.23 650.3"/><polygon class="cls-94" points="89.2 653.19 98.14 646.06 142.66 684.93 135.46 694.3 89.2 653.19"/><path class="cls-97" d="M1074,639s-53.78-135.32-49.38-227.09Z"/><path class="cls-98" d="M1074.24,642.2s-96.87-32.72-153.92-39.35c-57.36-6.67-88.42,9-88.42,9Z"/><path class="cls-99" d="M145.25,645.38s54.78-44.32,85.43-42Z"/><path class="cls-100" d="M137.49,645.88s49-79.32,34.1-147.82Z"/><path class="cls-101" d="M108,99.3s124.11,42.08,158.11,105.2Z"/><path class="cls-102" d="M1088.45,112.05s-78.34,18.09-99.84,71.1Z"/><g class="cls-103"><path class="cls-104" d="M965.24,530.25c-3.28,6.25-5.6,11-6.92,17.92-1.08,5.67,1.59,12.83,6.89,15.28,6.06,2.8,15.42.92,21.53-1.77,8.42-3.69,16.43-9,21.66-16.76,4.43-6.56,6.41-13,2.57-20a23.39,23.39,0,0,0-14-11c-6.36-1.82-13.67-2.38-20.24,0C967.37,517.4,960.85,528,965.24,530.25Z"/><path class="cls-104" d="M996.76,484.76c-1.53,4.35-3.86,7.76-.57,10.94a7.23,7.23,0,0,0,8,1.43c4.25-2.09,8.33-6.54,7.1-11.4-.59-2.34-5.11-4.59-7.49-4s-5.84,3.34-6.29,6Z"/><path class="cls-104" d="M955.22,581.91a41.23,41.23,0,0,0-.4,7.91c2.74,1,5,2.61,8.15,2.57a20.22,20.22,0,0,0,9.13-2.71c4.75-3.26,4-7.88-.08-10.52-2-1.3-6.63-2.7-9.1-2-3.09.84-4.67,3.57-6.78,5.73Z"/><path class="cls-104" d="M722.42,607.74c.59,2.32,1.27,4.62,2,6.88l.88.19c1.63,1.36,4.75,1.6,6.82,1.66A41,41,0,0,0,750.78,612c2.72-1.49,5.87-5.21,6.14-8.5.23-2.84-2.91-6.93-5.2-8.5-5-3.39-14.17-6.12-20.07-2.6-6.73,4-9.67,11.87-9.32,19.18Z"/><path class="cls-104" d="M1017.68,186.28c.51,2.63,1.1,5.23,1.79,7.8l.91.21c1.65,1.56,4.9,1.87,7.07,2a41.27,41.27,0,0,0,19.74-4.78c2.92-1.64,6.41-5.79,6.85-9.5.39-3.19-2.7-7.85-5-9.64-5-3.89-14.55-7.1-20.92-3.21-7.24,4.44-10.71,13.27-10.71,21.5Z"/><path class="cls-104" d="M983.11,571.43c-1.54.69-2.63.65-3,2.19a4.71,4.71,0,0,0,1.08,4.63c2.06,2,5.74-.72,6.85-2.84a3,3,0,0,0-1.51-4.27,2.55,2.55,0,0,0-3.82,1Z"/><path class="cls-104" d="M1041.69,609.87c-1.58,1.18-2.23,1.58-3,3.22a10.7,10.7,0,0,0-1.16,4.9c0,4.69,1.89,9.65,6.65,11.19,3.82,1.23,7.59-.58,10.5-3.26,2.47-2.28,3.68-4.86,4.94-7.82,1-2.37-.16-4.8-1.68-6.51a15.19,15.19,0,0,0-5.56-3.57C1049.74,606.84,1046.09,606.21,1041.69,609.87Z"/><path class="cls-104" d="M1046.68,596.57c1.11,1.4,2.06,3.08,3.91,1.44.64-.56,1.51-1.91,1.26-2.73a4.27,4.27,0,0,0-1.41-1.53c-1.11-.51-1.8.21-2.54,1Z"/><path class="cls-104" d="M125,150c2.47,12.18,3.56,24.26,7.41,36.19,2.31,7.18,8.93,20.76,17,23.23,6.64,2,13.86-3.6,17-8.66,4.11-6.73,5.34-16.28,5-24.3-.59-12.92-3.07-29.58-15.82-36.8-4.24-2.4-8.69-5.87-13.19-7.61-2.47-1-3.83-1.3-6.19-.55C131.66,132.89,129,138.27,125,150Z"/><path class="cls-104" d="M172,226.12c-.14-4.82-.57-8.37,2.5-11.86a6.46,6.46,0,0,1,6.12-2.51c4.48.51,8.43,5.23,9.37,9.54.88,4-.38,8.43-4.18,9.94s-9.49-1.24-9.55-6.18Z"/><path class="cls-104" d="M357.19,139.91c2.32,1.51,5.75,4.29,8.5,5.7,5.21,2.67,12.1,3.18,17.7,3.5a91.21,91.21,0,0,0,31.07-3.63c7.69-2.23,14.91-6,18.2-13.79,2.64-6.25-3.22-11.5-7.92-14.83-14-9.89-30-5.14-44.28-.34a98.83,98.83,0,0,0-16.16,7.62C355.29,129.15,353.53,138.78,357.19,139.91Z"/><path class="cls-104" d="M672.29,340.92c3-3.78,4.07-6.27,8.54-7.13,2.87-.55,4.4-.08,6.83,1.57,4.4,3,5.57,9,3.1,13.84-4.64,9.05-18.29,1.72-14.37-7.21Z"/><path class="cls-104" d="M866.92,206.5a16.71,16.71,0,0,0,5.13,7c2.28-.88,4-.87,6.16-2.58s3.48-3.6,3.41-6.56a5.42,5.42,0,0,0-2.35-4.84c-3.92-2.57-8.68,3.19-11.26,5.86Z"/><path class="cls-104" d="M158.87,263.62a19.64,19.64,0,0,0,6,7.05c2.27-.89,4.09-.88,6.09-2.6s3.2-3.62,2.82-6.59a6.1,6.1,0,0,0-2.94-4.84c-4.32-2.58-8.62,3.21-11,5.89Z"/><path class="cls-104" d="M240.78,562.05c1.29-5,1.63-8.62,6.24-11.28a15.1,15.1,0,0,1,10.47-1.61c7.67,1.41,11.61,8,10.92,14.93-.66,6.65-8.55,9.79-14.85,9.71-5.31-.07-9.11-7.21-8.7-11.76Z"/><path class="cls-104" d="M272.73,546.06c2.85,2.56,6.47,7.46,10.16,3.82a7.89,7.89,0,0,0,1.17-8.65c-.88-1.74-2.41-3.34-4.51-3.24-3.6.18-4.94,4.44-5.84,7.07Z"/></g><g class="cls-105"><path class="cls-106" d="M819,496.72c-2.48,4.73-4.24,8.35-5.23,13.56C813,514.57,815,520,819,521.84c4.59,2.12,11.67.7,16.3-1.34,6.36-2.79,12.42-6.81,16.38-12.67,3.36-5,4.85-9.88,1.95-15.14A17.69,17.69,0,0,0,843,484.37c-4.82-1.38-10.35-1.8-15.33,0C820.64,487,815.71,495,819,496.72Z"/><path class="cls-106" d="M842.89,462.29c-1.16,3.3-2.93,5.88-.44,8.29a5.47,5.47,0,0,0,6.09,1.08c3.21-1.58,6.3-5,5.37-8.63-.45-1.77-3.86-3.47-5.67-3s-4.42,2.53-4.75,4.55Z"/><path class="cls-106" d="M811.45,535.81a31.7,31.7,0,0,0-.3,6c2.07.79,3.81,2,6.17,1.94a15.29,15.29,0,0,0,6.91-2c3.59-2.47,3-6-.07-8-1.51-1-5-2-6.88-1.53-2.34.64-3.53,2.7-5.13,4.34Z"/><path class="cls-106" d="M635.3,555.36c.44,1.76,1,3.49,1.53,5.21l.66.13c1.24,1,3.6,1.22,5.17,1.26a30.87,30.87,0,0,0,14.09-3.37c2.06-1.12,4.44-3.94,4.65-6.43.17-2.14-2.2-5.24-3.94-6.42-3.75-2.57-10.72-4.64-15.19-2-5.08,3-7.31,9-7,14.51Z"/><path class="cls-106" d="M858.72,236.44q.57,3,1.35,5.9l.69.16c1.24,1.18,3.71,1.42,5.35,1.49a31.25,31.25,0,0,0,14.94-3.61c2.21-1.24,4.84-4.39,5.18-7.19.29-2.42-2-5.94-3.8-7.3-3.81-2.94-11-5.37-15.83-2.42-5.48,3.35-8.11,10-8.1,16.26Z"/><path class="cls-106" d="M832.56,527.88c-1.17.52-2,.5-2.28,1.66a3.53,3.53,0,0,0,.82,3.5c1.56,1.55,4.34-.54,5.18-2.15a2.28,2.28,0,0,0-1.14-3.23,2.46,2.46,0,0,0-1.66-.29,2.39,2.39,0,0,0-1.24,1.06Z"/><path class="cls-106" d="M876.88,557a5.81,5.81,0,0,0-2.3,2.43,8.27,8.27,0,0,0-.88,3.72c0,3.54,1.43,7.29,5,8.46,2.88.93,5.74-.44,7.94-2.47a15.65,15.65,0,0,0,3.74-5.91c.77-1.8-.12-3.63-1.27-4.93a11.58,11.58,0,0,0-4.21-2.7C883,554.68,880.21,554.2,876.88,557Z"/><path class="cls-106" d="M880.66,546.9c.84,1.07,1.55,2.33,3,1.09.48-.42,1.14-1.44,1-2.06a3.16,3.16,0,0,0-1.06-1.16c-.85-.38-1.37.16-1.92.77Z"/><path class="cls-106" d="M486.51,242.08c1.86,9.22,2.69,18.36,5.6,27.39,1.75,5.42,6.76,15.7,12.88,17.57,5,1.54,10.48-2.72,12.83-6.55,3.11-5.09,4-12.32,3.76-18.38-.44-9.78-2.31-22.39-12-27.85-3.21-1.82-6.58-4.45-10-5.77-1.88-.72-2.9-1-4.69-.41C491.54,229.16,489.52,233.22,486.51,242.08Z"/><path class="cls-106" d="M218.82,266.59c-.11-3.65-.43-6.34,1.9-9a4.87,4.87,0,0,1,4.62-1.9c3.39.39,6.39,4,7.09,7.22.67,3.06-.29,6.38-3.16,7.52s-7.18-.94-7.23-4.67Z"/><path class="cls-106" d="M358.92,201.35c1.76,1.14,4.35,3.25,6.43,4.31,3.95,2,9.16,2.41,13.4,2.65a69,69,0,0,0,23.51-2.74c5.82-1.69,11.28-4.56,13.77-10.44,2-4.73-2.44-8.7-6-11.22-10.58-7.49-22.69-3.89-33.51-.26a75,75,0,0,0-12.23,5.77C357.48,193.21,356.16,200.49,358.92,201.35Z"/><path class="cls-106" d="M597.36,353.46c2.29-2.87,3.08-4.75,6.46-5.4a5.86,5.86,0,0,1,5.17,1.19,8.13,8.13,0,0,1,2.34,10.47c-3.5,6.85-13.83,1.3-10.87-5.45Z"/><path class="cls-106" d="M744.64,251.74a12.68,12.68,0,0,0,3.87,5.33c1.73-.67,3.07-.66,4.67-2s2.63-2.72,2.58-5a4.09,4.09,0,0,0-1.78-3.66c-3-2-6.57,2.41-8.52,4.44Z"/><path class="cls-106" d="M208.85,295a14.8,14.8,0,0,0,4.57,5.34c1.71-.68,3.09-.67,4.6-2s2.43-2.74,2.14-5a4.59,4.59,0,0,0-2.23-3.66c-3.26-1.95-6.52,2.43-8.31,4.46Z"/><path class="cls-106" d="M270.83,520.78c1-3.78,1.24-6.52,4.73-8.54a11.48,11.48,0,0,1,7.92-1.21c5.81,1.06,8.79,6,8.27,11.29-.5,5-6.48,7.42-11.25,7.35-4,0-6.89-5.45-6.57-8.89Z"/><path class="cls-106" d="M295,508.68c2.16,1.94,4.9,5.65,7.69,2.89a6,6,0,0,0,.89-6.54,3.84,3.84,0,0,0-3.42-2.45c-2.72.13-3.73,3.36-4.42,5.35Z"/></g><text class="cls-107" transform="translate(278.05 307.32)">En<tspan class="cls-108" x="89.44" y="0">t</tspan><tspan x="115.71" y="0">er </tspan><tspan class="cls-109" x="217.92" y="0">Y</tspan><tspan x="254.33" y="0">our Name :</tspan></text><text class="cls-107" transform="translate(321.76 441.35)">_____________</text></g></g></g></svg>