<svg xmlns="http://www.w3.org/2000/svg" xmlns:xlink="http://www.w3.org/1999/xlink" viewBox="0 0 804.2 387.14"><defs><style>.cls-1{fill:none;}.cls-2,.cls-6{fill:#fff;}.cls-3{fill:#11326d;}.cls-4{fill:#f90657;}.cls-5{fill:#f7931e;}.cls-6{opacity:0.24;}.cls-7{clip-path:url(#clip-path);}.cls-13,.cls-8{fill:#2e4423;}.cls-10,.cls-8,.cls-9{stroke:#024423;}.cls-10,.cls-13,.cls-14,.cls-15,.cls-8,.cls-9{stroke-miterlimit:10;stroke-width:2.39px;}.cls-14,.cls-9{fill:#416333;}.cls-10,.cls-15{fill:#558742;}.cls-11{fill:#024423;}.cls-12{clip-path:url(#clip-path-2);}.cls-13,.cls-14,.cls-15{stroke:#014221;}.cls-16{fill:#014221;}</style><clipPath id="clip-path" transform="translate(-48.86 -20.55)"><polygon class="cls-1" points="217.05 61.93 217.05 168.16 120.53 223.01 0 81.64 77.46 0 217.05 61.93"/></clipPath><clipPath id="clip-path-2" transform="translate(-48.86 -20.55)"><path class="cls-1" d="M687.9,64.77,665.28,95.05s-15.7-10.43-26.06-5.16-6.83,20.35-5.41,20.87,5.84,14.22,30.82,1.83l19.82,44.62S659.68,182.13,634,178.76s102,32.43,102,33.49,92.93-71.2,92.93-71.2l-3.68-70.39s-56.73-22.15-59.43-22.15S687.9,64.77,687.9,64.77Z"/></clipPath></defs><title>Game Title Small</title><g id="Layer_2" data-name="Layer 2"><g id="Layer_2-2" data-name="Layer 2"><path class="cls-2" d="M749.56,273.89,616.84,246.36s-5.13-26.51,8.56-55.06-26.06-53.09-26.06-53.09H261.63L186.82,252.37l15.48,78.25H729.77Z" transform="translate(-48.86 -20.55)"/><path class="cls-2" d="M134,280.45l-23.6,108.46,40.72,18.78,7.27-19.56,14.21-4.69,13.92,13.3L210,384.22s58.09-5.79,70.9-44.36l37.05,34.19,21.91-45.37,10.23,34.42,62.52-4.63,7.28-6.89,31.83,6.89V339.86l33.05,30.73,6.07-12.12L540.1,366,544,330.24s7.14,44.22,35.3,45.37,34.42-10.52,34.42-10.52l1.7,11.17L645,381.67l4-6.06,11.65,19.78,21.8-8,55.72,20.34,26.17-33.64L744.34,369l7-17.41h17.21l10.17-36.2-74.31-25-5.48,13.3s-4.19-21.12-58-26.59l-7.68,3.4H601.91l-35.6-13.57-73.93-6.15H451.7v19.72l-39.11-19.72H350.07l-28.23-5.59L306.5,280.45,278,260.73l-26.61,19.72s-17.2-15.37-65.71,0l-13.13,27.89Z" transform="translate(-48.86 -20.55)"/><path class="cls-2" d="M48.86,163.85h107l9.56-5.23,44.72,5.23,8.44-2.61L253,182.63V165.11l76.66,1.09-6.26,28.16,33.7-40.89,35.15,37,11.78-31.83,36.72,21.87V167l63.36-2.35v10.58s27.42-25.1,78.64-4.54H634v40.6l54.7-57.8,46,54.19,7.2-37h72.76l3.13,79.72,35.2,9.57-6.45,67.39-108.55-3.91-3.29-32.07L703.57,309,693,284.33H672.35L660.61,309l-39.4-17.6H573.39l-3.52-25.07s-46.45,20.24-64.15,0l-17.21,13.33L451,256.16l-10.17,18.78-36.72-8.64-31.71,13.33-9.53-16.26H345.35l-6.26,16.26L313.58,266.3l-6.76,25.07-48.32-28-3.9,21-44.42-4.7L204.56,309l-59.48-8.22-7-17.21-14.88,1.57,3.91,42.24-78.23,6.26Z" transform="translate(-48.86 -20.55)"/><path class="cls-2" d="M671,127l13.41,30.19S665.6,177.7,634,178.76c-11.28.38-24.17-1.71-38.4-8.09q-5.14-2.31-10.54-5.39L567.62,152a40.54,40.54,0,0,1-9.82,11.6c-7.1,6-18.5,12.17-35.63,12.8-34,1.27-78.5,0-78.5,0l-.81-9.54-.15-1.62s-.3.62-.92,1.66c-.27.45-.61,1-1,1.58a52.61,52.61,0,0,1-6.57,8,51.3,51.3,0,0,1-13,9.52,48.41,48.41,0,0,1-8.85,3.48,54.8,54.8,0,0,1-20,1.76,99.23,99.23,0,0,1-25.45-5.2,48.5,48.5,0,0,1-12.13-6.19c-4.54-3.28-6-6-6-6l-6.51,9.93H289.54l-.64-5.45-1.52-12.86-1.06-9-7.12,2.58-1,6.32-1.72,11.12-23.47-.9-11.9-.46-24.63-.93.22-12.48L219.16,21.3l56.41,5.83.94.09.07.68,3.26,33,6.48,1.3,7.37-21.68,3-8.72,52.18-.65,2.79,13.58s29.84-36.85,78.29-15.51l12.79-7.87s108.81-8.75,111.37,33.51c0,0,16.53-25.64,46.73-30.82s58.65-.65,91,35.57L665.28,95.05s-17.19-11.69-26.06-5.16-10.53,20.18,0,26,25.41-3.27,25.41-3.27Z" transform="translate(-48.86 -20.55)"/><path class="cls-3" d="M145.42,308q-11.52,39.31-20.13,78.69,11.16,2.43,22.14,5.11,1.06-6.37,2.21-12.76,11.76-4.2,23.63-8.09,3.76,4.81,7.49,9.64,11-7.53,22.18-14.83Q175.48,336.11,145.42,308ZM153,361.09c.81-4.14,1.64-8.3,2.5-12.45,2.41,3,4.82,6,7.2,9C159.49,358.75,156.26,359.92,153,361.09Z" transform="translate(-48.86 -20.55)"/><path class="cls-3" d="M267.37,320.88a29.4,29.4,0,0,0-1.35-5.52,44,44,0,0,0-2.28-5.54,36.32,36.32,0,0,0-3.81-6.18c-8.33-10.9-21.17-14.88-38.13-11.46A118.88,118.88,0,0,0,207,296a97.43,97.43,0,0,0-16.36,7.12c.38,1.35.77,2.7,1.15,4q8.56,30.23,17,60.52a96.75,96.75,0,0,0,10.47-1.12,109.57,109.57,0,0,0,22.32-5.52c9.16-3.46,16-7.95,20.53-13.65C267.71,340.3,269.55,331.48,267.37,320.88Zm-26.62,13.9a14,14,0,0,1-6.12,4.36,24.35,24.35,0,0,1-9.27,1.68q-2.19-11.51-4.39-23a27.3,27.3,0,0,1,9-2.82,11.74,11.74,0,0,1,7.29.93,9.78,9.78,0,0,1,3.93,3.86,13.49,13.49,0,0,1,1.84,6.19A12.57,12.57,0,0,1,240.75,334.78Z" transform="translate(-48.86 -20.55)"/><path class="cls-3" d="M320.52,277.74q-6.33,14.38-12.24,28.84Q295.22,295,281.6,283.7q-10.71,8.69-21.1,17.6,28.37,26.28,54.11,54,16.93-36.81,36.87-73Q336.09,279.8,320.52,277.74Z" transform="translate(-48.86 -20.55)"/><path class="cls-3" d="M391.27,326.26q-5.79.14-11.59.33c.08-2.76.15-5.5.22-8.26q7.58-.13,15.12-.17.45-9.3.92-18.59c-5.29.37-10.59.77-15.87,1.22.05-2.92.09-5.86.14-8.78q13.28-.17,26.54,0,0-10,.05-20.07-9,.3-18,.76-9.92.51-19.81,1.19-7.53.53-15.05,1.15,1.13,32.2,2.39,64.39c.07,2.07.16,4.15.24,6.22q25.53-.69,51,0,.53-9.8,1.07-19.59Q400,326.06,391.27,326.26Z" transform="translate(-48.86 -20.55)"/><path class="cls-3" d="M481.1,275q-10.87-.4-21.75-.59-.19,15.15-.41,30.3-20.9-15-43-29-1.67,22.32-3.16,44.66-.72,10.73-1.41,21.46,13.58.87,27.07,2.1c.39-7.47.81-14.94,1.22-22.41q21.51,12.91,41.9,26.72,2.07-19.18,4.21-38.35,1.71-15.41,3.49-30.81l.42-3.68Z" transform="translate(-48.86 -20.55)"/><path class="cls-3" d="M495,274.64l-2.69-.19c-.05.79-.09,1.59-.14,2.38q-.5,8.75-1,17.49,10.91.84,21.77,1.91c-.46,4.3-.94,8.6-1.4,12.9q-2.11,19.29-4.17,38.58,12.21.94,24.39,2.16,2.19-20.07,4.38-40.16c.38-3.58.78-7.17,1.17-10.75q8.78,1.08,17.53,2.31,1.2-10.23,2.42-20.46Q526.18,276.8,495,274.64Z" transform="translate(-48.86 -20.55)"/><path class="cls-3" d="M630.65,300.72c-.13-1.79-.29-3.58-.49-5.36q-.37-3.37-.95-6.75-13.38.66-26.66,1.67c.08.35.17.72.25,1.08.53,2.44,1,5.12,1.34,8.07a95.67,95.67,0,0,1,.79,11.16,65.73,65.73,0,0,1-.28,6.67c-.55,5.65-1.89,9.81-4,12.48a12.23,12.23,0,0,1-2.11,2.25,12.57,12.57,0,0,1-11.33,1.58,9.11,9.11,0,0,1-2.92-1.81,9.87,9.87,0,0,1-2.58-3.86c-1.37-3.55-1.37-8.24.07-14.08.25-1,.53-2,.85-3.05a69.77,69.77,0,0,1,4.81-11.55q1.24-2.49,3-5.58c.45-.76.88-1.52,1.33-2.28.07-.13.16-.27.24-.41.52-.91,1-1.82,1.57-2.73q-10.61-2.36-21.29-4.5l-5.69-1.13c-5.14,10.43-8.47,19.93-10.08,28.49-2.32,12.31-1.11,22.69,3.31,31.07a32.16,32.16,0,0,0,16.41,15.07,40.67,40.67,0,0,0,7.64,2.3c1,.18,1.9.31,2.83.4l1,.08a4.61,4.61,0,0,0,.72.07,38.77,38.77,0,0,0,19.8-3.83,35,35,0,0,0,11.51-9.39c5.06-6.27,8.46-14.51,10.06-24.77.31-1.9.54-3.86.71-5.9A108.67,108.67,0,0,0,630.65,300.72ZM598.7,361.9h.13Z" transform="translate(-48.86 -20.55)"/><path class="cls-3" d="M687.84,309.17c-4.11-4.77-10.35-8.63-18.71-11.46-.91-.31-1.82-.6-2.74-.87a86.32,86.32,0,0,0-26.69-3.71q-.72,2.92-1.42,5.86-2.87,11.83-5.7,23.68-4.61,19.21-9.15,38.44,11.77,2.65,23.48,5.59,2.52-11.38,5.06-22.78,6.42,16.18,12.27,32.41,11.47-4.79,23.19-9.28-5.19-9.74-10.64-19.41a18.93,18.93,0,0,0,8.58-3.59,19.47,19.47,0,0,0,4.91-5.67l.23-.4a19.59,19.59,0,0,0,2.47-7.14C694.69,322.38,693,315.13,687.84,309.17ZM655.3,328.5l.09-.47q1.71-8.05,3.4-16.13a16.15,16.15,0,0,1,5.46,2.47,10,10,0,0,1,3.24,3.51,7.46,7.46,0,0,1,.43,5.35c-1,3.57-3.35,5.51-7.16,5.85-.39,0-.77.05-1.14.05A13.69,13.69,0,0,1,655.3,328.5Z" transform="translate(-48.86 -20.55)"/><path class="cls-3" d="M737.36,316.61q-14.43-4.2-29-8-5,15.93-9.92,31.87-5.52,17.81-11,35.62,24.5,7.86,48.6,17,3.74-9.06,7.53-18.13-13.86-4.78-27.82-9.16l3-7.7q7.25,2.39,14.47,4.89,1.78-4.39,3.58-8.78,1.73-4.23,3.47-8.46-7.77-2.13-15.55-4.14l3-8.25q12.72,4.29,25.32,8.9,3.21-9.06,6.42-18.09c.09-.27.19-.56.29-.83Q748.61,319.85,737.36,316.61Z" transform="translate(-48.86 -20.55)"/><path class="cls-4" d="M155.9,179.52l-96,2,6,135.16,48.05-3-1.43-43.59,28.18,1.12.72-33.62H111.43l-.56-17,44,1Z" transform="translate(-48.86 -20.55)"/><path class="cls-4" d="M165.24,180.49,158.19,289l22.87,1.35,16.95,1,.42-14.43L201.15,182Z" transform="translate(-48.86 -20.55)"/><path class="cls-4" d="M288.9,178.46l-18.84.17.07,6,.38,34-53.06-38.09-7.26,87.22,35,3,1.39-29.6,54.78,33.71,4.33-77.11.79-13.92.31-5.61Z" transform="translate(-48.86 -20.55)"/><path class="cls-4" d="M387.08,222.9l-20.16-36.77-7.7-14-4.43,7.84-16.25,28.77-25,44.21,7,4.26,15.08,9.12,3.73-7.68,2.81-5.79,28-1.57,3.88,9.47,1.48,3.61,9.86-3.61,18.61-6.83Zm-35.62,11,6.39-13.13,5,12.3Z" transform="translate(-48.86 -20.55)"/><path class="cls-4" d="M459.47,178.59l.39,35.24-38.63-27.74-8.08-5.79-.77,9.27-3.25,39.1-2.37,28.4,30.85,2.69,1.12-23.95.09-2.12,5.49,3.38,38.44,23.66,4.3,2.64.14-2.64L488,246.2l3.82-67.9Z" transform="translate(-48.86 -20.55)"/><path class="cls-4" d="M544.16,236.13a20,20,0,0,1-12.7-7.61,16.18,16.18,0,0,1-3.36-13.28,16,16,0,0,1,7.9-11.17,19.94,19.94,0,0,1,14.55-2.59A20.94,20.94,0,0,1,561,206.6l12.44-16.2a46.31,46.31,0,0,0-59.1-7.86A42.77,42.77,0,0,0,502.47,194a40.67,40.67,0,0,0-6,32.36,41.68,41.68,0,0,0,7,14.94,44.14,44.14,0,0,0,9.35,9.46c.93.71,1.9,1.37,2.9,2a47.1,47.1,0,0,0,16.45,6.39,45.86,45.86,0,0,0,17.86-.19,44,44,0,0,0,5.19-1.4,44.55,44.55,0,0,0,10.48-5.09l-8.25-18.26A20.13,20.13,0,0,1,544.16,236.13Z" transform="translate(-48.86 -20.55)"/><path class="cls-4" d="M589.1,180.49l-5.26,81-.77,11.81-.28,4.26,13.55.8,22.07,1.3.4-14.22,2.4-83.57Z" transform="translate(-48.86 -20.55)"/><path class="cls-4" d="M743,271.73,688.39,172.1l-53.53,94.82-4.25,7.51,6.84,4.14,21.15,12.79,5.1-10.49,3.18-6.56,35.48-2,6.79,16.56,36-13.22Zm-56.36-38L693,249.34l-14.4,1.06Z" transform="translate(-48.86 -20.55)"/><path class="cls-4" d="M826,267.84,797.68,267l3.53-85.63-47-.6-2,90.92-.75,34.55-.06,2.76,8-.08,79-.75.68-39.89Z" transform="translate(-48.86 -20.55)"/><path class="cls-5" d="M298.8,42.8l0,1.18L297.7,86.14l-25,1.76L272,38.33H231.82l-2.49,121.59,44.58.59-.66-41,23.57-1-1.17,46.56,25.62,1,8.39.34,6.18.25,5.93-96.42,1.54-24.95Z" transform="translate(-48.86 -20.55)"/><path class="cls-5" d="M430.27,109.71c-.26-.23-.56-.48-.91-.76-.86-.69-2-1.53-3.41-2.53q-1-.73-8.05-5.61A128.25,128.25,0,0,1,406,91.63q-14.87-13-8.06-20.8,5.56-6.43,13.51-2.26A30.28,30.28,0,0,1,423.9,80.79l18.81-29.28Q423.39,40.61,411,38.41a67.71,67.71,0,0,0-35.87,2.71A39.91,39.91,0,0,0,354.8,56.85a35.74,35.74,0,0,0-5.87,17.23,38.89,38.89,0,0,0,.31,8q2.19,15.66,18.29,27.45,2.64,2,11.27,7.61t11.57,9a15.47,15.47,0,0,1,3.81,8.42q.66,6.94-5.71,6.88-9.23.51-15.52-11.72l-21.67,26.36,2.36,1.6a141,141,0,0,0,17,10A50.58,50.58,0,0,0,376.1,170q11.56,4,19.91,4c.81,0,1.61,0,2.39,0q13.07-.36,22.34-5.4c.35-.18.7-.37,1-.57q9.3-5.41,15.52-16.33a32.82,32.82,0,0,0,4.31-21.89A32.37,32.37,0,0,0,430.27,109.71Z" transform="translate(-48.86 -20.55)"/><path class="cls-5" d="M553.4,117.69q-3.23-19.56-22.77-26.28a39.49,39.49,0,0,0,5.34-5.5q19.85-25.24-3-36.81-8.78-4.47-23.5-6.52a183.63,183.63,0,0,0-25.83-1.68l-40,1.17,3.73,72.81,2.42,47.24H479l.07.07,9.59.08h9.59q10.91-.08,19.18-.81,18.15-1.61,28.25-13a32.28,32.28,0,0,0,6.94-12.24A40.34,40.34,0,0,0,553.4,117.69ZM498.64,70.47a8,8,0,0,1,3.59,7.25,10.51,10.51,0,0,1-4.32,7.39,18,18,0,0,1-10.76,3.59l-1.32-21.45Q494.25,67.18,498.64,70.47Zm11.57,62.59a14.65,14.65,0,0,1-4.32,3.81l-1,.58a14.92,14.92,0,0,1-6.29,1.54h-1.69l-2.85-.15c-2.69-.15-4-.34-4-.58l-.76-12.16-.64-10.24a60.32,60.32,0,0,1,6.52.73,34.3,34.3,0,0,1,7.1,1.75q8.13,3.09,9.3,9.3a7,7,0,0,1-.17,3A8,8,0,0,1,510.21,133.06Z" transform="translate(-48.86 -20.55)"/><path class="cls-5" d="M654.93,124.42a31.7,31.7,0,0,1-39-8.56q-7-9.15-5-19.92t11.86-16.76a29.8,29.8,0,0,1,21.81-3.87A31.08,31.08,0,0,1,660.13,83l18.66-24.3A66.77,66.77,0,0,0,640,37.16q-27.22-5-49.84,9.74a63.72,63.72,0,0,0-17.72,17.21,60.91,60.91,0,0,0-8.93,48.53A62.64,62.64,0,0,0,574,135c.65.89,1.32,1.76,2,2.61a67.5,67.5,0,0,0,16.37,14.59A70.63,70.63,0,0,0,617,161.83a68.79,68.79,0,0,0,26.79-.29,67,67,0,0,0,23.5-9.74l-9.59-21.23Z" transform="translate(-48.86 -20.55)"/><path class="cls-6" d="M288.9,178.46l17.92-.16-.31,5.61-.79,13.92q-18.35-6.41-35.59-13.17l-.07-6Z" transform="translate(-48.86 -20.55)"/><path class="cls-6" d="M366.92,186.13l20.16,36.77q-25-6.75-48.54-14.19l16.25-28.77,4.43-7.84Z" transform="translate(-48.86 -20.55)"/><path class="cls-6" d="M459.47,178.59l32.36-.29L488,246.2q-22.2-4.29-43.7-9.13l-5.58-1.26q-15-3.45-29.6-7.14l3.25-39.1.77-9.27,8.08,5.79,38.63,27.74Z" transform="translate(-48.86 -20.55)"/><path class="cls-6" d="M528.1,215.24a16.18,16.18,0,0,0,3.36,13.28,21.14,21.14,0,0,0,26,5.71l8.25,18.26a44.55,44.55,0,0,1-10.48,5.09q-19-2.76-38.26-6.08l-4.14-.73a44.14,44.14,0,0,1-9.35-9.46,41.68,41.68,0,0,1-7-14.94,40.67,40.67,0,0,1,6-32.36,42.77,42.77,0,0,1,11.82-11.47,46.31,46.31,0,0,1,59.1,7.86L561,206.6a20.94,20.94,0,0,0-10.4-5.12A19.94,19.94,0,0,0,536,204.07,16,16,0,0,0,528.1,215.24Z" transform="translate(-48.86 -20.55)"/><path class="cls-6" d="M589.1,180.49l32.11,1.35-2.4,83.57q-17.29-1.74-35-4Z" transform="translate(-48.86 -20.55)"/><path class="cls-6" d="M688.39,172.1,743,271.73c-34.09.09-70.35-1.48-108.16-4.81Z" transform="translate(-48.86 -20.55)"/><path class="cls-6" d="M826,267.84c-23.07,2.24-47.75,3.53-73.77,3.82l2-90.92,47,.6L797.68,267Z" transform="translate(-48.86 -20.55)"/><path class="cls-2" d="M276.51,27.22l.07.68-1-.77Z" transform="translate(-48.86 -20.55)"/><path class="cls-6" d="M664.63,112.59,671,127q-6.48,2-13.33,3.55c-24.33,5.69-52,8.09-81.74,7.08q-11.49-.39-23.4-1.46c-13.41-1.21-27.18-3.07-41.21-5.6q-11-2-22.11-4.49c-13.78-3.11-27.76-6.84-41.85-11.22q-9-2.79-18-5.93-11.79-4.1-23.62-8.77a575.84,575.84,0,0,1-56.81-26.1c-2.4-1.26-4.79-2.55-7.16-3.84Q319,57.79,298.77,44c-1.71-1.17-3.4-2.33-5.08-3.51l3-8.72,52.18-.65,2.79,13.58s29.84-36.85,78.29-15.51l12.79-7.87s108.81-8.75,111.37,33.51c0,0,16.53-25.64,46.73-30.82s58.65-.65,91,35.57L665.28,95.05s-17.19-11.69-26.06-5.16-10.53,20.18,0,26S664.63,112.59,664.63,112.59Z" transform="translate(-48.86 -20.55)"/><path class="cls-6" d="M391.27,326.26q8.69-.19,17.37-.23-.56,9.8-1.07,19.59-25.45-.64-51,0c-.08-2.07-.17-4.15-.24-6.22A306.11,306.11,0,0,1,391.27,326.26Z" transform="translate(-48.86 -20.55)"/><path class="cls-6" d="M485.76,309.85h0q-2.16,19.15-4.21,38.35-20.38-13.8-41.9-26.72c-.41,7.47-.83,14.94-1.22,22.41q-13.5-1.23-27.07-2.1.69-10.74,1.41-21.46,8.63-2.1,17.57-3.8A419,419,0,0,1,485.76,309.85Z" transform="translate(-48.86 -20.55)"/><path class="cls-6" d="M516.48,309.15q9.71.09,19.63.56-2.21,20.09-4.38,40.16-12.18-1.23-24.39-2.16,2.06-19.29,4.17-38.58Z" transform="translate(-48.86 -20.55)"/><path class="cls-6" d="M598.7,361.9l.13,0h-.13Z" transform="translate(-48.86 -20.55)"/><path class="cls-6" d="M629.85,322.08c-1.6,10.26-5,18.5-10.06,24.77a35,35,0,0,1-11.51,9.39,38.77,38.77,0,0,1-19.8,3.83,4.61,4.61,0,0,1-.72-.07l-1-.08c-.93-.09-1.88-.22-2.83-.4a40.67,40.67,0,0,1-7.64-2.3,32.16,32.16,0,0,1-16.41-15.07c-4.42-8.38-5.63-18.76-3.31-31.07q9.84.84,19.87,2.06c1.8.21,3.59.44,5.39.68Q592.3,315.17,603,317c.56.09,1.12.18,1.69.29Q617.13,319.38,629.85,322.08Z" transform="translate(-48.86 -20.55)"/><path class="cls-6" d="M676.79,347.64q5.44,9.69,10.64,19.41-11.71,4.5-23.19,9.28Q658.39,360.1,652,343.92q-2.54,11.4-5.06,22.78-11.71-2.94-23.48-5.59,4.55-19.23,9.15-38.44,2.89.61,5.81,1.28,8.54,1.94,17,4.08c1.41.36,2.82.72,4.23,1.1q15.55,4,30.89,8.85l-.23.4a19.47,19.47,0,0,1-4.91,5.67A18.93,18.93,0,0,1,676.79,347.64Z" transform="translate(-48.86 -20.55)"/><path class="cls-6" d="M743.62,375q-3.79,9.06-7.53,18.13-24.09-9.13-48.6-17,5.47-17.81,11-35.62,14.34,4.67,28.43,10c3.3,1.23,6.61,2.49,9.89,3.78q-1.78,4.39-3.58,8.78-7.22-2.5-14.47-4.89l-3,7.7Q729.77,370.22,743.62,375Z" transform="translate(-48.86 -20.55)"/><g class="cls-7"><path class="cls-8" d="M114,87.6S96.88,96.79,81.9,121.74c0,0,40.24,16.85,63,71.43,0,0,39.31-39.3,111.37-31.34Z" transform="translate(-48.86 -20.55)"/><path class="cls-9" d="M110.29,82.75s-23.4,5.93-31.82,12.79c0,0,47.1,21.83,66.13,69.56,0,0,39.62-31.82,110.12,2.81L195.14,78.69Z" transform="translate(-48.86 -20.55)"/><path class="cls-10" d="M227.89,82.28S167.53,38.77,83.31,79c0,0,32,5.61,63.16,69.25,0,0,31.82-25.27,119.79,13.57Z" transform="translate(-48.86 -20.55)"/><path class="cls-11" d="M156.77,76.2c-3.23,0-6.43.19-9.62.38-1.6.1-3.19.25-4.77.38s-3.17.35-4.73.57c-.79.09-1.57.22-2.35.37s-1.56.25-2.33.43l-2.3.5c-.76.19-1.51.42-2.27.63A31.36,31.36,0,0,0,120,83.19l0-1.83a31.71,31.71,0,0,1,4.19,3.87,45.23,45.23,0,0,1,6.42,9.09,45.52,45.52,0,0,1,2.34,5c-1-1.54-2-3.06-3.1-4.53s-2.2-2.89-3.37-4.27-2.4-2.69-3.7-3.93a35.09,35.09,0,0,0-4-3.4l-1.32-.9,1.3-.93a29.9,29.9,0,0,1,9-4.19,50.9,50.9,0,0,1,9.66-1.74,70.32,70.32,0,0,1,9.73-.25A67.77,67.77,0,0,1,156.77,76.2Z" transform="translate(-48.86 -20.55)"/><path class="cls-11" d="M141.48,113.94a56.67,56.67,0,0,1,6,7,36.59,36.59,0,0,1,2.5,3.91,12.62,12.62,0,0,1,1.67,4.64l-1.47-.92a43.17,43.17,0,0,1,9.13-2.4,50.59,50.59,0,0,1,9.36-.58,48,48,0,0,1,9.27,1.11,45,45,0,0,1,8.82,2.86c-1.53-.25-3-.61-4.52-.83s-3-.48-4.53-.6a72.12,72.12,0,0,0-9-.39,65.84,65.84,0,0,0-9,.79,51.72,51.72,0,0,0-8.7,2l-1.38.46-.09-1.38a12.41,12.41,0,0,0-1.19-4c-.6-1.34-1.3-2.66-2-4C144.74,119.08,143.13,116.51,141.48,113.94Z" transform="translate(-48.86 -20.55)"/><ellipse class="cls-8" cx="132.01" cy="77.95" rx="14.27" ry="9.2"/></g><g class="cls-12"><path class="cls-13" d="M750,92.27s17.16,9.18,32.13,34.14c0,0-40.24,16.84-63,71.43,0,0-39.3-39.3-111.36-31.35Z" transform="translate(-48.86 -20.55)"/><path class="cls-14" d="M753.7,87.42s23.39,5.92,31.81,12.79c0,0-47.1,21.83-66.13,69.56,0,0-39.61-31.82-110.11,2.8l59.58-89.21Z" transform="translate(-48.86 -20.55)"/><path class="cls-15" d="M636.1,87s60.36-43.52,144.58-3.28c0,0-32,5.62-63.17,69.25,0,0-31.82-25.26-119.78,13.57Z" transform="translate(-48.86 -20.55)"/><path class="cls-16" d="M707.22,80.87a66.2,66.2,0,0,1,9.64-1,70.35,70.35,0,0,1,9.73.24,51.62,51.62,0,0,1,9.65,1.75A30,30,0,0,1,745.3,86l1.29.93-1.31.9a33.32,33.32,0,0,0-4,3.4c-1.31,1.23-2.52,2.57-3.71,3.92s-2.3,2.8-3.36,4.28-2.09,3-3.1,4.53a43.86,43.86,0,0,1,2.34-5,45.22,45.22,0,0,1,2.92-4.73,47,47,0,0,1,3.5-4.36A31.62,31.62,0,0,1,744,86l0,1.83a31.31,31.31,0,0,0-8.42-3.74c-.75-.21-1.5-.43-2.26-.63L731,83c-.76-.18-1.55-.29-2.32-.43s-1.56-.28-2.35-.37c-1.57-.23-3.15-.4-4.73-.58s-3.18-.27-4.77-.37C713.65,81.05,710.44,80.91,707.22,80.87Z" transform="translate(-48.86 -20.55)"/><path class="cls-16" d="M722.5,118.61c-1.65,2.56-3.25,5.14-4.75,7.74-.73,1.31-1.43,2.64-2,4a12.83,12.83,0,0,0-1.19,4l-.09,1.38-1.37-.45a51.2,51.2,0,0,0-8.7-2,64.29,64.29,0,0,0-9-.79,70.26,70.26,0,0,0-9,.38c-1.52.13-3,.39-4.53.6s-3,.59-4.53.84a45.09,45.09,0,0,1,8.83-2.86,48,48,0,0,1,9.27-1.12,50.43,50.43,0,0,1,9.35.59,42.63,42.63,0,0,1,9.14,2.39l-1.47.93a12.44,12.44,0,0,1,1.66-4.64,36.73,36.73,0,0,1,2.5-3.92A57.45,57.45,0,0,1,722.5,118.61Z" transform="translate(-48.86 -20.55)"/><ellipse class="cls-13" cx="634.26" cy="82.62" rx="14.27" ry="9.2"/></g></g></g></svg>