<svg xmlns="http://www.w3.org/2000/svg" viewBox="0 0 337.99 609.76"><defs><style>.cls-1{fill:#ffc697;}.cls-2{fill:#f6921e;}.cls-3{fill:#310b6d;}.cls-4{fill:#f1c7a9;}.cls-5{fill:#1a1a1a;}.cls-6{fill:#ffc200;}.cls-7{fill:#d3976a;}.cls-8{fill:#302424;}.cls-9{fill:#fff;}.cls-10{fill:#540a0a;}.cls-11{fill:#c64f4f;}</style></defs><title>boy</title><g id="Layer_2" data-name="Layer 2"><g id="Layer_12" data-name="Layer 12"><path class="cls-1" d="M51,165.75c-2.71,7.34,6.63,53.74,16.76,65.82s31.36,21.36,31.36,21.36,2.83,32.33-14.57,34.25c0,0-28.94-14.23-36.76-30.88S21,170.76,22.05,163.19"/><path class="cls-2" d="M156.37,318a31.67,31.67,0,0,0,23.57-7.76c5.77-5.1,11.87-11.54,13-16.8C195.1,283,136,255.1,125.7,247.35s-18.56-9.57-23.83.16-27.78,56-18.33,60.37C91.79,311.65,126.69,315.57,156.37,318Z"/><path class="cls-1" d="M56,137.55S23.46,133.7,15.86,142s4.34,31.47,12.66,32.91,27,.18,28.93-23.93C58.33,139.85,56,137.55,56,137.55Z"/><path class="cls-1" d="M56,137.55s9-39.29,0-40.38-16.64,38-14.11,45.93S56,137.55,56,137.55Z"/><path class="cls-1" d="M41.09,138.89S36.89,93.57,27.88,95s-3.5,46.07,1.52,54S41.09,138.89,41.09,138.89Z"/><path class="cls-1" d="M29.19,143.24S6.57,113.17.89,118s17.55,33.88,24.51,37.3S29.19,143.24,29.19,143.24Z"/><path class="cls-1" d="M53.64,165s6.76-12.72,20.14-7.15,6.35-23-7.24-16.56S52.11,155,52.11,155Z"/><path class="cls-3" d="M134.79,489c-17.63,56.12-9.22,97.28-9.22,97.28l45.68,14.54c-7.75-40.66-3.2-75.3,5-102.14,12.05-39.61,32-62.25,32-62.25L167.45,421A270.71,270.71,0,0,0,134.79,489Z"/><path class="cls-4" d="M134.79,489c-17.63,56.12-9.22,97.28-9.22,97.28l45.68,14.54c-7.75-40.66-3.2-75.3,5-102.14C167,492.81,152.48,486.47,134.79,489Z"/><path class="cls-2" d="M94.23,609.76h76a6.28,6.28,0,0,0,6-8.15C166.79,572.13,148.75,564,118,569.7c-22.86,4.25-28.58,21.48-29.9,31.91-.06.44-.12.87-.16,1.28A6.27,6.27,0,0,0,94.23,609.76Z"/><path class="cls-5" d="M94.23,609.76h76a6.28,6.28,0,0,0,6-8.15H88.14c-.06.44-.12.87-.16,1.28A6.27,6.27,0,0,0,94.23,609.76Z"/><path class="cls-3" d="M287.36,489c17.63,56.12,9.22,97.28,9.22,97.28L250.9,600.85c7.75-40.66,3.2-75.3-5-102.14-12.05-39.61-32-62.25-32-62.25L254.7,421A270.71,270.71,0,0,1,287.36,489Z"/><path class="cls-4" d="M287.36,489c17.63,56.12,9.22,97.28,9.22,97.28L250.9,600.85c7.75-40.66,3.2-75.3-5-102.14C255.13,492.81,269.67,486.47,287.36,489Z"/><path class="cls-2" d="M327.92,609.76H252a6.27,6.27,0,0,1-6-8.15c9.41-29.48,27.45-37.62,58.16-31.91C327,574,332.69,591.18,334,601.61c.06.44.11.87.16,1.28A6.27,6.27,0,0,1,327.92,609.76Z"/><path class="cls-5" d="M327.92,609.76H252a6.27,6.27,0,0,1-6-8.15H334c.06.44.11.87.16,1.28A6.27,6.27,0,0,1,327.92,609.76Z"/><path class="cls-6" d="M157.72,402c0,.38-.07.76-.1,1.12-3.78,46.15,39.42,67,81.66,55,22-6.25,32.09-26.23,34.3-52.24,2.08-24.32-2.71-53.91-11.1-82.48-17.34-59.13-56.38-51.82-56.38-51.82C176.29,274.56,167.63,300.6,157.72,402Z"/><path class="cls-3" d="M157.62,403.11c-3.78,46.15,39.42,67,81.66,55,22-6.25,32.09-26.23,34.3-52.24C253.4,396,207.65,379.78,157.62,403.11Z"/><path class="cls-7" d="M222.13,257.64s8.31,24.83-11.24,24.57,2.11.53-13.11-23.41S222.13,257.64,222.13,257.64Z"/><path class="cls-1" d="M283.59,444.73s-8.47,1.53-12.76,7.51,1,10.84,4.51,10S285.71,455.84,283.59,444.73Z"/><path class="cls-1" d="M308.41,337.44s16.64,24.27,15.4,41-10.72,73.28-14.94,78.84,1.38,8.28-1.84,15.24-11.12,18.33-19.41,13S263.69,470,264.38,466.14s10.9-12.53,16.34-17.15,18.78-45.69,16.14-59.82-15.36-31-15.36-31S293.73,331.18,308.41,337.44Z"/><path class="cls-2" d="M265.1,280.78a28.88,28.88,0,0,0-22.21-4.38c-6.87,1.46-14.6,3.85-17.84,7.55-6.42,7.32,28.1,56,32.79,66.72s10.48,15.92,19,10.54S324,329.1,318.45,321.43C313.58,314.73,287.6,296,265.1,280.78Z"/><path class="cls-1" d="M272.84,230.81s-31,38-86,30.3-61.71-54.27-59.61-65.66,16.1-24.23,11.2-45.53S131,119,138,95.81s16.15-51.65,47.14-53.9,97.08,25.32,111,50.79S315.65,165.37,302,192,272.84,230.81,272.84,230.81Z"/><path class="cls-8" d="M250.19,170.57s15.26-39.28,12.68-51.76-37-49.87-43.55-51.65-31.84,13.41-59.08,12.19S111.08,51.87,117.58,0c0,0,43.93,24.68,88.38,16s73.8,5.73,90,26.7,8.64,46.46,8.64,46.46,16.53-7,14.13-28.84c0,0,12.47,13.83-2.16,36.26,0,0,13.27-2.46,21.39,18.91,0,0-6.54-11-20.42-5.45,0,0,18.95,26.21,13.85,49.65S301,226.39,261.68,248.91c0,0-6.9,3-3.27-10.57s9.27-32.5,9.27-32.5L257,161.31Z"/><path class="cls-1" d="M250.19,170.57s8.72-19.68,20.05-17.19,21.18,14.85,10.9,37.92-26.61,16.21-26.61,16.21"/><path d="M250.19,170.57a44.91,44.91,0,0,1,3-6.09,41.52,41.52,0,0,1,3.91-5.62,22.47,22.47,0,0,1,5.19-4.61,11.38,11.38,0,0,1,6.89-1.83,20.6,20.6,0,0,1,3.49.77,21.65,21.65,0,0,1,3.24,1.42,18.64,18.64,0,0,1,5.53,4.42,8.89,8.89,0,0,1,1.1,1.41l1,1.48.8,1.6c.12.27.27.53.38.81l.29.84.57,1.68.37,1.73a22.94,22.94,0,0,1,.44,3.5,37.27,37.27,0,0,1-2.14,13.69,49.62,49.62,0,0,1-6,12.39A24.92,24.92,0,0,1,268,207.22a17.64,17.64,0,0,1-13.42.29,17.76,17.76,0,0,0,13-1.2,11.18,11.18,0,0,0,1.43-.81,14.21,14.21,0,0,0,1.38-.9l1.28-1c.22-.18.44-.34.64-.52l.57-.6A21.45,21.45,0,0,0,275,200a24.31,24.31,0,0,0,1.92-2.69,51.27,51.27,0,0,0,5.48-12.11,35.87,35.87,0,0,0,1.95-13A20.5,20.5,0,0,0,284,169l-.32-1.59-.51-1.53-.26-.76c-.1-.25-.23-.49-.34-.73l-.7-1.45-.88-1.34c-.16-.22-.28-.46-.45-.67l-.52-.61a16.67,16.67,0,0,0-4.92-4.11,19.49,19.49,0,0,0-2.93-1.36,19.17,19.17,0,0,0-3.1-.81,10.1,10.1,0,0,0-6.06,1.39,22.17,22.17,0,0,0-5.12,4.13A50.81,50.81,0,0,0,250.19,170.57Z"/><ellipse class="cls-7" cx="263.62" cy="180.77" rx="13.96" ry="10.18" transform="translate(46.04 414.94) rotate(-81.54)"/><ellipse class="cls-9" cx="205.06" cy="158.62" rx="18.46" ry="13.93" transform="translate(32.15 351.78) rotate(-85.89)"/><ellipse cx="209.4" cy="158.68" rx="11.1" ry="8.38" transform="translate(36.12 356.16) rotate(-85.89)"/><ellipse class="cls-9" cx="213.37" cy="156.8" rx="3.4" ry="2.56" transform="translate(41.68 358.38) rotate(-85.89)"/><ellipse class="cls-9" cx="160.35" cy="155.4" rx="18.46" ry="13.93" transform="translate(-6.15 304.21) rotate(-85.89)"/><ellipse cx="165.06" cy="155.49" rx="11.1" ry="8.38" transform="translate(-1.86 308.98) rotate(-85.89)"/><ellipse class="cls-9" cx="168.66" cy="153.58" rx="3.4" ry="2.56" transform="translate(3.38 310.8) rotate(-85.89)"/><path class="cls-8" d="M196,113.4l-1,13.93s17.72-15.29,45.34,9.26C240.33,136.59,235,111,196,113.4Z"/><path class="cls-8" d="M174.82,113.08,174,125s-15.13-20.92-38.55.51C135.41,125.53,146.37,97,174.82,113.08Z"/><path class="cls-1" d="M172.47,164.91a45.3,45.3,0,0,1-14.34,15.92c-9.66,6.36,10.93,20.46,27.64,16.15"/><path d="M172.47,164.91a34.25,34.25,0,0,1-3.65,6.93,40.06,40.06,0,0,1-5,6.09l-1.45,1.37-1.53,1.28c-.53.41-1.07.8-1.61,1.2-.3.21-.47.37-.68.53a3.35,3.35,0,0,0-.54.52,2.71,2.71,0,0,0-.78,2.35,5.76,5.76,0,0,0,1.34,2.7,19.2,19.2,0,0,0,5.49,4.5,35.19,35.19,0,0,0,6.77,3,34.76,34.76,0,0,0,15,1.58,26.71,26.71,0,0,1-15.62.72,31.7,31.7,0,0,1-7.54-2.79,21.32,21.32,0,0,1-6.49-5.14,8.77,8.77,0,0,1-1.9-4.22,5.84,5.84,0,0,1,.27-2.58,5.91,5.91,0,0,1,1.38-2.12,5.77,5.77,0,0,1,.89-.77c.31-.22.64-.46.88-.61l1.55-1,1.51-1.11,1.48-1.16a53.07,53.07,0,0,0,5.46-5.26A56.57,56.57,0,0,0,172.47,164.91Z"/><path class="cls-10" d="M159.54,226.8a20.36,20.36,0,0,0,11.7,4.67c7.91.71,13.53-1.58,17.54-4.84a26.53,26.53,0,0,0,7-9.27A29.16,29.16,0,0,0,198,211c-1.83.19-3.66.3-5.48.32-.92,0-1.83,0-2.75,0-13-.36-25.22-4.42-32.49-7.4h0l-.7-.29-1.17-.5c-3.18-1.37-2.5-1.12-2.5-1.12S149.33,218.16,159.54,226.8Z"/><path class="cls-11" d="M159.49,224.16a7.86,7.86,0,0,0,0,2.65,20.48,20.48,0,0,0,11.72,4.66c7.89.71,13.53-1.57,17.53-4.84-.65-4.91-6-9.35-13-10.48C167.69,214.86,160.4,218.44,159.49,224.16Z"/><path class="cls-9" d="M155.65,209.93c.7,5.17,23.81,12.86,40.14,7.43A29.16,29.16,0,0,0,198,211c-1.83.19-3.66.3-5.48.32-.92,0-1.83,0-2.75,0-13-.36-25.22-4.42-32.49-7.4h0l-.7-.29A12.75,12.75,0,0,0,155.65,209.93Z"/></g></g></svg>