<svg xmlns="http://www.w3.org/2000/svg" xmlns:xlink="http://www.w3.org/1999/xlink" viewBox="0 0 951.23 375.15"><defs><style>.cls-1{fill-rule:evenodd;fill:url(#Áåçûìÿííûé_ãðàäèåíò_79);}.cls-2{fill:#fff;}.cls-3{font-size:35px;fill:#a0343b;font-family:Poppins-Medium, Poppins;font-weight:500;}</style><radialGradient id="Áåçûìÿííûé_ãðàäèåíò_79" cx="626.06" cy="-140.11" r="424.77" gradientTransform="translate(1105.22 32.07) rotate(180)" gradientUnits="userSpaceOnUse"><stop offset="0" stop-color="#ffdb9a"/><stop offset="1" stop-color="#ff9f74"/></radialGradient></defs><title>message box 6</title><g id="Layer_2" data-name="Layer 2"><g id="Layer_18" data-name="Layer 18"><path class="cls-1" d="M50.34,341.86A73.38,73.38,0,0,1,9.56,329.47a119.2,119.2,0,0,0,12.08.62c21.08,0,57.71-6.18,66.21-47.58a2.12,2.12,0,0,0,.05-.5V50.61A48.18,48.18,0,0,1,136,2.49H900.63a48.17,48.17,0,0,1,48.11,48.12V286.76a48.17,48.17,0,0,1-48.11,48.12H136a47.63,47.63,0,0,1-30-10.48,2.5,2.5,0,0,0-3-.08,2,2,0,0,0-.27.23c-2.41,1.75-24.57,17.31-52.45,17.31Z"/><path class="cls-2" d="M900.63,5a45.67,45.67,0,0,1,45.62,45.63V286.76a45.67,45.67,0,0,1-45.62,45.62H136a45.14,45.14,0,0,1-28.41-9.93,4.93,4.93,0,0,0-3.09-1.08,5,5,0,0,0-2.92.95,3.4,3.4,0,0,0-.3.23c-2.25,1.63-23.85,16.82-51,16.82a69.78,69.78,0,0,1-30.18-6.8h1.48c37.71,0,62.09-17.6,68.65-49.57a4.85,4.85,0,0,0,.1-1V50.61A45.68,45.68,0,0,1,136,5H900.63m0-5H136A50.61,50.61,0,0,0,85.41,50.61V282c-8,38.72-41.18,45.59-63.77,45.59A108.65,108.65,0,0,1,0,325.52c17.19,14.15,34.69,18.83,50.34,18.83,30.65,0,54.18-18,54.18-18v0a50.39,50.39,0,0,0,31.51,11H900.63a50.6,50.6,0,0,0,50.6-50.61V50.61A50.6,50.6,0,0,0,900.63,0Z"/><text class="cls-3" transform="translate(179.5 71.65)">Now Jehan / Tehani has to go through<tspan x="67.92" y="42">THE PATHWAY OF ALLOWANCES</tspan><tspan x="139.32" y="84">to get to the next level.</tspan><tspan x="12.84" y="168">Help them to get the allowances and </tspan><tspan x="35.21" y="210">allocate them in a correct manner</tspan></text></g></g></svg>