<svg xmlns="http://www.w3.org/2000/svg" viewBox="0 0 392.25 1244.71"><defs><style>.cls-1{fill:#efbc9a;}.cls-2{fill:#e80054;}.cls-3{fill:#dba47f;}.cls-4{fill:#05c0d3;}.cls-5{fill:#004251;}.cls-6{fill:#c6701a;}.cls-7{fill:#062351;}.cls-8{fill:#0d1d5e;}.cls-9{fill:#d6b461;}.cls-10{fill:#ff004f;}.cls-11{fill:#770031;}.cls-12{fill:#00d2e2;}.cls-13{fill:#404041;}.cls-14{fill:#231f20;}.cls-15{fill:#ad7361;}.cls-16{fill:#ab2437;}.cls-17{fill:#c82233;}.cls-18{fill:#fff;}.cls-19{fill:#e9ebed;}</style></defs><title>mom</title><g id="Layer_2" data-name="Layer 2"><g id="Layer_19" data-name="Layer 19"><path class="cls-1" d="M391.58,538.73c-3-16-26.43-56.64-52.91-94-29.37-41.43-62.45-78.86-75.46-74.38-24.76,8.5-14.26,36.07-14.26,36.07,5.79,17,25.13,43.59,45.39,68.57,24.61,30.35,50.57,58.37,55.26,64.16C358.14,549.71,397.85,572.55,391.58,538.73Z"/><path class="cls-2" d="M294.34,475l0,0,44.31-30.28c-29.37-41.43-62.45-78.86-75.46-74.38-24.76,8.5-14.26,36.07-14.26,36.07C254.74,423.46,274.08,450,294.34,475Z"/><path class="cls-1" d="M246.35,678.65s51.6-50,74.62-90.36,63.69-72.54,69.85-50S375.26,609.89,255.11,694.1C255.11,694.1,230.23,695.09,246.35,678.65Z"/><path class="cls-1" d="M242.08,684.49S230.91,712.77,230,726.86s13.19-10.45,13.19-10.45-1.59,15.44-1.56,28.84S254,765.33,254,765.33l13.51-36.08L259.4,685Z"/><path class="cls-3" d="M177.55,298.13s-8.73,65.76-18.5,88.83h67.81s-24.12-44.23-20.55-84.14Z"/><path class="cls-4" d="M78.13,1018.52s25.82-15.26,29.34-12.91c0,0,3.41-11.21,8.29-32.39l9.9,17.41q-4.91,16.46-10.68,32.59s37.1-2.35,51.19-18.78c1.79-2.08,4.54-11.19,7.88-25.68,23-99.79,73.94-454.43,28.14-519-52.46-74-93.54-8.22-93.54-8.22s24.18,335.31-22,534.47C84.07,997.3,81.22,1008.17,78.13,1018.52Z"/><path class="cls-5" d="M115.76,973.22l9.9,17.41C191,772.09,145.43,518,145.43,518,160.86,742.35,131.07,906.81,115.76,973.22Z"/><path class="cls-6" d="M107.47,1005.61l7.5,17.57C114.73,1022.28,110.89,1007.89,107.47,1005.61Z"/><path class="cls-7" d="M107.47,1005.61c3.42,2.28,7.26,16.67,7.5,17.57v0q5.77-16.12,10.68-32.59l-9.9-17.41C110.88,994.4,107.47,1005.61,107.47,1005.61Z"/><path class="cls-5" d="M125.66,990.63q-4.91,16.46-10.68,32.59s37.1-2.35,51.19-18.78c1.79-2.08,4.54-11.19,7.88-25.68C174.05,978.76,151,998.61,125.66,990.63Z"/><path class="cls-8" d="M107.47,1005.61l7.5,17.57C114.73,1022.28,110.89,1007.89,107.47,1005.61Z"/><path class="cls-5" d="M78.13,1018.52s25.82-15.26,29.34-12.91c0,0,3.41-11.21,8.29-32.39l-28.26,12-.82.73C84.07,997.3,81.22,1008.17,78.13,1018.52Z"/><path class="cls-9" d="M241.35,1231a83.6,83.6,0,0,0,12.86,4.75Z"/><path class="cls-9" d="M162.76,1225.72c-2.15-.33-4.24-.72-5.65-1C159,1225.14,160.89,1225.46,162.76,1225.72Z"/><path class="cls-10" d="M121.51,1163.66c-3.18,13.38-6.68,27.57-10.51,42.69,0,0,22.18,13,44.33,18q5.82-21.52,10.7-42.07c7.66,1,13.13,1.25,13.13,1.25l-.08.45-.29,1.6L176.86,1196h0c-3.57,19-6,30.28-6,30.28l1.17,9.4s31.69,14.08,69.26,7V1231s.26-9,.59-24.43h0l0-1,0-1.08.05-2.21,0-2.23,0-1.95a28.33,28.33,0,0,0,12.85,6.7q-.28,15.12-.72,30.94c10.18,2.94,25.27,5.57,41.09,2.27v-9.39s-.66-9.16-1.85-24.71v0l-.17-2.22-.17-2.29-.33-4.31c5,.33,10.54-1.17,15.81-3.45.87,11.1,1.6,22.09,2.18,32.9,9.15-3.35,20.79-9.24,30.31-19.36,0,0-3.76-11-8.41-29.14h0c-12-46.7-29.86-140.61-4.49-215,35.22-103.3,21-237.13-15-281.48-17.67-21.77-23.51-56.87-19.84-87.91-.45,1.49-11.11,37.48,0,56C304.69,666.43,218.2,730.8,141.12,661c0,0,29.52-33.29,19.08-62.12,3,16.24.51,33-11.64,51-31.69,47-58.69,85.7-25.83,203.09,30.32,108.28,36.67,151.64-1.22,310.65Z"/><path class="cls-10" d="M160.2,598.89C170.64,627.72,141.12,661,141.12,661c77.08,69.79,163.57,5.42,152.22-13.44-11.12-18.48-.46-54.47,0-56a.18.18,0,0,0,0-.05c2.05-17.29,7.05-33.32,14.61-45.08,21.13-32.87,28.71-35.87-2.61-89.22-9.15-15.6-13.13-33.18-14.79-43.58a69.21,69.21,0,0,0-15.82-34.6c-9.75-11.2-25-21.38-47.52-19.12-47,4.69-112.69,11.74-129.13,36.39S94.56,479.7,120.39,522c15.92,26.06,35,50.78,39.8,76.91Z"/><path class="cls-1" d="M141.12,661c77.08,69.79,163.57,5.42,152.22-13.44-11.12-18.48-.46-54.47,0-56a.18.18,0,0,0,0-.05c-29,15.6-133.15,7.31-133.15,7.31v0C170.64,627.72,141.12,661,141.12,661Z"/><path class="cls-5" d="M310.67,1224.57a79.87,79.87,0,0,1-15.37,4.08C301.54,1228.65,309.69,1225,310.67,1224.57Z"/><path class="cls-11" d="M258.64,858.8C271.88,934,286.92,1119,292.78,1195.08c5,.33,10.54-1.17,15.81-3.45C298.34,1060.15,269.7,912.6,258.64,858.8Z"/><path class="cls-5" d="M241.92,1205.6l0,1h0Z"/><path class="cls-11" d="M242.08,1198.13a28.33,28.33,0,0,0,12.85,6.7c5.49-283.49-23.58-387.46-25.65-394.48C246.9,875.54,243.87,1110.86,242.08,1198.13Z"/><path class="cls-5" d="M178.79,1185.59,176.86,1196h0C177.48,1192.77,178.13,1189.28,178.79,1185.59Z"/><path class="cls-11" d="M166,1182.29c7.66,1,13.13,1.25,13.13,1.25,14-77.49,38.72-242,17.15-338.3C196.8,848.73,214.43,978.76,166,1182.29Z"/><path class="cls-5" d="M170.87,1226.3a60.59,60.59,0,0,1-7.85-.54C166.17,1226.24,169.41,1226.59,170.87,1226.3Z"/><path class="cls-5" d="M155.33,1224.36h0l.11,0Z"/><path class="cls-3" d="M218.47,360.84s50.61,72.68-5,84.42-72.39-72.13-72.39-72.13S188,359.64,218.47,360.84Z"/><path class="cls-7" d="M292.78,1195.08l.33,4.31.17,2.29.17,2.22v0c1.19,15.55,1.85,24.71,1.85,24.71a79.87,79.87,0,0,0,15.37-4.08l.07,0h0c-.58-10.81-1.31-21.8-2.18-32.9C303.32,1193.91,297.81,1195.41,292.78,1195.08Z"/><path class="cls-12" d="M308.59,1191.63c.87,11.1,1.6,22.09,2.18,32.9,9.15-3.35,20.79-9.24,30.31-19.36,0,0-3.76-11-8.41-29.14h0C332.24,1176.41,321.07,1186.22,308.59,1191.63Z"/><path class="cls-13" d="M310.67,1224.57a79.87,79.87,0,0,1-15.37,4.08C301.54,1228.65,309.69,1225,310.67,1224.57Z"/><path class="cls-7" d="M241.3,1231l0,0,12.86,4.75q.43-15.81.72-30.94a28.33,28.33,0,0,1-12.85-6.7l0,1.95,0,2.23-.05,2.21,0,1.08,0,1h0C241.56,1222,241.3,1231,241.3,1231Z"/><path class="cls-12" d="M254.93,1204.83q-.28,15.12-.72,30.94c10.18,2.94,25.27,5.57,41.09,2.27v-9.39s-.66-9.16-1.85-24.71C293.45,1203.94,271.72,1209.19,254.93,1204.83Z"/><path class="cls-13" d="M254.21,1235.77,241.35,1231A83.6,83.6,0,0,0,254.21,1235.77Z"/><path class="cls-7" d="M155.33,1224.36l.11,0,.37.08.44.09.55.11.31.06c1.41.27,3.5.66,5.65,1l.26,0a60.59,60.59,0,0,0,7.85.54s2.43-11.28,6-30.28h0l1.93-10.43.29-1.6.08-.45s-5.47-.21-13.13-1.25Q161.14,1202.84,155.33,1224.36Z"/><path class="cls-12" d="M176.87,1196c-3.57,19-6,30.28-6,30.28l1.17,9.4s31.69,14.08,69.26,7V1231s.26-9,.59-24.43C241.35,1206.68,203.16,1214.13,176.87,1196Z"/><path class="cls-13" d="M170.87,1226.3a60.59,60.59,0,0,1-7.85-.54C166.17,1226.24,169.41,1226.59,170.87,1226.3Z"/><path class="cls-13" d="M162.76,1225.72c-2.15-.33-4.24-.72-5.65-1C159,1225.14,160.89,1225.46,162.76,1225.72Z"/><path class="cls-13" d="M155.44,1224.39l-.11,0h0Z"/><path class="cls-12" d="M111,1206.35s22.18,13,44.33,18q5.82-21.52,10.7-42.07c-14.26-1.94-36.13-6.78-44.52-18.63C118.33,1177,114.83,1191.23,111,1206.35Z"/><path class="cls-1" d="M20.63,548.18c15.63-6.62,51.62-39.56,83.63-74.84,35.51-39.13,66.12-81.13,58.66-93.36-14.2-23.25-39.85-6.39-39.85-6.39-16,9.7-38.66,35.31-59.49,61.49-25.32,31.82-48,64.48-52.8,70.54C2,516.66-12.32,562.14,20.63,548.18Z"/><path class="cls-10" d="M63.58,435.08l0,0,40.7,38.23c35.51-39.13,66.12-81.13,58.66-93.36-14.2-23.25-39.85-6.39-39.85-6.39C107.07,383.29,84.41,408.9,63.58,435.08Z"/><path class="cls-1" d="M145.7,669.53s-51.6-50-74.62-90.36S7.38,506.63,1.23,529.22,16.79,600.77,136.94,685C136.94,685,161.81,686,145.7,669.53Z"/><path class="cls-1" d="M150,675.37s11.18,28.28,12.13,42.37-13.2-10.44-13.2-10.44,1.59,15.43,1.56,28.83S138,756.21,138,756.21L124.5,720.13l8.15-44.25Z"/><path class="cls-12" d="M90.32,402.3c62.09,2.12,98.15,184.22,105.2,220.61s68.08,164.35,90.39,218.35,30.87,175,30.87,175c41.43-117.36,43.09-233.64,12.13-308.37-29.9-72.2-25.73-148.06-10.73-176.94v0c.53-1,1.06-2,1.61-2.85,16.28-26.42-5.52-54.93-5.52-54.93S278.87,431.57,239,421s-71.52-53.51-71.52-53.51a159.22,159.22,0,0,0-24.14,2.84C100.71,378.82,90.32,402.3,90.32,402.3Z"/><path class="cls-10" d="M167,433.52s37.67,24.26,62.2,106.66c28.66,96.33,7,143,87.65,247.08,0,0-68.31-46.7-82.91-176.87S167,433.52,167,433.52Z"/><path class="cls-10" d="M230.86,458.92s25.45,19.16,38.24,78.28c15,69.13-3.08,100.56,48.41,178.09,0,0-46-36.63-49-128.64S230.86,458.92,230.86,458.92Z"/><path class="cls-5" d="M143.29,370.32h0c.55.87,29.43,46.49,77,59.28,48,12.91,80.55,42.71,90.89,60.09s13.48,23.19,7,41.18c.53-1,1.06-2,1.61-2.85,16.28-26.42-5.52-54.93-5.52-54.93S278.87,431.57,239,421s-71.52-53.51-71.52-53.51S153.78,367.76,143.29,370.32Z"/><ellipse class="cls-14" cx="286.53" cy="52.24" rx="46.17" ry="67.23" transform="translate(98.03 274.27) rotate(-60)"/><circle class="cls-1" cx="95.83" cy="222" r="26.8"/><circle class="cls-15" cx="95.83" cy="222" r="15.65"/><circle class="cls-1" cx="302.19" cy="222" r="26.8"/><circle class="cls-15" cx="302.19" cy="222" r="15.65"/><path class="cls-1" d="M308.83,203.34h0a165.41,165.41,0,0,0,2.22-27c0-76.49-51.09-137.55-114-136.2-60.94,1.3-110,61.74-110,136.11a165.32,165.32,0,0,0,2.21,27.05h0v0A155.88,155.88,0,0,0,99,237.5c9,26.52,24.58,63,48.58,88.92,29.33,31.66,73.67,31.66,103,0,24-25.91,39.61-62.4,48.58-88.92a155.88,155.88,0,0,0,9.72-34.14Z"/><circle class="cls-10" cx="89.05" cy="238.74" r="8.64"/><path class="cls-14" d="M197.06,28.24c-120.27,0-129.55,110.65-124,150.55,2.78,20,27,95.13,27,95.13s-.37-13.53.75-31.77c1.16,5.39,2.46,10.77,4,16,11,38.91-3.92,112.12-3.92,112.12s27.94-44.13,12.78-120.26c-5.65-28.41-5.82-49.81-3.82-65.49,5.09-17.08,12.81-31.18,24.48-36,37.28-15.41,91.75-7.11,118.12-44.46,31,44.22,44.74,62.84,50.8,113.84C337.54,184.12,364.79,29.42,197.06,28.24Z"/><path class="cls-13" d="M235.87,66.47s-33.53,62-134.09,60.32c0,0,56.22-9.91,73.67-36.35,0,0-25.71,12.39-42.14,11.56,0,0,70-30.57,78-43.79,0,0-3.08,22.34-21.49,34.31C189.83,92.52,217.69,84.65,235.87,66.47Z"/><path class="cls-14" d="M228.28,124.51s-28.46,14.61-68.44,16.79S109.37,178.69,109,192.4s27,132.39-8.19,177.91c0,0,15.92-58.84-1.82-137.09S117.67,132,163.63,131.49,228.28,124.51,228.28,124.51Z"/><circle class="cls-10" cx="309.2" cy="238.74" r="8.64"/><path class="cls-16" d="M199.52,288c-12.37.24-27.52,3.5-35.55-.74,7.36,8.89,18.71,16.21,32.79,20.11.87,0,1.82-.11,2.76-.21,1,.1,1.9.17,2.77.21,14.08-3.9,25.43-11.22,32.79-20.11C227.05,291.53,211.9,288.27,199.52,288Z"/><path class="cls-17" d="M200.52,297.93c-13.84,0-34.42-8.2-34.36-8.17,8.43,8.92,20.07,19.49,33.2,19.24h1.1c13.15.26,27.82-13.18,32.44-19.24C233,289.73,214.38,297.93,200.52,297.93Z"/><path class="cls-15" d="M212.23,259.19c0,3.74-5.69,6.76-12.71,6.76s-12.72-3-12.72-6.76,5.69-2.61,12.72-2.61S212.23,255.46,212.23,259.19Z"/><path class="cls-14" d="M273.68,225.38l-.55.41a4.33,4.33,0,0,1-.37.27c.16-.25.31-.5.45-.77a17.51,17.51,0,0,0,2-5.9c1.29-8.27-4.95-15.7-15.21-17a17.64,17.64,0,0,1,8.53,12.83L235,224.49a17.64,17.64,0,0,1-1.44-7,17.3,17.3,0,0,1,1.53-7.13c-5.68,4.71-10.08,11-11.4,17.24l.34.23-2.78-1.4c5.78-21.64,29.52-42.14,50.69-30.82C285.25,202.76,282.19,218.71,273.68,225.38Z"/><path class="cls-14" d="M273.21,225.29a4,4,0,0,1-.08.5c0,.2-.08.4-.13.6-3.26,12.93-30.5,17.7-43.92,4.56,3.83,2.17,9,4.69,13.28,5.31,10.86,1.57,24.66-1,30.4-10.2C272.92,225.81,273.07,225.56,273.21,225.29Z"/><path class="cls-18" d="M260,202.35c10.26,1.34,16.5,8.77,15.21,17a17.51,17.51,0,0,1-2,5.9c-.14.27-.29.52-.45.77-5.74,9.22-19.54,11.77-30.4,10.2-4.25-.62-9.45-3.14-13.28-5.31a19.31,19.31,0,0,1-1.38-1.47c-.5-.16-1-.34-1.47-.51L224,227.85l-.34-.23c1.32-6.24,5.72-12.53,11.4-17.24C235.07,210.38,247.75,199.69,260,202.35Z"/><path class="cls-19" d="M229.08,231c-2.44-1.37-4.33-2.6-5.07-3.1l2.22,1.12c.49.17,1,.35,1.47.51A19.31,19.31,0,0,0,229.08,231Z"/><path class="cls-14" d="M174,227.86l.35-.24c-1.34-6.24-5.74-12.56-11.41-17.28a17.15,17.15,0,0,1,1.54,7.17,17.64,17.64,0,0,1-1.44,7l-33.54-9.31A17.61,17.61,0,0,1,138,202.35c-10.29,1.31-16.52,8.77-15.23,17a17.51,17.51,0,0,0,2,5.9c.14.27.29.52.45.77a3.18,3.18,0,0,1-.37-.27c-.19-.13-.37-.27-.55-.41-8.5-6.67-11.56-22.62,1.77-29.75,21.16-11.32,44.9,9.18,50.67,30.82Z"/><path class="cls-14" d="M168.91,231c-13.42,13.11-40.65,8.34-43.9-4.58-.05-.2-.09-.4-.13-.6s-.06-.33-.08-.5c.14.27.29.52.45.77,5.74,9.22,19.55,11.77,30.4,10.2C159.89,235.64,165.08,233.12,168.91,231Z"/><path class="cls-18" d="M162.92,210.34c5.67,4.72,10.07,11,11.41,17.28l-.35.24-2.2,1.11c-.49.18-1,.35-1.48.51-.44.52-.91,1-1.39,1.49-3.83,2.15-9,4.67-13.26,5.29-10.85,1.57-24.66-1-30.4-10.2-.16-.25-.31-.5-.45-.77a17.51,17.51,0,0,1-2-5.9c-1.29-8.27,4.94-15.73,15.23-17A33.15,33.15,0,0,1,162.92,210.34Z"/><path class="cls-19" d="M174,227.86c-.75.5-2.63,1.73-5.07,3.11.48-.47,1-1,1.39-1.49.5-.16,1-.33,1.48-.51Z"/><circle class="cls-14" cx="152.09" cy="216.75" r="17.27"/><circle class="cls-18" cx="141.15" cy="216.75" r="6.32"/><circle class="cls-14" cx="257.74" cy="216.75" r="17.27"/><circle class="cls-18" cx="247.46" cy="217.45" r="6.32"/><path class="cls-14" d="M281.24,185.16c-6.66-8.26-15.05-14.64-25.48-16.59s-20,3.21-30.24,3.5c-6.77.18-6.08,11.05.7,10.84,9-.29,17.45-4.1,26.5-4a54.87,54.87,0,0,1,27.84,8c.95.57,1.09-1.23.68-1.74Z"/><path class="cls-14" d="M116.8,184.21c6.58-8.32,14.91-14.8,25.31-16.86s20.09,3,30.28,3.18c6.77.12,6.19,11-.58,10.85-9-.19-17.5-3.91-26.54-3.78a55.13,55.13,0,0,0-27.76,8.34c-.94.58-1.11-1.21-.71-1.73Z"/></g></g></svg>