<svg xmlns="http://www.w3.org/2000/svg" xmlns:xlink="http://www.w3.org/1999/xlink" viewBox="0 0 679.43 452.04"><defs><style>.cls-1{isolation:isolate;}.cls-10,.cls-11,.cls-12,.cls-13,.cls-14,.cls-15,.cls-16,.cls-17,.cls-18,.cls-19,.cls-2,.cls-21,.cls-3,.cls-4,.cls-5,.cls-6,.cls-7,.cls-8,.cls-9{fill-rule:evenodd;}.cls-2{fill:url(#Áåçûìÿííûé_ãðàäèåíò_29);}.cls-3{fill:#012728;}.cls-11,.cls-12,.cls-14,.cls-17,.cls-18,.cls-21,.cls-4,.cls-5,.cls-6,.cls-7,.cls-8{opacity:0.8;mix-blend-mode:multiply;}.cls-4{fill:url(#Áåçûìÿííûé_ãðàäèåíò_81);}.cls-5{fill:url(#Áåçûìÿííûé_ãðàäèåíò_81-2);}.cls-6{fill:url(#Áåçûìÿííûé_ãðàäèåíò_81-3);}.cls-7{fill:url(#Áåçûìÿííûé_ãðàäèåíò_81-4);}.cls-8{fill:url(#Áåçûìÿííûé_ãðàäèåíò_81-5);}.cls-9{fill:url(#Áåçûìÿííûé_ãðàäèåíò_79);}.cls-10{fill:url(#Áåçûìÿííûé_ãðàäèåíò_29-2);}.cls-11{fill:url(#Áåçûìÿííûé_ãðàäèåíò_81-6);}.cls-12{fill:url(#Áåçûìÿííûé_ãðàäèåíò_81-7);}.cls-13{fill:url(#Áåçûìÿííûé_ãðàäèåíò_29-3);}.cls-14{fill:url(#Áåçûìÿííûé_ãðàäèåíò_80);}.cls-15{fill:url(#Áåçûìÿííûé_ãðàäèåíò_29-4);}.cls-16{fill:url(#Áåçûìÿííûé_ãðàäèåíò_29-5);}.cls-17{fill:url(#Áåçûìÿííûé_ãðàäèåíò_80-2);}.cls-18{fill:url(#Áåçûìÿííûé_ãðàäèåíò_81-8);}.cls-19{fill:url(#Áåçûìÿííûé_ãðàäèåíò_29-6);}.cls-20{fill:#a0343b;}.cls-21{fill:url(#Áåçûìÿííûé_ãðàäèåíò_81-9);}.cls-22{font-size:59.31px;fill:#4f0808;font-family:WickedMouse, Wicked Mouse;letter-spacing:-0.18em;}.cls-23{letter-spacing:-0.09em;}.cls-24{letter-spacing:0.04em;}.cls-25{letter-spacing:-0.19em;}.cls-26{letter-spacing:-0.22em;}.cls-27{letter-spacing:-0.02em;}.cls-28{letter-spacing:0.04em;}.cls-29{letter-spacing:0.06em;}</style><linearGradient id="Áåçûìÿííûé_ãðàäèåíò_29" x1="290.61" y1="387.91" x2="290.61" y2="225.64" gradientUnits="userSpaceOnUse"><stop offset="0" stop-color="#d65629"/><stop offset="1" stop-color="#ff914f"/></linearGradient><linearGradient id="Áåçûìÿííûé_ãðàäèåíò_81" x1="846.82" y1="769.8" x2="846.82" y2="689.12" gradientTransform="matrix(0.67, -0.04, 0.06, 0.99, -321.17, -392.09)" gradientUnits="userSpaceOnUse"><stop offset="0" stop-color="#fff"/><stop offset="1" stop-color="#cc6670"/></linearGradient><linearGradient id="Áåçûìÿííûé_ãðàäèåíò_81-2" x1="902.55" y1="846.99" x2="902.55" y2="766.31" xlink:href="#Áåçûìÿííûé_ãðàäèåíò_81"/><linearGradient id="Áåçûìÿííûé_ãðàäèåíò_81-3" x1="1096.76" y1="-10.79" x2="1096.76" y2="-175.17" gradientTransform="matrix(-0.67, -0.04, 0.03, -0.64, 995.45, 329.79)" xlink:href="#Áåçûìÿííûé_ãðàäèåíò_81"/><linearGradient id="Áåçûìÿííûé_ãðàäèåíò_81-4" x1="530.98" y1="-149.89" x2="530.98" y2="-314.27" gradientTransform="matrix(-0.34, -0.02, 0.01, -0.27, 477.3, 309.16)" xlink:href="#Áåçûìÿííûé_ãðàäèåíò_81"/><linearGradient id="Áåçûìÿííûé_ãðàäèåíò_81-5" x1="502.79" y1="-115.73" x2="502.79" y2="-280.11" gradientTransform="matrix(-0.32, -0.02, 0.02, -0.39, 480.33, 244.4)" xlink:href="#Áåçûìÿííûé_ãðàäèåíò_81"/><radialGradient id="Áåçûìÿííûé_ãðàäèåíò_79" cx="335.91" cy="122.78" r="247" gradientUnits="userSpaceOnUse"><stop offset="0" stop-color="#ffdb9a"/><stop offset="1" stop-color="#ff9f74"/></radialGradient><linearGradient id="Áåçûìÿííûé_ãðàäèåíò_29-2" x1="0" y1="7.89" x2="563.64" y2="7.89" xlink:href="#Áåçûìÿííûé_ãðàäèåíò_29"/><linearGradient id="Áåçûìÿííûé_ãðàäèåíò_81-6" x1="258.32" y1="742.71" x2="258.32" y2="662.03" gradientTransform="matrix(0, 0.68, -6.39, 0.02, 4789.86, -178.68)" xlink:href="#Áåçûìÿííûé_ãðàäèåíò_81"/><linearGradient id="Áåçûìÿííûé_ãðàäèåíò_81-7" x1="218.94" y1="50.1" x2="218.94" y2="-114.28" gradientTransform="matrix(-0.04, 0.67, -1, -0.05, 441.98, -141.11)" xlink:href="#Áåçûìÿííûé_ãðàäèåíò_81"/><linearGradient id="Áåçûìÿííûé_ãðàäèåíò_29-3" x1="-306.27" y1="249.33" x2="-59.41" y2="249.33" gradientTransform="matrix(0, 1, 1, 0, -241.75, 306.27)" xlink:href="#Áåçûìÿííûé_ãðàäèåíò_29"/><linearGradient id="Áåçûìÿííûé_ãðàäèåíò_80" x1="5.66" y1="246.87" x2="5.66" y2="89.09" gradientUnits="userSpaceOnUse"><stop offset="0" stop-color="#cc6670"/><stop offset="1" stop-color="#fff"/></linearGradient><linearGradient id="Áåçûìÿííûé_ãðàäèåíò_29-4" x1="-654.51" y1="508.69" x2="-490.67" y2="508.69" gradientTransform="matrix(-0.71, -0.71, -0.71, 0.71, 570.68, -700.96)" xlink:href="#Áåçûìÿííûé_ãðàäèåíò_29"/><linearGradient id="Áåçûìÿííûé_ãðàäèåíò_29-5" x1="202" y1="-197.38" x2="359.35" y2="-325.72" gradientTransform="translate(570.68 389.5) rotate(135)" xlink:href="#Áåçûìÿííûé_ãðàäèåíò_29"/><linearGradient id="Áåçûìÿííûé_ãðàäèåíò_80-2" x1="53.13" y1="37.35" x2="53.13" y2="-120.43" gradientTransform="matrix(-0.73, -0.69, -0.69, 0.73, 622.29, 249.61)" xlink:href="#Áåçûìÿííûé_ãðàäèåíò_80"/><linearGradient id="Áåçûìÿííûé_ãðàäèåíò_81-8" x1="604.49" y1="713.72" x2="604.49" y2="668.28" gradientTransform="matrix(0, 0.68, -6.39, 0.02, 4789.86, -178.68)" xlink:href="#Áåçûìÿííûé_ãðàäèåíò_81"/><linearGradient id="Áåçûìÿííûé_ãðàäèåíò_29-6" x1="566.2" y1="238.98" x2="0.62" y2="238.98" xlink:href="#Áåçûìÿííûé_ãðàäèåíò_29"/><linearGradient id="Áåçûìÿííûé_ãðàäèåíò_81-9" x1="-709.78" y1="1095.47" x2="-709.78" y2="803.95" gradientTransform="matrix(0.02, -0.67, 1, 0.03, -695.89, -264.07)" xlink:href="#Áåçûìÿííûé_ãðàäèåíò_81"/></defs><title>Pathway board</title><g class="cls-1"><g id="Layer_2" data-name="Layer 2"><g id="Layer_20" data-name="Layer 20"><polygon class="cls-2" points="352.53 420.89 228.68 420.89 240.12 197.36 327.28 197.36 352.53 420.89"/><polygon class="cls-3" points="228.68 411.73 125.73 411.73 200.85 420.89 156.88 433.72 424.39 452.04 373.92 431.89 439.04 411.73 228.68 411.73"/><path class="cls-4" d="M287.27,254.27l6.67,79.41S294.16,277.61,287.27,254.27Z"/><path class="cls-5" d="M329.23,328.18l6.68,79.41S336.12,351.52,329.23,328.18Z"/><path class="cls-6" d="M254.4,403.68,259,298.38S238.05,371.69,254.4,403.68Z"/><path class="cls-7" d="M295.14,386.28l1.91-45.2S286.81,372.48,295.14,386.28Z"/><path class="cls-8" d="M316.06,344.89,319,281.05S308.53,325.62,316.06,344.89Z"/><polygon class="cls-9" points="556.74 236.79 5.72 236.79 5.72 8.78 556.74 8.78 666.09 112.16 556.74 236.79"/><polygon class="cls-10" points="556.64 15.78 7.8 15.78 0 0 563.64 0 556.64 15.78"/><path class="cls-11" d="M558.6,4.08,42.9,7.37S405.2,10,558.6,4.08Z"/><path class="cls-12" d="M548.64,8.31,384.44.63S499.27,23.76,548.64,8.31Z"/><polygon class="cls-13" points="15.17 243.8 15.17 3.42 0 0 0 246.87 15.17 243.8"/><polygon class="cls-14" points="3.73 246.87 6.16 89.09 7.58 246.86 3.73 246.87"/><polygon class="cls-15" points="556.64 15.78 657.99 115.92 679.43 115.92 563.64 0 556.64 15.78"/><polygon class="cls-16" points="556.64 231.09 657.99 115.92 679.43 115.92 563.64 246.87 556.64 231.09"/><polygon class="cls-17" points="559.43 241.56 666.09 125.27 556.64 238.9 559.43 241.56"/><path class="cls-18" d="M519.17,237.7,228.68,241S432.76,243.59,519.17,237.7Z"/><polygon class="cls-19" points="563.64 246.87 0 246.87 7.8 231.09 556.64 231.09 563.64 246.87"/><circle class="cls-20" cx="5.72" cy="10.65" r="1.87"/><circle class="cls-20" cx="11.4" cy="5.14" r="1.87"/><circle class="cls-20" cx="555.84" cy="5.94" r="1.87"/><circle class="cls-20" cx="561.36" cy="11.62" r="1.87"/><circle class="cls-20" cx="556.73" cy="236.79" r="1.87"/><circle class="cls-20" cx="562.25" cy="242.47" r="1.87"/><circle class="cls-20" cx="5.72" cy="233.03" r="1.87"/><circle class="cls-20" cx="11.4" cy="238.54" r="1.87"/><path class="cls-21" d="M94.32,242.74l291.6.57S181.55,225.17,94.32,242.74Z"/><text class="cls-22" transform="translate(55.37 101.23)">p<tspan class="cls-23" x="31.53" y="0">a</tspan><tspan class="cls-24" x="81.19" y="0">th</tspan><tspan class="cls-25" x="175.1" y="0">w</tspan><tspan class="cls-26" x="231.22" y="0">a</tspan><tspan class="cls-24" x="273.35" y="0">y of</tspan><tspan class="cls-24"><tspan x="0" y="83.5">all</tspan><tspan class="cls-27" x="135.14" y="83.5">o</tspan><tspan class="cls-25" x="188.16" y="83.5">w</tspan><tspan class="cls-28" x="244.28" y="83.5">anc</tspan><tspan class="cls-29" x="406.61" y="83.5">e</tspan><tspan x="447.12" y="83.5">s</tspan></tspan></text></g></g></g></svg>